<?xml version="1.0" encoding="UTF-8"?>
<svg width="88px" height="88px" viewBox="0 0 88 88" version="1.1" xmlns="http://www.w3.org/2000/svg" xmlns:xlink="http://www.w3.org/1999/xlink">
    <!-- Generator: Sketch 55 (78076) - https://sketchapp.com -->
    <title>编组 21</title>
    <desc>Created with Sketch.</desc>
    <g id="编组-21" stroke="none" stroke-width="1" fill="none" fill-rule="evenodd">
        <g>
            <rect id="矩形" x="0" y="0" width="88" height="88"></rect>
            <g id="编组-9" transform="translate(1.000000, 12.000000)">
                <polyline id="路径-14备份-2" stroke="#DBEAFF" stroke-width="4" stroke-linecap="round" stroke-linejoin="round" points="62 21 85 21 79.983012 14"></polyline>
                <path d="M18,14.2929606 L18,10.3597479 L45.5,0 L73,10.3597479 L73,28.3373109 C73,32.4606723 72.3053385,36.4597479 70.9160156,40.3418487 C69.5266927,44.2239496 67.6289062,47.7331933 65.2226563,50.854958 C62.7233073,54.1229412 59.8014323,56.8937815 56.4570312,59.167479 C53.1126302,61.4411765 49.4602865,63.0495798 45.5,64 C41.5397135,63.0495798 37.8873698,61.4411765 34.5429688,59.167479 C31.1985677,56.8937815 28.2766927,54.1229412 25.7773437,50.854958 C23.7663049,48.239813 22.1104222,45.3642315 20.8096955,42.2239456 C25.7559864,39.8677586 29.1864407,34.7221562 29.1864407,28.7536232 C29.1864407,21.709829 24.4086211,15.8121846 18,14.2929606 Z" id="路径" fill="#9EC8FF" fill-rule="nonzero"></path>
                <path d="M5.05910126,38.01997 L5.05974265,38.0175217 C6.11050368,37.0723729 7.73424086,36.502606 9.70870317,35.9955834 C10.5097481,35.6984048 10.8957758,35.5011816 11.184831,35.2320709 C11.493383,34.9450647 11.6640705,34.6734704 11.7231449,34.3779589 C11.7635622,34.1742376 11.7529741,33.5811052 11.7211368,32.6282966 C11.165955,32.0422407 10.6822977,31.1682941 10.2182466,29.9103799 C9.74116119,29.6767536 9.31603053,29.1084911 9.18802399,28.4813371 C9.05172953,27.8099891 9.12942431,27.2439039 9.3831007,26.9062056 C8.79268607,23.6745969 9.17418644,21.2750883 10.5208838,19.7709258 C11.5708587,18.5960582 13.1786807,18.0010206 15.2992225,18.0010206 L15.488567,18 C17.2538231,18 17.6601143,18.3445026 18.0413591,18.8302288 C18.1157314,18.9243666 18.1747692,18.9994182 18.2647316,19.0680397 C19.2410279,19.0685501 20.051383,19.4332275 20.6086094,20.1216883 C21.6676754,21.4293421 21.7953899,23.930031 20.9640411,26.8571464 C21.2583539,27.1931096 21.3396997,27.7971289 21.1684645,28.5172299 C21.0077079,29.1844613 20.5006472,29.7836155 19.9908847,29.9649846 C19.6146784,31.1180442 19.2307683,31.9926372 18.6246541,32.6495601 L18.6246541,34.2736487 C18.6917243,34.7388259 18.8818355,34.9107029 19.2268617,35.2229531 L19.4558934,35.4357241 C19.6715256,35.5958297 19.862148,35.6819383 20.7167541,36.0332112 C22.6063292,36.5195839 24.2055346,37.0829133 25.2464548,38.01997 L26,37.6734581 L25.6348041,39.1958052 C25.5835044,39.2380639 25.5273783,39.2737845 25.475384,39.3151577 C25.1775683,39.5541351 24.8718547,39.78494 24.5557569,40.0031457 C24.4783138,40.0565393 24.3985306,40.1075153 24.3194422,40.1596149 C23.9819909,40.3842564 23.6383236,40.5999422 23.2823707,40.8004748 C23.2358245,40.8262182 23.1878156,40.850293 23.1413425,40.8759342 C22.7618788,41.0853544 22.3743345,41.2820732 21.9760037,41.4631962 C21.9631696,41.4694277 21.9511034,41.4757273 21.9380866,41.4813459 C21.5188776,41.6711862 21.0880777,41.8415827 20.6493069,41.9976434 C20.6236388,42.0070417 20.5979707,42.017053 20.5721563,42.0259066 C20.1449398,42.1755314 19.7086919,42.3075853 19.2657893,42.4240433 C19.2279819,42.4340206 19.1901744,42.4446108 19.1522939,42.4540432 C18.719483,42.5647124 18.2800906,42.6583556 17.8337509,42.7363348 C17.7845355,42.7450522 17.735905,42.7527479 17.6872746,42.7609204 C17.2476628,42.833247 16.8033707,42.8916804 16.3531187,42.9307381 C16.3036839,42.9350968 16.254505,42.9376507 16.2051798,42.9414304 C15.7474321,42.9773894 15.2855892,43 14.817567,43 C14.3498007,43 13.8879213,42.9772873 13.4302101,42.9414304 C13.3808119,42.9375485 13.3308651,42.9350968 13.2808452,42.9307381 C12.8313245,42.8916804 12.3878003,42.833247 11.9495414,42.7609204 C11.8987902,42.7526798 11.84888,42.7445754 11.7982385,42.7356538 C11.3569923,42.658928 10.9193586,42.5651813 10.4864591,42.4546559 C10.4452878,42.4440317 10.4048477,42.4326583 10.3637495,42.4219659 C9.92486901,42.3064613 9.49191187,42.1762122 9.06868083,42.0277452 C9.03760122,42.0164058 9.00648506,42.0045557 8.97460104,41.9931823 C8.54259458,41.8390627 8.11724281,41.671186 7.70333564,41.4845466 C7.68176274,41.4745693 7.66070174,41.463877 7.63934823,41.4536614 C7.25436337,41.2783954 6.87903148,41.0877719 6.51163402,40.8859113 C6.45638546,40.855639 6.3996012,40.827512 6.34482797,40.7965927 C5.99790649,40.6003847 5.66180802,40.3890916 5.3314867,40.1703411 C5.24431756,40.1124526 5.15667308,40.0564029 5.07092995,39.9973566 C4.76221809,39.7841226 4.46454863,39.5590384 4.173607,39.3263947 C4.11671305,39.2816843 4.05608954,39.2426607 4,39.1968266 L5.05910126,38.01997 Z" id="路径备份-6" fill="#4291F7" fill-rule="nonzero"></path>
                <ellipse id="椭圆形备份-5" stroke="#4291F7" stroke-width="2" cx="14.5" cy="28" rx="14.5" ry="15"></ellipse>
                <circle id="椭圆形" fill="#DBEAFF" cx="46" cy="20" r="7"></circle>
                <path d="M41,35 L51,44" id="路径-13" stroke="#FFFFFF" stroke-width="4" stroke-linecap="round" stroke-linejoin="round"></path>
                <path d="M41,35 L51,45" id="路径-13备份" stroke="#FFFFFF" stroke-width="4" stroke-linecap="round" stroke-linejoin="round" transform="translate(46.000000, 40.000000) rotate(-270.000000) translate(-46.000000, -40.000000) "></path>
                <path d="M33.25,20.5 L47,20.5" id="路径-14" stroke="#FFFFFF" stroke-width="4" stroke-linecap="round"></path>
                <path d="M31.0569701,39.5 L38.5,39.5" id="路径-14备份" stroke="#FFFFFF" stroke-width="4" stroke-linecap="round"></path>
            </g>
        </g>
    </g>
</svg>