<?xml version="1.0" encoding="UTF-8"?>
<svg width="492px" height="110px" viewBox="0 0 492 110" version="1.1" xmlns="http://www.w3.org/2000/svg" xmlns:xlink="http://www.w3.org/1999/xlink">
    <!-- Generator: Sketch 55 (78076) - https://sketchapp.com -->
    <title>编组 11</title>
    <desc>Created with Sketch.</desc>
    <g id="页面1" stroke="none" stroke-width="1" fill="none" fill-rule="evenodd">
        <g id="MFA" transform="translate(-798.000000, -821.000000)" fill-rule="nonzero">
            <g id="编组-11" transform="translate(799.000000, 822.000000)">
                <path d="M282.772336,84.857525 L249.675398,84.857525 L249.675398,93.4313328 L256.641398,100.286183 L256.641398,102 L211.353328,102 L211.353328,100.286288 L218.319328,93.4313328 L218.319328,84.857525 L185.225133,84.857525 C182.337398,84.857525 180,82.5554747 180,79.7111421 L180,11.1437601 C180,8.3045682 182.337504,6 185.225133,6 L282.772336,6 C285.66007,6 288,8.30205034 288,11.1437601 L288,79.7137649 C288,82.5554747 285.66007,84.857525 282.772336,84.857525 Z M278.028937,16.8600953 L189.966,16.8600953 L189.966,71.1476156 L278.028937,71.1476156 L278.028937,16.8600953 Z" id="形状" stroke="#4291F7" stroke-width="2" fill="#F0F0F0"></path>
                <path d="M46.9397163,0 L45.0602877,0 L45.0602857,4.11892812e-14 C20.174183,1.09667563e-06 0,20.3386465 0,45.427625 C0,45.427625 0,45.427625 0,45.427625 C-0,79.5 44.6922857,106 46,106 C47.3077143,106 92,79.48675 92,45.427625 L92,45.427625 C92,20.3386465 71.825817,7.64943664e-14 46.9397143,7.64943664e-14 L46.9397163,0 Z M46.000002,59.625 L46.0000013,59.625 C36.9267477,59.6249996 29.5714298,52.2097203 29.5714298,43.0625 C29.5714302,33.9152797 36.9267477,26.5 46.0000013,26.5 L46.0000005,26.5 C55.0732541,26.4999996 62.428572,33.9152797 62.428572,43.0625 C62.4285724,52.2097203 55.0732541,59.625 46.0000005,59.625 L46.000002,59.625 Z" id="形状" stroke="#4291F7" stroke-width="2" fill="#F0F0F0"></path>
                <g id="编组-5" transform="translate(64.000000, 52.000000)">
                    <path d="M28.4999115,0 C12.7597452,0 0,12.7598236 0,28.5 C0,44.2401764 12.7597452,57 28.4999115,57 C44.2401368,57 57,44.2401764 57,28.5 C57,12.7598236 44.2401958,8.3858078e-16 28.4999115,0 Z" id="形状" fill="#F24545"></path>
                    <path d="M25.2868462,41.3143245 C25.2868462,39.5155736 26.7449729,38.0572095 28.5437884,38.0572095 C30.3427278,38.0572095 31.8009135,39.5156326 31.8009135,41.3143245 C31.800974,43.1131993 30.3427278,44.5714395 28.5437884,44.5714395 C26.744967,44.5714395 25.2868462,43.1132583 25.2868462,41.3143245 Z M28.5437884,34.8000472 C27.6444102,34.8000472 26.9151934,33.7066532 26.9151934,32.3571622 L25.2868403,14.442885 C25.2868403,13.0938189 27.6444043,12 28.5437825,12 C29.4432846,12 31.8009076,13.0938189 31.8009076,14.442885 L30.1723775,32.3571622 C30.1723834,33.7065883 29.4432905,34.8000472 28.5437884,34.8000472 Z" id="形状备份" fill="#FFFFFF"></path>
                </g>
                <g id="编组-5备份" transform="translate(257.000000, 52.000000)">
                    <path d="M28.4999115,0 C12.7597452,0 0,12.7598236 0,28.5 C0,44.2401764 12.7597452,57 28.4999115,57 C44.2401368,57 57,44.2401764 57,28.5 C57,12.7598236 44.2401958,8.3858078e-16 28.4999115,0 Z" id="形状" fill="#F24545"></path>
                    <path d="M25.2868462,41.3143245 C25.2868462,39.5155736 26.7449729,38.0572095 28.5437884,38.0572095 C30.3427278,38.0572095 31.8009135,39.5156326 31.8009135,41.3143245 C31.800974,43.1131993 30.3427278,44.5714395 28.5437884,44.5714395 C26.744967,44.5714395 25.2868462,43.1132583 25.2868462,41.3143245 Z M28.5437884,34.8000472 C27.6444102,34.8000472 26.9151934,33.7066532 26.9151934,32.3571622 L25.2868403,14.442885 C25.2868403,13.0938189 27.6444043,12 28.5437825,12 C29.4432846,12 31.8009076,13.0938189 31.8009076,14.442885 L30.1723775,32.3571622 C30.1723834,33.7065883 29.4432905,34.8000472 28.5437884,34.8000472 Z" id="形状备份" fill="#FFFFFF"></path>
                </g>
                <path d="M421.614948,36 C424.869442,36 427.225166,36.5772871 428.682119,37.7507886 C430.224219,38.9242902 431,40.8170347 431,43.4384858 C431,46.1072555 430.252602,48.0473186 428.748344,49.2492114 C427.206244,50.4227129 424.831599,51 421.624409,51 L411,51 L411,36 L421.614948,36 Z M410,4 C436.5125,4 458,25.4875 458,52 C458,78.5125 436.5125,100 410,100 C383.4875,100 362,78.5125 362,52 C362,25.4875 383.4875,4 410,4 Z M395.028125,74.10625 L395.028125,29.89375 L387.78125,29.89375 L387.78125,74.10625 L395.028125,74.10625 Z M421.90625,57.1375 C432.678125,57.1375 438.059375,52.58125 438.06875,43.459375 C438.06875,34.4125 432.725,29.89375 422.028125,29.89375 L403.7,29.89375 L403.7,74.10625 L410.946875,74.10625 L410.946875,57.1375 L421.90625,57.1375 Z" id="形状" stroke="#4291F7" stroke-width="2" fill="#F0F0F0"></path>
                <g id="编组-5备份-2" transform="translate(434.000000, 52.000000)">
                    <path d="M28.4999115,0 C12.7597452,0 0,12.7598236 0,28.5 C0,44.2401764 12.7597452,57 28.4999115,57 C44.2401368,57 57,44.2401764 57,28.5 C57,12.7598236 44.2401958,8.3858078e-16 28.4999115,0 Z" id="形状" fill="#F24545"></path>
                    <path d="M25.2868462,41.3143245 C25.2868462,39.5155736 26.7449729,38.0572095 28.5437884,38.0572095 C30.3427278,38.0572095 31.8009135,39.5156326 31.8009135,41.3143245 C31.800974,43.1131993 30.3427278,44.5714395 28.5437884,44.5714395 C26.744967,44.5714395 25.2868462,43.1132583 25.2868462,41.3143245 Z M28.5437884,34.8000472 C27.6444102,34.8000472 26.9151934,33.7066532 26.9151934,32.3571622 L25.2868403,14.442885 C25.2868403,13.0938189 27.6444043,12 28.5437825,12 C29.4432846,12 31.8009076,13.0938189 31.8009076,14.442885 L30.1723775,32.3571622 C30.1723834,33.7065883 29.4432905,34.8000472 28.5437884,34.8000472 Z" id="形状备份" fill="#FFFFFF"></path>
                </g>
            </g>
        </g>
    </g>
</svg>