<?xml version="1.0" encoding="UTF-8"?>
<svg width="541px" height="147px" viewBox="0 0 541 147" version="1.1" xmlns="http://www.w3.org/2000/svg" xmlns:xlink="http://www.w3.org/1999/xlink">
    <!-- Generator: Sketch 55 (78076) - https://sketchapp.com -->
    <title>编组 17</title>
    <desc>Created with Sketch.</desc>
    <g id="页面1" stroke="none" stroke-width="1" fill="none" fill-rule="evenodd">
        <g id="账号生命周期管理" transform="translate(-748.000000, -793.000000)">
            <g id="编组-19" transform="translate(150.000000, 762.000000)">
                <g id="编组-17" transform="translate(597.000000, 31.000000)">
                    <rect id="矩形备份-26" stroke="#CBD3DA" stroke-width="2" fill="#FFFFFF" x="217" y="16" width="88" height="98" rx="4"></rect>
                    <path d="M269,61.3929562 L264.142857,61.3929562 L264.142857,77 L256.857143,77 L256.857143,72.4264463 L252,72.4264463 L252,65.0334901 L256.857143,65.0334901 L256.857143,54 L269,54 L269,61.3929562 Z M294,61.6158195 L283.439198,61.6158195 C281.920875,51.3678353 273.945516,43.2714206 263.855193,41.7293734 L263.855193,31 C279.740202,32.6595025 292.366028,45.4826076 294,61.6158195 Z M237.004613,65.1724048 C237.004613,78.2686827 247.457652,88.8859396 260.353324,88.8859396 C272.057468,88.8859396 281.749155,80.1381812 283.439198,68.7298799 L290.498131,68.7298799 C288.760777,84.0782762 275.930814,96 260.353324,96 C243.589563,96 230,82.1980999 230,65.1724048 C230,49.3515175 241.738313,36.3210858 256.85058,34.5565853 L256.85058,41.7258142 C245.617791,43.4422648 237.004613,53.2853838 237.004613,65.1724048 Z" id="形状结合备份" fill="#4291F7" fill-rule="nonzero"></path>
                    <g id="编组-16" transform="translate(305.000000, 16.000000)" fill="#4291F7" fill-rule="nonzero">
                        <polygon id="路径备份-3" points="81.2379533 46.6666361 81.2379533 45 87 47.5 81.2379533 50 81.2379533 48.3333181 -1.20736754e-15 48.3333181 -1.20736754e-15 46.6666361"></polygon>
                        <polygon id="路径备份-4" points="51.3679941 3.3267952 25.6137725 48 24 46.8140971 49.8847547 1.96505491 50.1087073 1.66337475 50.6560303 1.66337475 81.2200061 1.66337475 81.2200061 -2.66453526e-15 87 2.49510782 81.2200061 4.99021564 81.2200061 3.3267952"></polygon>
                        <polygon id="路径备份-5" transform="translate(55.500000, 71.000000) scale(1, -1) translate(-55.500000, -71.000000) " points="51.3679941 50.3267952 25.6137725 95 24 93.8140971 49.8847547 48.9650549 50.1087073 48.6633748 50.6560303 48.6633748 81.2200061 48.6633748 81.2200061 47 87 49.4951078 81.2200061 51.9902156 81.2200061 50.3267952"></polygon>
                    </g>
                    <g id="编组-15" transform="translate(129.000000, 15.000000)" fill="#4291F7" fill-rule="nonzero">
                        <polygon id="路径备份-6" transform="translate(43.500000, 47.500000) rotate(-180.000000) translate(-43.500000, -47.500000) " points="81.2379533 46.6666361 81.2379533 45 87 47.5 81.2379533 50 81.2379533 48.3333181 -1.20736754e-15 48.3333181 -1.20736754e-15 46.6666361"></polygon>
                        <polygon id="路径备份-7" transform="translate(31.500000, 71.000000) rotate(-180.000000) translate(-31.500000, -71.000000) " points="27.3679941 50.3267952 1.61377252 95 0 93.8140971 25.8847547 48.9650549 26.1087073 48.6633748 26.6560303 48.6633748 57.2200061 48.6633748 57.2200061 47 63 49.4951078 57.2200061 51.9902156 57.2200061 50.3267952"></polygon>
                        <polygon id="路径备份-8" transform="translate(31.500000, 24.000000) scale(1, -1) rotate(-180.000000) translate(-31.500000, -24.000000) " points="27.3679941 3.3267952 1.61377252 48 0 46.8140971 25.8847547 1.96505491 26.1087073 1.66337475 26.6560303 1.66337475 57.2200061 1.66337475 57.2200061 -2.66453526e-15 63 2.49510782 57.2200061 4.99021564 57.2200061 3.3267952"></polygon>
                    </g>
                    <text id="玉符统一目录备份" font-family="PingFangSC-Regular, PingFang SC" font-size="12" font-weight="normal" fill="#5B626E">
                        <tspan x="230" y="145">玉符统一目录</tspan>
                    </text>
                    <rect id="矩形备份-10" stroke="#CBD3DA" stroke-width="2" fill="#FFFFFF" x="393" y="1" width="92" height="38" rx="4"></rect>
                    <rect id="矩形备份-11" stroke="#CBD3DA" stroke-width="2" fill="#FFFFFF" x="393" y="45" width="92" height="38" rx="4"></rect>
                    <rect id="矩形备份-12" stroke="#CBD3DA" stroke-width="2" fill="#FFFFFF" x="393" y="89" width="92" height="38" rx="4"></rect>
                    <text id="Clouds" font-family="DINAlternate-Bold, DIN Alternate" font-size="12" font-weight="bold" fill="#5B626E">
                        <tspan x="496" y="24">Clouds</tspan>
                    </text>
                    <text id="Office365" font-family="DINAlternate-Bold, DIN Alternate" font-size="18" font-weight="bold" fill="#4291F7">
                        <tspan x="405" y="27">Office365</tspan>
                    </text>
                    <text id="SAP" font-family="DINAlternate-Bold, DIN Alternate" font-size="18" font-weight="bold" fill="#4291F7">
                        <tspan x="423" y="71">SAP</tspan>
                    </text>
                    <text id="钉钉" font-family="PingFangSC-Semibold, PingFang SC" font-size="18" font-weight="500" fill="#4291F7">
                        <tspan x="421" y="115">钉钉</tspan>
                    </text>
                    <rect id="矩形备份-10" stroke="#CBD3DA" stroke-width="2" fill="#FFFFFF" x="56" y="1" width="72" height="38" rx="4"></rect>
                    <rect id="矩形备份-11" stroke="#CBD3DA" stroke-width="2" fill="#FFFFFF" x="56" y="45" width="72" height="38" rx="4"></rect>
                    <rect id="矩形备份-12" stroke="#CBD3DA" stroke-width="2" fill="#FFFFFF" x="56" y="89" width="72" height="38" rx="4"></rect>
                    <text id="HR" font-family="DINAlternate-Bold, DIN Alternate" font-size="18" font-weight="bold" fill="#4291F7">
                        <tspan x="81" y="27">HR</tspan>
                    </text>
                    <text id="OA" font-family="DINAlternate-Bold, DIN Alternate" font-size="18" font-weight="bold" fill="#4291F7">
                        <tspan x="81" y="71">OA</tspan>
                    </text>
                    <text id="AD" font-family="PingFangSC-Semibold, PingFang SC" font-size="18" font-weight="500" fill="#4291F7">
                        <tspan x="79" y="115">AD</tspan>
                    </text>
                    <text id="On-Prem" font-family="DINAlternate-Bold, DIN Alternate" font-size="12" font-weight="bold" fill="#5B626E">
                        <tspan x="496" y="68">On-Prem</tspan>
                    </text>
                    <text id="Mobile" font-family="DINAlternate-Bold, DIN Alternate" font-size="12" font-weight="bold" fill="#5B626E">
                        <tspan x="496" y="112">Mobile</tspan>
                    </text>
                    <text id="HR系统" font-family="DINAlternate-Bold, DIN Alternate" font-size="12" font-weight="bold" fill="#5B626E">
                        <tspan x="7" y="22">HR</tspan>
                        <tspan x="22.09375" y="22" font-family="PingFangSC-Semibold, PingFang SC" font-weight="500">系统</tspan>
                    </text>
                    <text id="OA系统" font-family="DINAlternate-Bold, DIN Alternate" font-size="12" font-weight="bold" fill="#5B626E">
                        <tspan x="8" y="66">OA</tspan>
                        <tspan x="22.4199219" y="66" font-family="PingFangSC-Semibold, PingFang SC" font-weight="500">系统</tspan>
                    </text>
                    <text id="Microsoft-Active-Dir" font-family="DINAlternate-Bold, DIN Alternate" font-size="12" font-weight="bold" fill="#5B626E">
                        <tspan x="0.822265625" y="99">Microsoft</tspan>
                        <tspan x="16.8886719" y="113">Active</tspan>
                        <tspan x="1.45507812" y="127">Directory</tspan>
                    </text>
                </g>
            </g>
        </g>
    </g>
</svg>