<?xml version="1.0" encoding="UTF-8"?>
<svg width="386px" height="125px" viewBox="0 0 386 125" version="1.1" xmlns="http://www.w3.org/2000/svg" xmlns:xlink="http://www.w3.org/1999/xlink">
    <!-- Generator: Sketch 55 (78076) - https://sketchapp.com -->
    <title>SDK</title>
    <desc>Created with Sketch.</desc>
    <g id="页面1" stroke="none" stroke-width="1" fill="none" fill-rule="evenodd">
        <g id="单点登录" transform="translate(-150.000000, -1293.000000)" fill="#4291F7" fill-rule="nonzero">
            <path d="M150,1375.94855 L185.322556,1373.7223 C186.087472,1379.49409 187.6446,1383.89159 189.993985,1386.91491 C193.818565,1391.80719 199.28217,1394.2533 206.384962,1394.2533 C211.684738,1394.2533 215.768783,1393.00276 218.637218,1390.50165 C221.505653,1388.00054 222.93985,1385.10094 222.93985,1381.80277 C222.93985,1378.66951 221.573948,1375.86611 218.842105,1373.39248 C216.110262,1370.91885 209.772481,1368.58268 199.828571,1366.38391 C183.546786,1362.70095 171.936626,1357.80874 164.997744,1351.70712 C158.004226,1345.60551 154.507519,1337.82744 154.507519,1328.37269 C154.507519,1322.16114 156.296849,1316.29323 159.875564,1310.7688 C163.454279,1305.24437 168.835929,1300.90184 176.020677,1297.74109 C183.205424,1294.58035 193.053572,1293 205.565414,1293 C220.918373,1293 232.624145,1295.87211 240.683083,1301.61642 C248.74202,1307.36074 253.536333,1316.49928 255.066165,1329.03232 L220.071429,1331.09367 C219.142602,1325.65169 217.189363,1321.69394 214.211654,1319.22032 C211.233945,1316.74669 207.122583,1315.50989 201.877444,1315.50989 C197.561131,1315.50989 194.310287,1316.43062 192.124812,1318.2721 C189.939337,1320.11358 188.846617,1322.35355 188.846617,1324.99208 C188.846617,1326.91602 189.748111,1328.64753 191.551128,1330.18668 C193.299507,1331.78079 197.451847,1333.26494 204.008271,1334.63918 C220.235419,1338.15723 231.859238,1341.71645 238.880075,1345.31695 C245.900912,1348.91745 251.009383,1353.38366 254.205639,1358.7157 C257.401896,1364.04774 259,1370.01184 259,1376.60818 C259,1384.35888 256.869194,1391.5048 252.607519,1398.04617 C248.345843,1404.58754 242.390514,1409.54847 234.741353,1412.92909 C227.092192,1416.30971 217.44893,1418 205.811278,1418 C185.377091,1418 171.226355,1414.04226 163.358647,1406.12665 C155.490938,1398.21104 151.0381,1388.15178 150,1375.94855 Z M279,1296 L333.877687,1296 C344.695631,1296 353.434115,1297.48566 360.093403,1300.45703 C366.75269,1303.42839 372.256712,1307.69279 376.605634,1313.25034 C380.954556,1318.8079 384.107477,1325.27327 386.064492,1332.64666 C388.021507,1340.02005 389,1347.83352 389,1356.08731 C389,1369.01825 387.545851,1379.04646 384.637509,1386.17224 C381.729168,1393.29801 377.692885,1399.26817 372.52854,1404.08288 C367.364195,1408.89759 361.819402,1412.10277 355.893996,1413.6985 C347.794128,1415.89951 340.455432,1417 333.877687,1417 L279,1417 L279,1296 Z M317,1322 L317,1389 L326.061224,1389 C333.789154,1389 339.285698,1388.12173 342.55102,1386.36517 C345.816343,1384.60861 348.37414,1381.54164 350.22449,1377.16417 C352.074839,1372.7867 353,1365.69085 353,1355.8764 C353,1342.88341 350.931993,1333.9892 346.795918,1329.19351 C342.659843,1324.39781 335.802769,1322 326.22449,1322 L317,1322 Z M410,1296 L446.72973,1296 L446.72973,1341.72578 L485.243243,1296 L534.054054,1296 L490.756757,1341.64325 L536,1417 L490.756757,1417 L465.702703,1367.22988 L446.72973,1387.45157 L446.72973,1417 L410,1417 L410,1296 Z" id="SDK"></path>
        </g>
    </g>
</svg>