<?xml version="1.0" encoding="UTF-8"?>
<svg width="271px" height="145px" viewBox="0 0 271 145" version="1.1" xmlns="http://www.w3.org/2000/svg" xmlns:xlink="http://www.w3.org/1999/xlink">
    <!-- Generator: Sketch 55 (78076) - https://sketchapp.com -->
    <title>编组 4</title>
    <desc>Created with Sketch.</desc>
    <g id="页面1" stroke="none" stroke-width="1" fill="none" fill-rule="evenodd">
        <g id="目录集成" transform="translate(-1019.000000, -1873.000000)">
            <g id="编组-13" transform="translate(150.000000, 1873.000000)">
                <g id="编组-4" transform="translate(869.000000, 0.000000)">
                    <rect id="矩形备份-26" stroke="#CBD3DA" stroke-width="2" fill="#FFFFFF" x="1" y="21" width="88" height="98" rx="4"></rect>
                    <path d="M53,68.3929562 L48.1428571,68.3929562 L48.1428571,84 L40.8571429,84 L40.8571429,79.4264463 L36,79.4264463 L36,72.0334901 L40.8571429,72.0334901 L40.8571429,61 L53,61 L53,68.3929562 Z M78,68.6158195 L67.4391983,68.6158195 C65.920875,58.3678353 57.945516,50.2714206 47.8551931,48.7293734 L47.8551931,38 C63.7402018,39.6595025 76.3660283,52.4826076 78,68.6158195 Z M21.0046133,72.1724048 C21.0046133,85.2686827 31.4576517,95.8859396 44.3533245,95.8859396 C56.0574683,95.8859396 65.7491547,87.1381812 67.4391983,75.7298799 L74.4981314,75.7298799 C72.760777,91.0782762 59.9308136,103 44.3533245,103 C27.5895632,103 14,89.1980999 14,72.1724048 C14,56.3515175 25.7383126,43.3210858 40.8505797,41.5565853 L40.8505797,48.7258142 C29.6177908,50.4422648 21.0046133,60.2853838 21.0046133,72.1724048 Z" id="形状结合备份" fill="#4291F7" fill-rule="nonzero"></path>
                    <text id="玉符统一目录备份" font-family="PingFangSC-Regular, PingFang SC" font-size="12" font-weight="normal" fill="#5B626E">
                        <tspan x="9" y="143">玉符统一目录</tspan>
                    </text>
                    <rect id="矩形备份-10" stroke="#CBD3DA" stroke-width="2" fill="#FFFFFF" x="178" y="1" width="92" height="28" rx="4"></rect>
                    <rect id="矩形备份-11" stroke="#CBD3DA" stroke-width="2" fill="#FFFFFF" x="178" y="37" width="92" height="28" rx="4"></rect>
                    <rect id="矩形备份-27" stroke="#CBD3DA" stroke-width="2" fill="#FFFFFF" x="178" y="73" width="92" height="28" rx="4"></rect>
                    <rect id="矩形备份-12" stroke="#CBD3DA" stroke-width="2" fill="#FFFFFF" x="178" y="109" width="92" height="28" rx="4"></rect>
                    <text id="OA" font-family="PingFangSC-Semibold, PingFang SC" font-size="16" font-weight="500" fill="#4291F7">
                        <tspan x="212" y="21">OA</tspan>
                    </text>
                    <text id="AD/LDAP" font-family="PingFangSC-Semibold, PingFang SC" font-size="16" font-weight="500" fill="#4291F7">
                        <tspan x="188" y="57">AD/LDAP</tspan>
                    </text>
                    <text id="HR" font-family="PingFangSC-Semibold, PingFang SC" font-size="16" font-weight="500" fill="#4291F7">
                        <tspan x="213" y="93">HR</tspan>
                    </text>
                    <text id="钉钉" font-family="PingFangSC-Semibold, PingFang SC" font-size="16" font-weight="500" fill="#4291F7">
                        <tspan x="208" y="130">钉钉</tspan>
                    </text>
                    <polygon id="路径备份-11" fill="#4291F7" fill-rule="nonzero" transform="translate(132.488557, 37.819455) rotate(-30.000000) translate(-132.488557, -37.819455) " points="87.1798005 36.9860912 172.035293 36.9860912 172.035293 35.319455 177.79734 37.819455 172.035293 40.319455 172.035293 38.6527731 87.1797741 38.6527731"></polygon>
                    <polygon id="路径备份-11" fill="#4291F7" fill-rule="nonzero" transform="translate(133.024527, 59.500000) rotate(-12.000000) translate(-133.024527, -59.500000) " points="93.0000264 58.6054407 167.287008 58.6666361 167.287008 57 173.049055 59.5 167.287008 62 167.287008 60.3333181 93 60.2721226"></polygon>
                    <polygon id="路径备份-13" fill="#4291F7" fill-rule="nonzero" transform="translate(133.024527, 80.500000) scale(1, -1) rotate(-12.000000) translate(-133.024527, -80.500000) " points="93.0000264 79.6054407 167.287008 79.6666361 167.287008 78 173.049055 80.5 167.287008 83 167.287008 81.3333181 93 81.2721226"></polygon>
                    <polygon id="路径备份-12" fill="#4291F7" fill-rule="nonzero" transform="translate(132.488557, 101.458365) scale(1, -1) rotate(-30.000000) translate(-132.488557, -101.458365) " points="87.1798005 100.625001 172.035293 100.625001 172.035293 98.9583651 177.79734 101.458365 172.035293 103.958365 172.035293 102.291683 87.1797741 102.291683"></polygon>
                </g>
            </g>
        </g>
    </g>
</svg>