<?xml version="1.0" encoding="UTF-8"?>
<svg width="88px" height="88px" viewBox="0 0 88 88" version="1.1" xmlns="http://www.w3.org/2000/svg" xmlns:xlink="http://www.w3.org/1999/xlink">
    <!-- Generator: Sketch 55 (78076) - https://sketchapp.com -->
    <title>编组 18</title>
    <desc>Created with Sketch.</desc>
    <g id="编组-18" stroke="none" stroke-width="1" fill="none" fill-rule="evenodd">
        <g>
            <rect id="矩形" x="0" y="0" width="88" height="88"></rect>
            <g id="编组-5" transform="translate(12.000000, 10.000000)">
                <ellipse id="椭圆形" fill="#DBEAFF" cx="26.5" cy="13" rx="26.5" ry="13"></ellipse>
                <path d="M53,16 L53,27.3420285 C53,34.3328331 41.1355459,40 26.5,40 C11.8644541,40 0,34.3328331 0,27.3420285 L0,16 C0,23.0416306 11.8644541,28.75 26.5,28.75 C41.1355459,28.75 53,23.0416306 53,16 Z" id="路径" fill="#9EC8FF"></path>
                <path d="M52.6696592,42.9023907 C52.4709595,42.8934219 52.271099,42.8888889 52.0701754,42.8888889 C46.1200624,42.8888889 41.1023452,46.8642117 39.5492763,52.2932221 C35.6971783,53.3797045 31.2441769,54 26.5,54 C11.8644541,54 -1.13686838e-13,48.0967012 -1.13686838e-13,40.8146131 L-1.13686838e-13,29 C-1.13686838e-13,36.3350318 11.8644541,42.28125 26.5,42.28125 C41.1355459,42.28125 53,36.3350318 53,29 L53,40.8146131 C53,41.5250631 52.8870717,42.2223894 52.6696592,42.9023907 L52.6696592,42.9023907 Z M43,65.1698457 C38.4777025,66.9422221 32.7665599,68 26.5577984,68 C11.8903314,68 -1.13686838e-13,62.0967012 -1.13686838e-13,54.8146131 L-1.13686838e-13,43 C-1.13686838e-13,50.3350318 11.8903314,56.28125 26.5577984,56.28125 C31.1348106,56.28125 35.4413952,55.7022285 39.2006339,54.682669 C39.1590781,55.1038457 39.1378082,55.5309362 39.1378082,55.962963 C39.1378082,59.563326 40.6149938,62.8208682 43,65.1698457 L43,65.1698457 Z" id="形状" fill="#9EC8FF"></path>
                <path d="M43,65.6499183 L43.8682226,64.6175736 L43.8687461,64.6154191 C44.7264355,63.7836882 46.0518196,63.2822933 47.6634851,62.8361134 C48.3173423,62.5745962 48.6324395,62.4010398 48.8683824,62.1642224 C49.1202396,61.911657 49.2595642,61.6726539 49.3077839,61.4126038 C49.3407748,61.2333291 49.3321322,60.7113726 49.3061448,59.872901 C48.8529747,59.3571718 48.4581868,58.5880988 48.0794026,57.4811343 C47.6899791,57.2755432 47.3429639,56.7754721 47.2384779,56.2235766 C47.1272268,55.6327904 47.1906456,55.1346354 47.3977103,54.8374609 C46.9157812,51.9936453 47.2271829,49.8820777 48.3264319,48.5584147 C49.1834795,47.5245312 50.4958728,47.0008982 52.2267765,47.0008982 L52.3813299,47 C53.8222297,47 54.153867,47.3031623 54.4650602,47.7306014 C54.5257669,47.8134426 54.5739569,47.879488 54.6473892,47.939875 C55.4442962,47.9403241 56.1057529,48.2612402 56.560592,48.8670857 C57.4250603,50.0178211 57.5293079,52.2184273 56.850715,54.7942889 C57.0909494,55.0899365 57.1573484,55.6214734 57.0175768,56.2551623 C56.8863583,56.8423259 56.4724673,57.3695816 56.0563709,57.5291864 C55.7492905,58.5438789 55.4359218,59.3135208 54.9411779,59.8916129 L54.9411779,61.3208108 C54.9959242,61.7301668 55.1511036,61.8814186 55.432733,62.1561987 L55.6196813,62.3434372 C55.7956923,62.4843301 55.9512889,62.5601057 56.6488657,62.8692259 C58.1912415,63.2972338 59.4966015,63.7929637 60.3462582,64.6175736 L61,65.3540288 L60.6632503,65.6523086 C60.6213768,65.6894962 60.5755635,65.7209303 60.5331229,65.7573388 C60.2900292,65.9676389 60.0404888,66.1707472 59.7824723,66.3627682 C59.719259,66.4097546 59.6541355,66.4546134 59.5895792,66.5004611 C59.3141327,66.6981457 59.0336125,66.8879492 58.743064,67.0644179 C58.7050704,67.087072 58.6658829,67.1082579 58.627949,67.1308221 C58.3182097,67.3151119 58.0018746,67.4882244 57.6767349,67.6476126 C57.666259,67.6530964 57.6564099,67.65864 57.6457849,67.6635844 C57.3036033,67.8306438 56.9519606,67.9805928 56.5938115,68.1179262 C56.5728598,68.1261967 56.5519081,68.1350067 56.530837,68.1427978 C56.1821192,68.2744676 55.8260295,68.390675 55.4645079,68.4931581 C55.4336474,68.5019381 55.4027869,68.5112575 55.3718667,68.519558 C55.0185825,68.6169469 54.659926,68.6993529 54.2955989,68.7679747 C54.2554265,68.7756459 54.2157317,68.7824182 54.1760368,68.78961 C53.8172013,68.8532574 53.4545455,68.9046787 53.0870249,68.9390495 C53.0466734,68.9428851 53.0065309,68.9451326 52.966269,68.9484588 C52.59263,68.9801027 52.2156482,69 51.8336226,69 C51.4518058,69 51.0747943,68.9800128 50.7011851,68.9484588 C50.6608635,68.9450427 50.6200942,68.9428851 50.5792652,68.9390495 C50.2123415,68.9046787 49.8503125,68.8532574 49.4925813,68.78961 C49.4511554,68.7823583 49.4104159,68.7752264 49.3690795,68.7673753 C49.0089099,68.6998567 48.6516891,68.6173596 48.2983326,68.5200972 C48.2647262,68.5107479 48.2317168,68.5007393 48.1981702,68.49133 C47.8399316,68.389686 47.486528,68.2750667 47.1410634,68.1444158 C47.1156945,68.1344371 47.0902958,68.124009 47.0642703,68.1140004 C46.7116427,67.9783751 46.364447,67.8306437 46.0265931,67.666401 C46.0089841,67.657621 45.9917929,67.6482118 45.974363,67.639222 C45.6601171,67.4849879 45.3537504,67.3172393 45.0538603,67.1396019 C45.0087633,67.1129623 44.9624129,67.0882105 44.9177039,67.0610016 C44.6345274,66.8883385 44.3601852,66.7024006 44.0905587,66.5099002 C44.0194064,66.4589583 43.9478661,66.4096346 43.8778778,66.3576738 C43.6258901,66.1700279 43.3829158,65.9719538 43.1454332,65.7672273 C43.0989932,65.7278822 43.0495089,65.6935414 43.0037255,65.6532074 L43,65.6499183 Z" id="路径备份-15" fill="#4291F7" fill-rule="nonzero"></path>
                <ellipse id="椭圆形备份-8" stroke="#4291F7" stroke-width="2" cx="51.5" cy="56" rx="12.5" ry="13"></ellipse>
            </g>
        </g>
    </g>
</svg>