<?xml version="1.0" encoding="UTF-8"?>
<svg width="88px" height="88px" viewBox="0 0 88 88" version="1.1" xmlns="http://www.w3.org/2000/svg" xmlns:xlink="http://www.w3.org/1999/xlink">
    <!-- Generator: Sketch 55 (78076) - https://sketchapp.com -->
    <title>编组 19</title>
    <desc>Created with Sketch.</desc>
    <g id="编组-19" stroke="none" stroke-width="1" fill="none" fill-rule="evenodd">
        <g>
            <rect id="矩形" x="0" y="0" width="88" height="88"></rect>
            <g id="编组-7" transform="translate(13.000000, 12.000000)">
                <path d="M20,45.4317068 L21.2058647,44.0239639 L21.2065919,44.0210261 C22.397827,42.8868475 24.2386384,42.2031272 26.4770626,41.5947 C27.3851976,41.2380857 27.8228326,41.0014179 28.1505311,40.678485 C28.5003327,40.3340777 28.6938392,40.0081645 28.760811,39.6535506 C28.8066317,39.4090851 28.7946281,38.6973263 28.7585345,37.5539559 C28.1291315,36.8506888 27.580815,35.801953 27.0547259,34.2924559 C26.5138599,34.0121044 26.0318944,33.3301893 25.8867749,32.5776045 C25.7322595,31.7719869 25.8203411,31.0926846 26.107931,30.6874467 C25.438585,26.8095163 25.8710874,23.9301059 27.3978221,22.1251109 C28.588166,20.7152699 30.4109345,20.0012248 32.8149673,20.0012248 L33.0296249,20 C35.0308746,20 35.491482,20.4134031 35.9236947,20.9962746 C36.0080096,21.1092399 36.0749401,21.1993018 36.1769294,21.2816477 C37.2837448,21.2822601 38.2024346,21.719873 38.8341555,22.546026 C40.034806,24.1152106 40.1795943,27.1160372 39.2371042,30.6285757 C39.5707631,31.0317315 39.6629839,31.7565547 39.4688566,32.6206758 C39.2866087,33.4213535 38.7117601,34.1403386 38.1338485,34.3579815 C37.7073479,35.7416531 37.2721137,36.7911647 36.5849692,37.5794721 L36.5849692,39.5283784 C36.6610059,40.086591 36.8765327,40.2928435 37.2676848,40.6675437 L37.5273352,40.9228689 C37.7717949,41.1149956 37.9879012,41.218326 38.9567579,41.6398535 C41.0989465,42.2235006 42.9119465,42.899496 44.0920253,44.0239639 L45,45.0282212 L44.5322922,45.4349663 C44.4741344,45.4856766 44.4105049,45.5285414 44.3515595,45.5781893 C44.0139294,45.8649622 43.6673456,46.1419281 43.3089893,46.4037748 C43.221193,46.4678472 43.1307438,46.5290183 43.0410822,46.5915379 C42.6585176,46.8611077 42.2689062,47.1199307 41.8653667,47.3605698 C41.8125978,47.3914618 41.7581707,47.4203516 41.7054847,47.4511211 C41.2752913,47.7024253 40.8359369,47.9384879 40.384354,48.1558354 C40.3698042,48.1633132 40.3561249,48.1708728 40.3413679,48.1776151 C39.8661157,48.4054234 39.3777231,48.6098993 38.8802938,48.797172 C38.8511942,48.8084501 38.8220946,48.8204636 38.7928292,48.8310879 C38.3084989,49.0106376 37.8139299,49.1691023 37.3118165,49.308852 C37.2689547,49.3208247 37.2260929,49.3335329 37.1831481,49.3448519 C36.6924756,49.4776549 36.1943417,49.5900267 35.6883318,49.6836018 C35.6325368,49.6940626 35.5774051,49.7032975 35.5222733,49.7131045 C35.0238907,49.7998964 34.5202021,49.8700165 34.0097568,49.9168857 C33.9537131,49.9221161 33.8979596,49.9251808 33.8420402,49.9297165 C33.3230972,49.9728673 32.7995115,50 32.2689203,50 C31.7386192,50 31.214992,49.9727447 30.6960904,49.9297165 C30.6400882,49.9250582 30.5834642,49.9221161 30.5267572,49.9168857 C30.017141,49.8700165 29.5143229,49.7998964 29.017474,49.7131045 C28.959938,49.7032158 28.9033554,49.6934905 28.8459438,49.6827846 C28.3457082,49.5907136 27.8495682,49.4782176 27.3587952,49.3455871 C27.3121198,49.332838 27.2662734,49.31919 27.2196808,49.3063591 C26.7221272,49.1677536 26.2312889,49.0114546 25.751477,48.8332942 C25.7162424,48.819687 25.6809664,48.8054669 25.6448199,48.7918188 C25.1550593,48.6068752 24.6728431,48.4054232 24.2036015,48.1814559 C24.1791446,48.1694832 24.155268,48.1566524 24.1310598,48.1443936 C23.694607,47.9340745 23.2690978,47.7053263 22.8525837,47.4630935 C22.7899491,47.4267668 22.7255734,47.3930144 22.6634777,47.3559112 C22.270177,47.1204616 21.8891462,46.8669099 21.5146648,46.6044094 C21.4158422,46.5349431 21.3164807,46.4676835 21.2192748,46.396828 C20.8692918,46.1409471 20.5318276,45.8708461 20.2019905,45.5916736 C20.1374905,45.5380212 20.0687624,45.4911928 20.0051743,45.4361919 L20,45.4317068 Z" id="路径" fill="#4291F7" fill-rule="nonzero"></path>
                <path d="M19,19 L7.46153846,8" id="路径-12" stroke="#DBEAFF" stroke-width="4"></path>
                <path d="M51,55 L43.1782604,46.400201" id="路径-12备份-5" stroke="#DBEAFF" stroke-width="4" transform="translate(47.000000, 50.500000) rotate(-180.000000) translate(-47.000000, -50.500000) "></path>
                <path d="M20.2166722,52.7793801 L11.0500055,45.2372506" id="路径-12备份" stroke="#DBEAFF" stroke-width="4" transform="translate(16.000000, 49.000000) rotate(-90.000000) translate(-16.000000, -49.000000) "></path>
                <path d="M53,19.0555556 L45.0391595,12.1222222" id="路径-12备份-6" stroke="#DBEAFF" stroke-width="4" transform="translate(49.000000, 15.500000) rotate(-270.000000) translate(-49.000000, -15.500000) "></path>
                <ellipse id="椭圆形" stroke="#4291F7" stroke-width="2" cx="32" cy="31.5" rx="18" ry="18.5"></ellipse>
                <circle id="椭圆形备份" fill="#9EC8FF" cx="7" cy="7" r="7"></circle>
                <circle id="椭圆形备份-3" fill="#9EC8FF" transform="translate(56.000000, 58.000000) rotate(-180.000000) translate(-56.000000, -58.000000) " cx="56" cy="58" r="7"></circle>
                <circle id="椭圆形备份-2" fill="#9EC8FF" transform="translate(7.000000, 58.000000) rotate(-90.000000) translate(-7.000000, -58.000000) " cx="7" cy="58" r="7"></circle>
                <circle id="椭圆形备份-4" fill="#9EC8FF" transform="translate(56.000000, 7.000000) rotate(-270.000000) translate(-56.000000, -7.000000) " cx="56" cy="7" r="7"></circle>
            </g>
        </g>
    </g>
</svg>