<?xml version="1.0" encoding="UTF-8"?>
<svg width="387px" height="336px" viewBox="0 0 387 336" version="1.1" xmlns="http://www.w3.org/2000/svg" xmlns:xlink="http://www.w3.org/1999/xlink">
    <!-- Generator: Sketch 55 (78076) - https://sketchapp.com -->
    <title>编组 3</title>
    <desc>Created with Sketch.</desc>
    <defs>
        <path d="M0,40 L0,40 C3.33571193e-06,62.0913924 17.9086076,80 40,80 C62.0913924,79.9999967 80,62.0913924 80,40 L80,40 C80,17.9086076 62.0913924,0 40,0 C17.9086076,5.54021324e-15 4.59837699e-13,17.9086076 0,40 L0,40 Z" id="path-1"></path>
        <circle id="path-3" cx="40" cy="40" r="40"></circle>
    </defs>
    <g id="页面1" stroke="none" stroke-width="1" fill="none" fill-rule="evenodd">
        <g id="lcm" transform="translate(-903.000000, -2232.000000)">
            <g id="编组-16" transform="translate(150.000000, 2234.000000)">
                <g id="编组-3" transform="translate(755.000000, 0.000000)">
                    <rect id="矩形备份-37" stroke="#CBD3DA" stroke-width="2" fill="#FFFFFF" x="224" y="15" width="160" height="50" rx="4"></rect>
                    <rect id="矩形备份-39" stroke="#CBD3DA" stroke-width="2" fill="#FFFFFF" x="224" y="259" width="160" height="30" rx="4"></rect>
                    <rect id="矩形备份-38" stroke="#CBD3DA" stroke-width="2" fill="#FFFFFF" x="224" y="139" width="160" height="50" rx="4"></rect>
                    <text id="经理升为总监" font-family="PingFangSC-Regular, PingFang SC" font-size="12" font-weight="normal" fill="#4291F7">
                        <tspan x="4" y="214">经理升为总监</tspan>
                    </text>
                    <text id="相应权限管理变动，可以-访问保密向更高的" font-family="PingFangSC-Regular, PingFang SC" font-size="12" font-weight="normal" fill="#5B626E">
                        <tspan x="238" y="160">相应权限管理变动，可以</tspan>
                        <tspan x="238" y="177">访问保密向更高的数据库</tspan>
                    </text>
                    <text id="部门预设权限开通OA，-邮箱，钉钉，CR" font-family="PingFangSC-Regular, PingFang SC" font-size="12" font-weight="normal" fill="#5B626E">
                        <tspan x="241" y="36">部门预设权限开通OA，</tspan>
                        <tspan x="241" y="53">邮箱，钉钉，CRM</tspan>
                    </text>
                    <text id="所有权限一键撤销" font-family="PingFangSC-Regular, PingFang SC" font-size="12" font-weight="normal" fill="#5B626E">
                        <tspan x="256" y="278">所有权限一键撤销</tspan>
                    </text>
                    <text id="刚入职销售" font-family="PingFangSC-Regular, PingFang SC" font-size="12" font-weight="normal" fill="#4291F7">
                        <tspan x="10" y="97">刚入职销售</tspan>
                    </text>
                    <text id="员工离职" font-family="PingFangSC-Regular, PingFang SC" font-size="12" font-weight="normal" fill="#4291F7">
                        <tspan x="16" y="332">员工离职</tspan>
                    </text>
                    <polygon id="路径" fill="#4291F7" fill-rule="nonzero" transform="translate(160.308783, 40.500000) rotate(-360.000000) translate(-160.308783, -40.500000) " points="105.000026 39.6666361 209.855519 39.6666361 209.855519 38 215.617566 40.5 209.855519 43 209.855519 41.3333181 105 41.3333181"></polygon>
                    <polygon id="路径备份-6" fill="#4291F7" fill-rule="nonzero" transform="translate(160.308783, 164.500000) rotate(-360.000000) translate(-160.308783, -164.500000) " points="105.000026 163.666636 209.855519 163.666636 209.855519 162 215.617566 164.5 209.855519 167 209.855519 165.333318 105 165.333318"></polygon>
                    <polygon id="路径备份-7" fill="#4291F7" fill-rule="nonzero" transform="translate(160.308783, 274.500000) rotate(-360.000000) translate(-160.308783, -274.500000) " points="105.000026 273.666636 209.855519 273.666636 209.855519 272 215.617566 274.5 209.855519 277 209.855519 275.333318 105 275.333318"></polygon>
                    <g id="编组-7备份-2" transform="translate(0.000000, 117.000000)">
                        <mask id="mask-2" fill="white">
                            <use xlink:href="#path-1"></use>
                        </mask>
                        <path stroke="#4291F7" stroke-width="2" d="M-1,40 C-1,17.3563228 17.3563228,-1 40,-1 C62.6436772,-1 81,17.3563228 81,40 C81,62.643676 62.6436784,80.9999966 40,81 C17.356324,81 -0.999996581,62.6436784 -1,40.0000002 Z"></path>
                        <g id="编组-7" mask="url(#mask-2)" fill-rule="nonzero">
                            <g transform="translate(11.645570, 8.101266)">
                                <path d="M20.655759,47.0358286 C20.655759,47.0358286 25.4264299,46.5822785 29.1868031,46.5822785 C32.9471763,46.5822785 39.0491248,47.0358286 39.0491248,47.0358286 L39.7617936,50.0598787 C49.482462,51.9216988 57.2545219,59.4143548 57.2150915,59.811209 L46.124231,68.579475 L29.5133095,73.4177215 C29.5133095,73.4177215 10.8240808,69.4865732 7.44643825,67.1439806 C4.06885471,64.8013879 -5.82645043e-13,59.35765 -5.82645043e-13,59.35765 C7.65584226,54.691746 12.2793147,51.5792618 19.9521189,49.8534995 L20.655759,47.0358286 Z" id="路径" fill="#FFFFFF"></path>
                                <polygon id="路径" fill="#F0CFB9" points="21.7721572 41.0126582 22.0459408 52.6582278 38.4810127 52.6582278 38.4810127 41.0126582 21.7721519 41.0126582"></polygon>
                                <path d="M13.2081934,20.8120162 C13.2081934,20.8120162 9.62025316,20.4077775 9.62025316,25.4719916 C9.62025316,30.5362036 14.6082273,31.5917165 14.6082273,31.5917165 C14.6082273,31.5917165 16.7763186,46.5822785 29.1186598,46.5822785 C41.461001,46.5822785 43.4624604,31.6108402 43.4624604,31.6108402 C43.4624605,31.6108402 48.5161764,28.6531623 48.6046012,25.3597401 C48.6930243,22.0663179 46.8032648,21.4487289 45.5120614,21.2612084 L46.1741005,17.7802656 L29.0710237,9.62025316 L12.6685331,17.0313014 L13.2081934,20.8120162 Z" id="路径" fill="#F0CFB9"></path>
                                <path d="M12.4917319,23.6122587 C12.4917319,23.6122587 11.0897939,9.95973463 13.9808732,5.59530942 C14.5312309,4.7638461 15.9139233,4.9921352 16.6364038,4.40127188 C19.7086744,1.89009763 21.5250776,0 26.8282167,0 C32.0702136,0 39.956377,2.8457753 42.5813761,4.92387894 C48.1948053,10.0715648 45.3603483,23.2764555 45.3603483,23.2764555 L42.9437587,30.8860759 L42.4296383,24.6943 C42.4296383,24.6943 41.9155179,16.9358366 30.8709784,16.9358366 C27.512204,16.9358366 21.2351815,14.5858103 19.458399,15.1084076 C15.3929983,16.31476 16.4552125,23.3424668 15.2684293,24.545457 L15.2684293,30.8860662 L12.4917319,23.6122587 Z" id="路径" fill="#000000"></path>
                                <polygon id="路径" fill="#EBC054" points="31.5111741 54.0629116 33.9240506 70.3361759 30.2586631 72.9113924 26.835443 70.3648492 29.1886754 53.9945538 27.8481013 52.6582278 32.9113924 52.6582278"></polygon>
                                <path d="M21.9036438,48.1012658 L20.7594937,52.1256993 L25.3635999,56.7088608 L27.8481013,51.3677774 L21.9036502,48.1012658 L21.9036438,48.1012658 Z M38.8573876,48.1012658 L40,52.1256993 L35.3965338,56.7088608 L32.9113924,51.3677774 L38.8573748,48.1012658 L38.8573876,48.1012658 Z" id="形状" fill="#FFFFFF"></path>
                            </g>
                        </g>
                    </g>
                    <g id="编组-6备份-2">
                        <mask id="mask-4" fill="white">
                            <use xlink:href="#path-3"></use>
                        </mask>
                        <circle stroke="#4291F7" stroke-width="2" cx="40" cy="40" r="41"></circle>
                        <g id="编组-6" mask="url(#mask-4)" fill-rule="nonzero">
                            <g transform="translate(4.050633, 5.569620)">
                                <path d="M46.4398454,29.3670886 L46.4398454,39.6728208 C46.4398454,39.6728208 46.0745449,46.3837126 50.6328602,47.4040822 C50.6328602,47.4040822 50.7758039,58.2278481 35.9493671,58.2278481 L35.9493671,29.3670886 L46.4398454,29.3670886 Z M25.4588887,29.3670886 L25.4588887,39.6728208 C25.4588887,39.6728208 25.8241893,46.3837126 21.2658739,47.4040822 C21.2658739,47.4040822 21.1229303,58.2278481 35.9493671,58.2278481 L35.9493671,29.3670886 L25.4588887,29.3670886 L25.4588887,29.3670886 Z" id="形状" fill="#F0CFB9"></path>
                                <path d="M47.182468,25.1996976 C47.182468,25.1996976 49.8114896,20.5025899 51.1675989,23.0206271 C52.5320278,25.5305936 51.0178445,31.8821808 46.0759494,33.9240506 L47.182468,25.1996976 L47.182468,25.1996976 Z M25.8227848,33.9240506 C20.885273,31.8816227 19.3698815,25.5282995 20.7270728,23.0176469 C22.0925904,20.5069944 24.7153833,25.1973131 24.7153833,25.1973131 L25.8227848,33.9240506 Z" id="形状" fill="#F0CFB9"></path>
                                <path d="M35.6962025,11.4484087 C38.9145052,11.4484087 48.0411565,12.4821492 48.0411565,12.4821492 C48.0411565,12.4821492 49.1139241,22.4249973 49.1139241,26.9860815 C49.1139241,35.5637608 42.5147782,42.5316456 35.6962025,42.5316456 C28.8776269,42.5316456 22.278481,35.5716519 22.278481,26.9860815 C22.278481,21.5964266 23.3512486,8.60759494 23.3512486,8.60759494 C23.3512486,8.60759494 33.1605701,11.4484087 35.6962025,11.4484087" id="路径" fill="#F0CFB9"></path>
                                <path d="M22.4677663,23.9885136 C22.4677663,23.9885136 16.4936822,17.249218 22.2497929,6.1254161 C25.148031,0.527836514 31.3643077,0.0441929519 34.2706189,0.00455003701 C44.6122428,-0.14609304 51.0949313,3.42969789 52.0233363,12.8488545 C52.8871565,21.6971531 49.1331713,24.9558007 48.640713,24.8051576 C48.640713,24.8051576 46.5982221,19.1045064 46.5578567,15.3067152 C46.5578567,15.3067152 34.5208845,20.3889369 26.7142098,10.8270658 C23.194344,11.8419244 22.4354739,21.6099387 22.4677663,23.9885136" id="路径" fill="#45474C"></path>
                                <path d="M71.7542948,55.0518579 C64.0428345,48.6332381 49.3902577,47.0966109 49.3902577,47.0966109 C49.3902577,47.0966109 45.5786618,56.5484688 36.6635398,56.5484688 C30.5088156,56.6285014 24.9799955,52.8269498 22.8856239,47.0886076 C14.9494801,47.5688036 7.39048373,50.4659861 1.16353978,55.3319722 C0.778367993,55.6360964 0.377147378,55.924214 0,56.2363414 L0,71.8987342 C15.7182753,75.6118143 27.6170095,77.4683544 35.6962025,77.4683544 C43.7753955,77.4683544 55.8429061,75.6118143 71.8987342,71.8987342 L71.8987342,55.1639036 C71.8505877,55.1238873 71.7944168,55.0918742 71.7542948,55.0518579 Z" id="路径" fill="#0FA180"></path>
                            </g>
                        </g>
                    </g>
                    <g id="编组-5备份-2" transform="translate(0.000000, 234.000000)" fill-rule="nonzero">
                        <path d="M-1,40 C-1,17.3570121 17.3570121,-1 40,-1 C62.6429879,-1 81,17.3570121 81,40 C81,62.6429879 62.6429879,81 40,81 C17.3570121,81 -1,62.6429879 -1,40 Z" id="路径" stroke="#4291F7" stroke-width="2" fill="#F0F0F0"></path>
                        <path d="M71.1118633,65.6023848 L73.2497402,62.6886903 C68.0409071,59.7765132 57.1997791,56.1826045 52.3458103,54.164557 C43.7581215,64.5369596 29.8921331,57.3032206 30.1572224,54.164557 C21.6112622,56.6216069 12.1897869,59.5155365 6.58227848,62.0273526 C13.7418826,73.4291965 26.3113133,81 40.6326353,81 C54.5788215,79.8220998 61.3203868,75.9126183 71.1118633,65.6023848 Z" id="路径" fill="#A1A1A1"></path>
                        <path d="M29.873441,54.5268513 C31.6684451,58.7460445 45.0567787,63.6825098 52.1518987,54.6813177 C48.8271078,51.346796 50.2200397,48.8731716 50.7770012,43.5316456 C45.7632837,51.3284096 36.2164378,51.7906942 31.3098468,43.7358002 C31.6684241,46.0895179 33.8909683,49.767541 29.8734177,54.5268442 L29.873441,54.5268513 Z" id="路径" fill="#C6C6C6"></path>
                        <path d="M53.8865914,31.2322231 C53.8333392,34.8315036 53.3061423,37.9310366 52.4487823,40.5063291 C57.2361515,38.8348188 58.3661639,25.6785379 53.8865914,31.2322231 Z M28.6450541,31.2322231 C28.6983064,34.8315036 29.2255033,37.9310366 30.0828632,40.5063291 C25.2954941,38.8348188 24.1654816,25.6785379 28.6450541,31.2322231 Z" id="形状" fill="#C6C6C6"></path>
                        <path d="M51.4744579,22.4918613 C40.1924879,25.0974915 35.5402093,19.7938624 33.2354945,18.1763548 C29.5482023,21.2105298 29.0522727,23.8172297 27.8671851,25.0974915 C27.6632303,24.8343506 29.184302,-0.351985841 28.1527224,28.572019 C27.1222127,57.4959844 54.9320404,56.3414141 54.6818664,30.9091409 C54.4328268,5.47578996 53.9368941,22.4907758 51.4744021,22.4907758 L51.4744579,22.4918613 Z" id="路径" fill="#C6C6C6"></path>
                        <path d="M31.862912,20.0387293 C33.742519,21.3229196 38.5364042,27.887864 46.1110245,28.4987297 C45.5290152,26.5189838 45.2374841,24.7319111 45.2374841,23.1343556 C47.5814217,26.1368012 49.3401727,27.6369578 50.5137294,27.6369578 C50.0790773,27.0059789 49.7281773,25.8107193 49.4567814,24.0522358 C52.1388982,25.2993694 53.9220301,27.5776702 54.8104164,30.8860759 C55.1740395,29.7956289 55.237647,30.1725193 55.7952701,27.1467843 C56.0443995,25.7906053 56.1822164,23.6234668 55.7952701,22.6939399 C56.491773,23.075068 56.7949697,23.435022 57.721519,25.0526969 C57.3578959,19.6999617 53.8244912,9.8615436 45.2374452,8.50434875 C41.0965936,7.85854872 37.674503,8.11475094 34.8959343,8.98287644 C34.8959343,8.50434875 35.215032,8.26296766 36.1564234,7.59493671 C34.5874391,7.59493671 31.862912,8.98182189 31.4950487,10.5211521 C29.8656326,10.8281722 29.1733722,11.2124763 27.7040388,12.8269798 C28.1143077,12.754989 28.4461269,12.720052 28.7281192,12.788867 C26.405379,15.1211594 23.7974684,22.6939934 23.7974684,25.529114 C24.4197627,24.7139209 24.8819806,24.308445 25.5901429,24.0511805 C25.2668041,25.1035163 25.190475,25.6201545 25.2222788,26.8111796 C25.2668041,28.5019081 25.8859181,29.5637736 26.4244636,30.8850129 C26.4244636,29.2249906 26.4244636,27.6358948 27.1294478,25.5291062 C27.1294478,26.5719123 27.4951913,29.0799507 28.7281161,29.7945658 C28.7281161,29.7066943 28.7281161,23.1332925 31.8629089,20.0376972 L31.862912,20.0387293 Z" id="路径" fill="#6B6B6B"></path>
                    </g>
                </g>
            </g>
        </g>
    </g>
</svg>