<?xml version="1.0" encoding="UTF-8"?>
<svg width="493px" height="179px" viewBox="0 0 493 179" version="1.1" xmlns="http://www.w3.org/2000/svg" xmlns:xlink="http://www.w3.org/1999/xlink">
    <!-- Generator: Sketch 55 (78076) - https://sketchapp.com -->
    <title>编组 3</title>
    <desc>Created with Sketch.</desc>
    <g id="页面1" stroke="none" stroke-width="1" fill="none" fill-rule="evenodd">
        <g id="MFA" transform="translate(-150.000000, -1304.000000)">
            <g id="编组-7" transform="translate(150.000000, 1301.000000)">
                <g id="编组-3">
                    <path d="M12.7451768,86.4270893 C18.9929757,76.9560338 27.2656448,68.9410565 36.9459314,63 L50,85.6319188 C43.5750105,89.69095 38.1147971,95.1409703 34.0414842,101.559452 L31.4433267,106.162453 C28.0178305,113.038782 26.0909967,120.794158 26.0909967,129 L0,129 C0,115.556929 3.42553636,102.9147 9.45054937,91.9001615 L12.7451768,86.4270893 Z" id="路径" fill="#35B265"></path>
                    <path d="M182.745177,86.4270893 C188.992976,76.9560338 197.265645,68.9410565 206.945931,63 L220,85.6319188 C213.575011,89.69095 208.114797,95.1409703 204.041484,101.559452 L201.443327,106.162453 C198.017831,113.038782 196.090997,120.794158 196.090997,129 L170,129 C170,115.556929 173.425536,102.9147 179.450549,91.9001615 L182.745177,86.4270893 Z" id="路径备份" fill="#F0F0F0"></path>
                    <path d="M352.745177,86.4270893 C358.992976,76.9560338 367.265645,68.9410565 376.945931,63 L390,85.6319188 C383.575011,89.69095 378.114797,95.1409703 374.041484,101.559452 L371.443327,106.162453 C368.017831,113.038782 366.090997,120.794158 366.090997,129 L340,129 C340,115.556929 343.425536,102.9147 349.450549,91.9001615 L352.745177,86.4270893 Z" id="路径备份-5" fill="#F0F0F0"></path>
                    <path d="M74.0352693,52 L78.5643995,52 C91.0063013,52.3142163 102.711672,55.6238236 113,61.2415847 L100.057703,83.8798703 C93.5867646,80.469981 86.2970374,78.4275751 78.5644134,78.1322603 L74.6603953,78.1322597 C66.8373744,78.4310269 59.4676784,80.5179651 52.9405211,84 L40,61.3648213 C50.1702339,55.7670492 61.7356217,52.4289336 74.0348347,52.01834 L74.0352693,52 Z" id="路径" fill="#F0F0F0"></path>
                    <path d="M244.035269,52 L248.5644,52 C261.006301,52.3142163 272.711672,55.6238236 283,61.2415847 L270.057703,83.8798703 C263.586765,80.469981 256.297037,78.4275751 248.564413,78.1322603 L244.660395,78.1322597 C236.837374,78.4310269 229.467678,80.5179651 222.940521,84 L210,61.3648213 C220.170234,55.7670492 231.735622,52.4289336 244.034835,52.01834 L244.035269,52 Z" id="路径备份-2" fill="#FFAA4E"></path>
                    <path d="M414.035269,52 L418.5644,52 C431.006301,52.3142163 442.711672,55.6238236 453,61.2415847 L440.057703,83.8798703 C433.586765,80.469981 426.297037,78.4275751 418.564413,78.1322603 L414.660395,78.1322597 C406.837374,78.4310269 399.467678,80.5179651 392.940521,84 L380,61.3648213 C390.170234,55.7670492 401.735622,52.4289336 414.034835,52.01834 L414.035269,52 Z" id="路径备份-6" fill="#F0F0F0"></path>
                    <path d="M143.708857,91.8452423 C149.631078,102.867943 153,115.531196 153,129 L127.542135,129 C127.542135,120.279127 125.409978,112.068079 121.650228,104.883407 L119.706411,101.489741 C115.695167,95.0664181 110.320424,89.6216348 104,85.583137 L116.735766,63 C126.912675,69.3403913 135.507404,78.0783502 141.771572,88.4477155 L143.708857,91.8452423 Z" id="路径" fill="#F0F0F0"></path>
                    <path d="M313.708857,91.8452423 C319.631078,102.867943 323,115.531196 323,129 L297.542135,129 C297.542135,120.279127 295.409978,112.068079 291.650228,104.883407 L289.706411,101.489741 C285.695167,95.0664181 280.320424,89.6216348 274,85.583137 L286.735766,63 C296.912675,69.3403913 305.507404,78.0783502 311.771572,88.4477155 L313.708857,91.8452423 Z" id="路径备份-3" fill="#F0F0F0"></path>
                    <path d="M483.708857,91.8452423 C489.631078,102.867943 493,115.531196 493,129 L467.542135,129 C467.542135,120.279127 465.409978,112.068079 461.650228,104.883407 L459.706411,101.489741 C455.695167,95.0664181 450.320424,89.6216348 444,85.583137 L456.735766,63 C466.912675,69.3403913 475.507404,78.0783502 481.771572,88.4477155 L483.708857,91.8452423 Z" id="路径备份-7" fill="#F24545"></path>
                    <path d="M70.8927377,125.77896 L49,98 L73.5042267,123.512328 C75.8640109,122.447472 78.7374778,122.996713 80.5236267,125.048274 C82.7043217,127.553008 82.4385,131.348572 79.9298974,133.525904 C77.4212948,135.703235 73.619868,135.437824 71.439173,132.93309 C69.6530242,130.88153 69.5081967,127.963976 70.8927377,125.77896 L70.8927377,125.77896 Z" id="路径" fill="#2292FF"></path>
                    <path d="M250.506563,121.858386 L228.613825,94.0794255 L253.118051,119.591754 C255.477836,118.526897 258.351303,119.076139 260.137451,121.127699 C262.318146,123.632433 262.052325,127.427997 259.543722,129.605329 C257.03512,131.782661 253.233693,131.517249 251.052998,129.012515 C249.266849,126.960955 249.122022,124.043401 250.506563,121.858386 L250.506563,121.858386 Z" id="路径备份-4" fill="#2292FF" transform="translate(245.113825, 112.579425) rotate(38.000000) translate(-245.113825, -112.579425) "></path>
                    <path d="M435.209946,130.228995 L413.317208,102.450035 L437.821435,127.962363 C440.181219,126.897506 443.054686,127.446748 444.840835,129.498308 C447.02153,132.003042 446.755709,135.798606 444.247106,137.975938 C441.738503,140.15327 437.937077,139.887859 435.756382,137.383125 C433.970233,135.331564 433.825405,132.41401 435.209946,130.228995 L435.209946,130.228995 Z" id="路径备份-8" fill="#2292FF" transform="translate(429.817208, 120.950035) rotate(100.000000) translate(-429.817208, -120.950035) "></path>
                    <text id="安全" transform="translate(21.000000, 98.000000) rotate(-60.000000) translate(-21.000000, -98.000000) " font-family="PingFangSC-Medium, PingFang SC" font-size="10" font-weight="400" fill="#FFFFFF">
                        <tspan x="11" y="103">安全</tspan>
                    </text>
                    <text id="告警" transform="translate(245.000000, 65.000000) rotate(-360.000000) translate(-245.000000, -65.000000) " font-family="PingFangSC-Medium, PingFang SC" font-size="10" font-weight="400" fill="#FFFFFF">
                        <tspan x="235" y="70">告警</tspan>
                    </text>
                    <text id="高危" transform="translate(473.000000, 99.000000) rotate(-300.000000) translate(-473.000000, -99.000000) " font-family="PingFangSC-Medium, PingFang SC" font-size="10" font-weight="400" fill="#FFFFFF">
                        <tspan x="463" y="104">高危</tspan>
                    </text>
                    <text id="密码登录" font-family="PingFangSC-Regular, PingFang SC" font-size="12" font-weight="normal" fill="#5B626E">
                        <tspan x="50" y="180">密码登录</tspan>
                    </text>
                    <text id="推送验证" font-family="PingFangSC-Regular, PingFang SC" font-size="12" font-weight="normal" fill="#5B626E">
                        <tspan x="226" y="180">推送验证</tspan>
                    </text>
                    <text id="根据账号安全等级分配登录策略" font-family="PingFangSC-Medium, PingFang SC" font-size="14" font-weight="400" fill="#979CA5">
                        <tspan x="144" y="15">根据账号安全等级分配登录策略</tspan>
                    </text>
                    <text id="MFA" font-family="PingFangSC-Regular, PingFang SC" font-size="12" font-weight="normal" fill="#5B626E">
                        <tspan x="403.304" y="180">MFA</tspan>
                    </text>
                </g>
            </g>
        </g>
    </g>
</svg>