<?xml version="1.0" encoding="UTF-8"?>
<svg width="827px" height="210px" viewBox="0 0 827 210" version="1.1" xmlns="http://www.w3.org/2000/svg" xmlns:xlink="http://www.w3.org/1999/xlink">
    <!-- Generator: Sketch 55 (78076) - https://sketchapp.com -->
    <title>编组 15</title>
    <desc>Created with Sketch.</desc>
    <g id="页面1" stroke="none" stroke-width="1" fill="none" fill-rule="evenodd">
        <g id="目录集成" transform="translate(-150.000000, -2439.000000)">
            <g id="编组-15" transform="translate(150.000000, 2436.000000)">
                <g id="编组-7" transform="translate(185.000000, 55.000000)">
                    <rect id="矩形备份-26" stroke="#CBD3DA" stroke-width="2" fill="#FFFFFF" x="1" y="1" width="88" height="98" rx="4"></rect>
                    <path d="M52,46.3929562 L47.1428571,46.3929562 L47.1428571,62 L39.8571429,62 L39.8571429,57.4264463 L35,57.4264463 L35,50.0334901 L39.8571429,50.0334901 L39.8571429,39 L52,39 L52,46.3929562 Z M77,46.6158195 L66.4391983,46.6158195 C64.920875,36.3678353 56.945516,28.2714206 46.8551931,26.7293734 L46.8551931,16 C62.7402018,17.6595025 75.3660283,30.4826076 77,46.6158195 Z M20.0046133,50.1724048 C20.0046133,63.2686827 30.4576517,73.8859396 43.3533245,73.8859396 C55.0574683,73.8859396 64.7491547,65.1381812 66.4391983,53.7298799 L73.4981314,53.7298799 C71.760777,69.0782762 58.9308136,81 43.3533245,81 C26.5895632,81 13,67.1980999 13,50.1724048 C13,34.3515175 24.7383126,21.3210858 39.8505797,19.5565853 L39.8505797,26.7258142 C28.6177908,28.4422648 20.0046133,38.2853838 20.0046133,50.1724048 Z" id="形状结合备份" fill="#4291F7" fill-rule="nonzero"></path>
                </g>
                <g id="编组-8" transform="translate(550.000000, 55.000000)">
                    <rect id="矩形备份-32" stroke="#CBD3DA" stroke-width="2" fill="#FFFFFF" x="1" y="1" width="88" height="98" rx="4"></rect>
                    <path d="M52,46.3929562 L47.1428571,46.3929562 L47.1428571,62 L39.8571429,62 L39.8571429,57.4264463 L35,57.4264463 L35,50.0334901 L39.8571429,50.0334901 L39.8571429,39 L52,39 L52,46.3929562 Z M77,46.6158195 L66.4391983,46.6158195 C64.920875,36.3678353 56.945516,28.2714206 46.8551931,26.7293734 L46.8551931,16 C62.7402018,17.6595025 75.3660283,30.4826076 77,46.6158195 Z M20.0046133,50.1724048 C20.0046133,63.2686827 30.4576517,73.8859396 43.3533245,73.8859396 C55.0574683,73.8859396 64.7491547,65.1381812 66.4391983,53.7298799 L73.4981314,53.7298799 C71.760777,69.0782762 58.9308136,81 43.3533245,81 C26.5895632,81 13,67.1980999 13,50.1724048 C13,34.3515175 24.7383126,21.3210858 39.8505797,19.5565853 L39.8505797,26.7258142 C28.6177908,28.4422648 20.0046133,38.2853838 20.0046133,50.1724048 Z" id="形状结合备份-2" fill="#4291F7" fill-rule="nonzero"></path>
                </g>
                <text id="玉符统一目录备份" font-family="PingFangSC-Regular, PingFang SC" font-size="12" font-weight="normal" fill="#5B626E">
                    <tspan x="194" y="13">玉符统一目录</tspan>
                </text>
                <text id="玉符统一目录备份-2" font-family="PingFangSC-Regular, PingFang SC" font-size="12" font-weight="normal" fill="#5B626E">
                    <tspan x="557" y="13">玉符统一目录</tspan>
                </text>
                <text id="OA字段" font-family="PingFangSC-Regular, PingFang SC" font-size="12" font-weight="normal" fill="#5B626E">
                    <tspan x="26" y="13">OA字段</tspan>
                </text>
                <text id="钉钉字段" font-family="PingFangSC-Regular, PingFang SC" font-size="12" font-weight="normal" fill="#5B626E">
                    <tspan x="386" y="13">钉钉字段</tspan>
                </text>
                <text id="玉符特有脚本编辑器" font-family="PingFangSC-Regular, PingFang SC" font-size="12" font-weight="normal" fill="#5B626E">
                    <tspan x="356" y="211">玉符特有脚本编辑器</tspan>
                </text>
                <text id="CoreHR" font-family="PingFangSC-Regular, PingFang SC" font-size="12" font-weight="normal" fill="#5B626E">
                    <tspan x="758" y="13">CoreHR</tspan>
                </text>
                <g id="编组-10" transform="translate(363.000000, 36.000000)">
                    <rect id="矩形备份-10" stroke="#CBD3DA" stroke-width="2" fill="#FFFFFF" x="1" y="1" width="92" height="28" rx="4"></rect>
                    <rect id="矩形备份-11" stroke="#CBD3DA" stroke-width="2" fill="#FFFFFF" x="1" y="37" width="92" height="28" rx="4"></rect>
                    <rect id="矩形备份-27" stroke="#CBD3DA" stroke-width="2" fill="#FFFFFF" x="1" y="73" width="92" height="28" rx="4"></rect>
                    <rect id="矩形备份-12" stroke="#CBD3DA" stroke-width="2" fill="#FFFFFF" x="1" y="109" width="92" height="28" rx="4"></rect>
                    <text id="Name" font-family="PingFangSC-Semibold, PingFang SC" font-size="16" font-weight="500" fill="#4291F7">
                        <tspan x="25" y="21">Name</tspan>
                    </text>
                    <text id="E-mail" font-family="PingFangSC-Semibold, PingFang SC" font-size="16" font-weight="500" fill="#4291F7">
                        <tspan x="21" y="57">E-mail</tspan>
                    </text>
                    <text id="phoneNum" font-family="PingFangSC-Semibold, PingFang SC" font-size="16" font-weight="500" fill="#4291F7">
                        <tspan x="6" y="93">phoneNum</tspan>
                    </text>
                    <text id="deptld" font-family="PingFangSC-Semibold, PingFang SC" font-size="16" font-weight="500" fill="#4291F7">
                        <tspan x="23" y="130">deptld</tspan>
                    </text>
                </g>
                <g id="编组-9" transform="translate(733.000000, 36.000000)">
                    <rect id="矩形备份-33" stroke="#CBD3DA" stroke-width="2" fill="#FFFFFF" x="1" y="1" width="92" height="28" rx="4"></rect>
                    <rect id="矩形备份-34" stroke="#CBD3DA" stroke-width="2" fill="#FFFFFF" x="1" y="37" width="92" height="28" rx="4"></rect>
                    <rect id="矩形备份-35" stroke="#CBD3DA" stroke-width="2" fill="#FFFFFF" x="1" y="73" width="92" height="28" rx="4"></rect>
                    <rect id="矩形备份-36" stroke="#CBD3DA" stroke-width="2" fill="#FFFFFF" x="1" y="109" width="92" height="28" rx="4"></rect>
                    <text id="Name备份" font-family="PingFangSC-Semibold, PingFang SC" font-size="16" font-weight="500" fill="#4291F7">
                        <tspan x="25" y="21">Name</tspan>
                    </text>
                    <text id="E-mail备份" font-family="PingFangSC-Semibold, PingFang SC" font-size="16" font-weight="500" fill="#4291F7">
                        <tspan x="21" y="57">E-mail</tspan>
                    </text>
                    <text id="phoneNum备份" font-family="PingFangSC-Semibold, PingFang SC" font-size="16" font-weight="500" fill="#4291F7">
                        <tspan x="6" y="93">phoneNum</tspan>
                    </text>
                    <text id="deptld备份" font-family="PingFangSC-Semibold, PingFang SC" font-size="16" font-weight="500" fill="#4291F7">
                        <tspan x="23" y="130">deptld</tspan>
                    </text>
                </g>
                <g id="编组-5" transform="translate(0.000000, 36.000000)">
                    <rect id="矩形备份-28" stroke="#CBD3DA" stroke-width="2" fill="#FFFFFF" x="1" y="1" width="92" height="28" rx="4"></rect>
                    <rect id="矩形备份-29" stroke="#CBD3DA" stroke-width="2" fill="#FFFFFF" x="1" y="37" width="92" height="28" rx="4"></rect>
                    <rect id="矩形备份-30" stroke="#CBD3DA" stroke-width="2" fill="#FFFFFF" x="1" y="73" width="92" height="28" rx="4"></rect>
                    <rect id="矩形备份-31" stroke="#CBD3DA" stroke-width="2" fill="#FFFFFF" x="1" y="109" width="92" height="28" rx="4"></rect>
                    <text id="姓名" font-family="PingFangSC-Semibold, PingFang SC" font-size="16" font-weight="500" fill="#4291F7">
                        <tspan x="31" y="21">姓名</tspan>
                    </text>
                    <text id="邮箱" font-family="PingFangSC-Semibold, PingFang SC" font-size="16" font-weight="500" fill="#4291F7">
                        <tspan x="31" y="57">邮箱</tspan>
                    </text>
                    <text id="部门" font-family="PingFangSC-Semibold, PingFang SC" font-size="16" font-weight="500" fill="#4291F7">
                        <tspan x="31" y="93">部门</tspan>
                    </text>
                    <text id="职级" font-family="PingFangSC-Semibold, PingFang SC" font-size="16" font-weight="500" fill="#4291F7">
                        <tspan x="31" y="130">职级</tspan>
                    </text>
                </g>
                <polygon id="路径备份-6" fill="#4291F7" fill-rule="nonzero" transform="translate(139.500000, 105.500000) rotate(-360.000000) translate(-139.500000, -105.500000) " points="94.0000265 104.666636 179.213636 104.666636 179.213636 103 185 105.5 179.213636 108 179.213636 106.333318 94 106.333318"></polygon>
                <polygon id="路径备份-8" fill="#4291F7" fill-rule="nonzero" transform="translate(502.500000, 105.500000) rotate(-360.000000) translate(-502.500000, -105.500000) " points="457.000027 104.666636 542.213636 104.666636 542.213636 103 548 105.5 542.213636 108 542.213636 106.333318 457 106.333318"></polygon>
                <polygon id="路径备份-7" fill="#4291F7" fill-rule="nonzero" transform="translate(321.500000, 105.500000) rotate(-360.000000) translate(-321.500000, -105.500000) " points="276.000027 104.666636 361.213636 104.666636 361.213636 103 367 105.5 361.213636 108 361.213636 106.333318 276 106.333318"></polygon>
                <polygon id="路径备份-9" fill="#4291F7" fill-rule="nonzero" transform="translate(688.500000, 105.500000) rotate(-360.000000) translate(-688.500000, -105.500000) " points="643.000027 104.666636 728.213636 104.666636 728.213636 103 734 105.5 728.213636 108 728.213636 106.333318 643 106.333318"></polygon>
            </g>
        </g>
    </g>
</svg>