<?xml version="1.0" encoding="UTF-8"?>
<svg width="416px" height="334px" viewBox="0 0 416 334" version="1.1" xmlns="http://www.w3.org/2000/svg" xmlns:xlink="http://www.w3.org/1999/xlink">
    <!-- Generator: Sketch 55 (78076) - https://sketchapp.com -->
    <title>编组 17</title>
    <desc>Created with Sketch.</desc>
    <g id="页面1" stroke="none" stroke-width="1" fill="none" fill-rule="evenodd">
        <g id="单点登录" transform="translate(-149.000000, -2272.000000)">
            <g id="编组-27" transform="translate(150.000000, 2272.000000)">
                <g id="编组-17">
                    <polyline id="路径-12" stroke="#4291F7" stroke-width="2" points="272 158 379.403765 158 405 178"></polyline>
                    <polyline id="路径-13" stroke="#4291F7" stroke-width="2" points="327 158 346.384246 129 390 129"></polyline>
                    <path d="M201.5,235 L201.5,321" id="路径-14" stroke="#4291F7" stroke-width="2"></path>
                    <path d="M183.5,231 L183.5,310" id="路径-14备份" stroke="#4291F7" stroke-width="2"></path>
                    <path d="M220.5,231 L220.5,310" id="路径-14备份-2" stroke="#4291F7" stroke-width="2"></path>
                    <polyline id="路径-15" stroke="#4291F7" stroke-width="2" points="125 158 30.0759184 158 12 178"></polyline>
                    <polyline id="路径-16" stroke="#4291F7" stroke-width="2" points="69 156 58.7454197 132 13 132"></polyline>
                    <polyline id="路径-28" stroke="#4291F7" stroke-width="2" points="126 176 89.6163833 205 41 205"></polyline>
                    <polyline id="路径-29" stroke="#4291F7" stroke-width="2" points="165 226 165 271.590417 151 290"></polyline>
                    <polyline id="路径-30" stroke="#4291F7" stroke-width="2" points="237 226 237 281.531541 255 290"></polyline>
                    <polyline id="路径-31" stroke="#4291F7" stroke-width="2" points="275 174 304.932136 199 359 199"></polyline>
                    <polyline id="路径-32" stroke="#4291F7" stroke-width="2" points="266 205 287.557146 222.354188 287.557146 258.120614 328.394594 271.798988 349.065371 300 371 300"></polyline>
                    <polyline id="路径-33" stroke="#4291F7" stroke-width="2" points="271.756568 209 261 234.088008 261 260.897354 304 278"></polyline>
                    <polyline id="路径-34" stroke="#4291F7" stroke-width="2" points="270 133 295.555962 103 315 103"></polyline>
                    <path d="M260,114 L306,59" id="路径-35" stroke="#4291F7" stroke-width="2"></path>
                    <path d="M247,103 L293,44" id="路径-36" stroke="#4291F7" stroke-width="2"></path>
                    <path d="M234,92 L260,59" id="路径-37" stroke="#4291F7" stroke-width="2"></path>
                    <polyline id="路径-38" stroke="#4291F7" stroke-width="2" points="157 100 156.367173 49.2416271 101 36"></polyline>
                    <path d="M129,134 L69,109" id="路径-39" stroke="#4291F7" stroke-width="2"></path>
                    <polyline id="路径-40" stroke="#4291F7" stroke-width="2" points="140 118 114.748323 108.082109 107.830154 86.7544765 88.0715368 75.1193848 80.4010264 47.7595983 62 40"></polyline>
                    <polyline id="路径-41" stroke="#4291F7" stroke-width="2" points="148 108 148 82.3011743 134 75"></polyline>
                    <polyline id="路径-42" stroke="#4291F7" stroke-width="2" points="133 199 117.810839 211.426877 117.810839 236.359675 93.8203042 245.713439 93.8203042 265.749407 69 280"></polyline>
                    <polyline id="路径-43" stroke="#4291F7" stroke-width="2" points="147 217 147 245.825469 139 258"></polyline>
                    <polyline id="路径-44" stroke="#4291F7" stroke-width="2" points="211.291238 85 228 64.6882474 205 15"></polyline>
                    <polyline id="路径-45" stroke="#4291F7" stroke-width="2" points="184 87 174 66.2192346 184 51.5832737 174 31.2491634 184 9"></polyline>
                    <circle id="椭圆形" stroke="#4291F7" stroke-width="2" cx="6.5" cy="132.5" r="6.5"></circle>
                    <circle id="椭圆形备份-35" stroke="#4291F7" stroke-width="2" fill="#4291F7" cx="8.5" cy="180.5" r="6.5"></circle>
                    <circle id="椭圆形备份-36" stroke="#4291F7" stroke-width="2" fill="#FFFFFF" cx="35.5" cy="205.5" r="6.5"></circle>
                    <circle id="椭圆形备份-37" fill="#4291F7" cx="63.5" cy="283.5" r="6.5"></circle>
                    <circle id="椭圆形备份-38" stroke="#4291F7" stroke-width="2" fill="#FFFFFF" cx="136.5" cy="262.5" r="6.5"></circle>
                    <circle id="椭圆形备份-39" stroke="#4291F7" stroke-width="2" fill="#FFFFFF" cx="150.5" cy="293.5" r="6.5"></circle>
                    <circle id="椭圆形备份-40" fill="#4291F7" cx="183.5" cy="315.5" r="6.5"></circle>
                    <circle id="椭圆形备份-58" fill="#4291F7" cx="220.5" cy="315.5" r="6.5"></circle>
                    <circle id="椭圆形备份-41" fill="#4291F7" cx="202.5" cy="327.5" r="6.5"></circle>
                    <circle id="椭圆形备份-42" stroke="#4291F7" stroke-width="2" fill="#FFFFFF" cx="260.5" cy="291.5" r="6.5"></circle>
                    <circle id="椭圆形备份-43" stroke="#4291F7" stroke-width="2" fill="#FFFFFF" cx="306.5" cy="281.5" r="6.5"></circle>
                    <circle id="椭圆形备份-44" fill="#4291F7" cx="376.5" cy="298.5" r="6.5"></circle>
                    <circle id="椭圆形备份-45" stroke="#4291F7" stroke-width="2" fill="#FFFFFF" cx="365.5" cy="197.5" r="6.5"></circle>
                    <circle id="椭圆形备份-46" stroke="#4291F7" stroke-width="2" fill="#FFFFFF" cx="407.5" cy="178.5" r="6.5"></circle>
                    <circle id="椭圆形备份-47" stroke="#4291F7" stroke-width="2" fill="#FFFFFF" cx="396.5" cy="128.5" r="6.5"></circle>
                    <circle id="椭圆形备份-48" fill="#4291F7" cx="321.5" cy="102.5" r="6.5"></circle>
                    <circle id="椭圆形备份-49" fill="#4291F7" cx="306.5" cy="57.5" r="6.5"></circle>
                    <circle id="椭圆形备份-50" fill="#4291F7" cx="296.5" cy="40.5" r="6.5"></circle>
                    <circle id="椭圆形备份-51" stroke="#4291F7" stroke-width="2" fill="#FFFFFF" cx="260.5" cy="57.5" r="6.5"></circle>
                    <circle id="椭圆形备份-52" fill="#4291F7" cx="205.5" cy="15.5" r="6.5"></circle>
                    <circle id="椭圆形备份-53" fill="#4291F7" cx="185.5" cy="6.5" r="6.5"></circle>
                    <circle id="椭圆形备份-54" stroke="#4291F7" stroke-width="2" fill="#FFFFFF" cx="130.5" cy="75.5" r="6.5"></circle>
                    <circle id="椭圆形备份-55" fill="#4291F7" cx="68.5" cy="106.5" r="6.5"></circle>
                    <circle id="椭圆形备份-56" fill="#4291F7" cx="61.5" cy="40.5" r="6.5"></circle>
                    <circle id="椭圆形备份-57" stroke="#4291F7" stroke-width="2" fill="#FFFFFF" cx="101.5" cy="36.5" r="6.5"></circle>
                    <circle id="椭圆形备份-22" stroke="#4291F7" stroke-width="2" fill="#F0F0F0" cx="200.5" cy="158.5" r="81.5"></circle>
                    <path d="M215,148 L186,148 L186,140.235281 C186,132.470562 192.473198,126 200.5,126 C208.52677,126 215,132.470594 215,140.235281 L215,148 L215,148 Z M203.714291,175.199999 L203.714291,183.223529 C203.714291,183.741176 203.446433,184 202.910719,184 L197.821431,184 C197.285717,184 197.017859,183.741176 197.017859,183.223529 L197.017859,175.199999 C194.607147,173.905884 193,171.576467 193,168.988236 C193,165.105882 196.482141,162 200.5,162 C204.517859,162 208,165.105882 208,168.988236 C207.732142,171.835296 206.124998,174.164705 203.714286,175.199999 L203.714291,175.199999 Z M231.223084,147.718414 L224.395745,147.718414 L224.395745,139.330084 C224.395745,126.485432 213.629581,116 200.500032,116 C187.370562,116 176.604318,126.485432 176.604318,139.330084 L176.604318,147.456296 L169.77698,147.456296 C166.625902,147.456296 164,150.077658 164,153.223288 L164,191.233008 C164,194.378638 166.625902,197 169.77698,197 L231.22302,197 C234.374098,197 237,194.378638 237,191.233008 L237,153.485406 C237,150.077642 234.374098,147.718414 231.22302,147.718414 L231.223084,147.718414 Z" id="形状" fill="#4291F7" fill-rule="nonzero"></path>
                </g>
            </g>
        </g>
    </g>
</svg>