<?xml version="1.0" encoding="UTF-8"?>
<svg width="414px" height="108px" viewBox="0 0 414 108" version="1.1" xmlns="http://www.w3.org/2000/svg" xmlns:xlink="http://www.w3.org/1999/xlink">
    <!-- Generator: Sketch 55 (78076) - https://sketchapp.com -->
    <title>编组 4</title>
    <desc>Created with Sketch.</desc>
    <g id="页面1" stroke="none" stroke-width="1" fill="none" fill-rule="evenodd">
        <g id="sa" transform="translate(-877.000000, -2345.000000)" fill="#F0F0F0" fill-rule="nonzero" stroke="#4291F7" stroke-width="2">
            <g id="编组-19" transform="translate(150.000000, 2322.000000)">
                <g id="编组-4" transform="translate(728.000000, 24.000000)">
                    <path d="M208.939716,0 L207.060288,0 L207.060286,4.11892812e-14 C182.174183,1.09667563e-06 162,20.3386465 162,45.427625 C162,45.427625 162,45.427625 162,45.427625 C162,79.5 206.692286,106 208,106 C209.307714,106 254,79.48675 254,45.427625 L254,45.427625 C254,20.3386465 233.825817,7.64943664e-14 208.939714,7.64943664e-14 L208.939716,0 Z M208.000002,59.625 L208.000001,59.625 C198.926748,59.6249996 191.57143,52.2097203 191.57143,43.0625 C191.57143,33.9152797 198.926748,26.5 208.000001,26.5 L208.000001,26.5 C217.073254,26.4999996 224.428572,33.9152797 224.428572,43.0625 C224.428572,52.2097203 217.073254,59.625 208.000001,59.625 L208.000002,59.625 Z" id="形状"></path>
                    <path d="M51.5,3 C23.0547003,3 0,26.0624952 0,54.5 C0,82.9375048 23.054912,106 51.5,106 C79.945088,106 103,82.9375048 103,54.5 C102.98296,26.0624952 79.9279424,3 51.5,3 Z M72.9576079,63.999578 L48.0247968,63.999578 C47.8324364,63.999578 47.7271886,63.8457681 47.5343963,63.8287836 C47.4647709,63.8287836 47.4293645,63.91455 47.3420359,63.91455 C46.7292242,63.8975655 46.2736904,63.4352918 45.7312597,63.1788365 C45.2758339,62.9391546 44.7506747,62.8879901 44.4007124,62.5627528 C44.1208074,62.2892075 44.1031042,61.8612193 43.8928246,61.518681 C43.5247274,60.9025974 43,60.3552957 43,59.6193711 C43,59.5336047 43.1050318,59.4824402 43.1050318,59.3968847 C43.1050318,59.2942393 43,59.2260903 43,59.1233394 L43,25.7739097 C43,23.1387807 44.9606304,21 47.3596311,21 C49.7760112,21 51.7192623,23.1388862 51.7192623,25.7739097 L51.7192623,55.2562542 L72.9575,55.2562542 C75.7413296,55.2562542 78,57.2069395 78,59.6196876 C77.9826206,62.0324357 75.7413296,64 72.9575,64 L72.9576079,63.999578 Z" id="形状"></path>
                    <path d="M375.614948,36 C378.869442,36 381.225166,36.5772871 382.682119,37.7507886 C384.224219,38.9242902 385,40.8170347 385,43.4384858 C385,46.1072555 384.252602,48.0473186 382.748344,49.2492114 C381.206244,50.4227129 378.831599,51 375.624409,51 L365,51 L365,36 L375.614948,36 Z M364,4 C390.5125,4 412,25.4875 412,52 C412,78.5125 390.5125,100 364,100 C337.4875,100 316,78.5125 316,52 C316,25.4875 337.4875,4 364,4 Z M349.028125,74.10625 L349.028125,29.89375 L341.78125,29.89375 L341.78125,74.10625 L349.028125,74.10625 Z M375.90625,57.1375 C386.678125,57.1375 392.059375,52.58125 392.06875,43.459375 C392.06875,34.4125 386.725,29.89375 376.028125,29.89375 L357.7,29.89375 L357.7,74.10625 L364.946875,74.10625 L364.946875,57.1375 L375.90625,57.1375 Z" id="形状"></path>
                </g>
            </g>
        </g>
    </g>
</svg>