<?xml version="1.0" encoding="UTF-8"?>
<svg width="274px" height="273px" viewBox="0 0 274 273" version="1.1" xmlns="http://www.w3.org/2000/svg" xmlns:xlink="http://www.w3.org/1999/xlink">
    <!-- Generator: Sketch 55 (78076) - https://sketchapp.com -->
    <title>编组 18</title>
    <desc>Created with Sketch.</desc>
    <g id="页面1" stroke="none" stroke-width="1" fill="none" fill-rule="evenodd">
        <g id="单点登录" transform="translate(-848.000000, -2705.000000)" fill-rule="nonzero">
            <g id="编组-28" transform="translate(150.000000, 2706.000000)">
                <g id="编组-18" transform="translate(699.000000, 0.000000)">
                    <path d="M157.019231,118.631579 L117.846154,118.631579 L117.846154,108.266237 C117.846154,97.9008943 126.590123,89.2631579 137.432692,89.2631579 C148.27522,89.2631579 157.019231,97.9009362 157.019231,108.266237 L157.019231,118.631579 L157.019231,118.631579 Z M140.896985,155.199999 L140.896985,165.910836 C140.896985,166.601857 140.530569,166.947368 139.79774,166.947368 L132.835855,166.947368 C132.103025,166.947368 131.73661,166.601857 131.73661,165.910836 L131.73661,155.199999 C128.438879,153.472448 126.240385,150.362843 126.240385,146.907741 C126.240385,141.725077 131.003775,137.578947 136.5,137.578947 C141.996225,137.578947 146.759615,141.725077 146.759615,146.907741 C146.3932,150.708362 144.194709,153.817956 140.896978,155.199999 L140.896985,155.199999 Z M177.323824,118.291219 L168.251881,118.291219 L168.251881,107.106779 C168.251881,89.980576 153.946156,76 136.500042,76 C119.054034,76 104.748204,89.980576 104.748204,107.106779 L104.748204,117.941728 L95.6762605,117.941728 C91.4892122,117.941728 88,121.436877 88,125.63105 L88,176.310678 C88,180.504851 91.4892122,184 95.6762605,184 L177.323739,184 C181.510788,184 185,180.504851 185,176.310678 L185,125.980541 C185,121.436856 181.510788,118.291219 177.323739,118.291219 L177.323824,118.291219 Z" id="形状" fill="#4291F7"></path>
                    <path d="M239.348051,135.504319 C239.348051,192.978775 192.796588,239.571524 135.375744,239.571524 C77.9549008,239.571524 31.4034378,192.978775 31.4034378,135.504319 C31.4034378,78.0276854 77.9549008,31.4371134 135.375744,31.4371134 C167.823336,31.4371134 196.769361,46.3416834 215.837006,69.6544619 L199.911395,83.9226204 L271,105.191305 L258.972834,31.0121375 L239.260162,48.6737161 C214.428461,18.9389016 177.123984,0 135.375962,0 C60.6093595,0 0,60.6659489 0,135.502359 C0,210.336592 60.6115349,271 135.375962,271 C207.383341,271 266.238546,214.721719 270.482528,143.712996 L239.278726,132.689606 C239.301931,133.627965 239.348341,134.561678 239.348341,135.504682 L239.348051,135.504319 Z" id="路径" stroke="#4291F7" stroke-width="2" fill="#F0F0F0"></path>
                </g>
            </g>
        </g>
    </g>
</svg>