<?xml version="1.0" encoding="UTF-8"?>
<svg width="503px" height="191px" viewBox="0 0 503 191" version="1.1" xmlns="http://www.w3.org/2000/svg" xmlns:xlink="http://www.w3.org/1999/xlink">
    <!-- Generator: Sketch 55 (78076) - https://sketchapp.com -->
    <title>编组 17</title>
    <desc>Created with Sketch.</desc>
    <defs>
        <circle id="path-1" cx="28" cy="28" r="28"></circle>
    </defs>
    <g id="页面1" stroke="none" stroke-width="1" fill="none" fill-rule="evenodd">
        <g id="lcm" transform="translate(-787.000000, -2672.000000)">
            <g id="编组-19" transform="translate(150.000000, 2670.000000)">
                <g id="编组-17" transform="translate(637.000000, 0.000000)">
                    <rect id="矩形备份-40" stroke="#CBD3DA" stroke-width="2" fill="#FFFFFF" x="96" y="10" width="84" height="43" rx="4"></rect>
                    <rect id="矩形备份-44" stroke="#CBD3DA" stroke-width="2" fill="#FFFFFF" x="312" y="149" width="84" height="43" rx="4"></rect>
                    <rect id="矩形备份-43" stroke="#CBD3DA" stroke-width="2" fill="#FFFFFF" x="418" y="10" width="84" height="43" rx="4"></rect>
                    <text id="OA中销售A-字段变化" font-family="PingFangSC-Regular, PingFang SC" font-size="12" font-weight="normal" fill="#5B626E">
                        <tspan x="0.014" y="75">OA中销售A</tspan>
                        <tspan x="6.5" y="92">字段变化</tspan>
                    </text>
                    <text id="多源-mapping" font-family="PingFangSC-Regular, PingFang SC" font-size="12" font-weight="normal" fill="#5B626E">
                        <tspan x="126" y="28">多源</tspan>
                        <tspan x="114.048" y="45">mapping</tspan>
                    </text>
                    <text id="预设规则判定" font-family="PingFangSC-Regular, PingFang SC" font-size="12" font-weight="normal" fill="#5B626E">
                        <tspan x="211" y="77">预设规则判定</tspan>
                    </text>
                    <text id="是否是新员工" font-family="PingFangSC-Medium, PingFang SC" font-size="12" font-weight="400" fill="#4291F7">
                        <tspan x="211" y="96">是否是新员工</tspan>
                    </text>
                    <text id="是" font-family="PingFangSC-Medium, PingFang SC" font-size="12" font-weight="400" fill="#4291F7">
                        <tspan x="286" y="13">是</tspan>
                    </text>
                    <text id="否" font-family="PingFangSC-Medium, PingFang SC" font-size="12" font-weight="400" fill="#4291F7">
                        <tspan x="277" y="152">否</tspan>
                    </text>
                    <text id="创建账号" font-family="PingFangSC-Regular, PingFang SC" font-size="12" font-weight="normal" fill="#5B626E">
                        <tspan x="323" y="77">创建账号</tspan>
                    </text>
                    <text id="更新身份信息" font-family="PingFangSC-Regular, PingFang SC" font-size="12" font-weight="normal" fill="#5B626E">
                        <tspan x="318" y="175">更新身份信息</tspan>
                    </text>
                    <text id="推送其他系统-创建账号" font-family="PingFangSC-Regular, PingFang SC" font-size="12" font-weight="normal" fill="#5B626E">
                        <tspan x="423" y="28">推送其他系统</tspan>
                        <tspan x="435" y="45">创建账号</tspan>
                    </text>
                    <polygon id="路径备份-7" fill="#4291F7" fill-rule="nonzero" transform="translate(77.500000, 29.500000) rotate(-360.000000) translate(-77.500000, -29.500000) " points="60.0000227 28.6666361 90.0348666 28.6666361 90.0348666 27 95 29.5 90.0348666 32 90.0348666 30.3333181 60 30.3333181"></polygon>
                    <polygon id="路径备份-8" fill="#4291F7" fill-rule="nonzero" transform="translate(197.500000, 31.500000) rotate(-360.000000) translate(-197.500000, -31.500000) " points="180.000023 30.6666361 210.034867 30.6666361 210.034867 29 215 31.5 210.034867 34 210.034867 32.3333181 180 32.3333181"></polygon>
                    <polygon id="路径备份-9" fill="#4291F7" fill-rule="nonzero" transform="translate(294.500000, 31.500000) rotate(-360.000000) translate(-294.500000, -31.500000) " points="277.000023 30.6666361 307.034867 30.6666361 307.034867 29 312 31.5 307.034867 34 307.034867 32.3333181 277 32.3333181"></polygon>
                    <polygon id="路径" fill="#4291F7" fill-rule="nonzero" points="249.009488 168.666636 302.210619 168.666636 302.210619 167 308 169.5 302.210619 172 302.210619 170.333318 247 170.333318 247.000027 168.666636 249.009488 168.666636 249.009488 106 247 106 247 168.666636"></polygon>
                    <polygon id="路径备份-10" fill="#4291F7" fill-rule="nonzero" transform="translate(399.500000, 31.500000) rotate(-360.000000) translate(-399.500000, -31.500000) " points="382.000023 30.6666361 412.034867 30.6666361 412.034867 29 417 31.5 412.034867 34 412.034867 32.3333181 382 32.3333181"></polygon>
                    <path d="M4,30 C4,44.9111819 16.0888181,57 31,57 C45.9111819,57 58,44.9111819 58,30 C58,15.0888181 45.9111819,3 31,3 C16.0888181,3 4,15.0888181 4,30 Z M40.1515228,31.6133333 C39.8111888,29.4436566 39.5229026,27.5709444 39.2795306,25.9397422 C39.1725447,26.6606225 39.0553384,27.438732 38.9275378,28.2782269 C38.8842194,28.5625961 38.8842194,28.5625961 38.8408541,28.8466548 C38.8393448,28.8565369 38.6001528,30.417466 38.4173825,31.6133333 L40.1515228,31.6133333 Z M39.1666667,18.8514402 L39.2755141,18.8396188 L39.3309333,18.8426833 L39.3309333,19.8336 L39.1666667,19.8336 L39.1666667,18.8514402 Z M37.5519551,37.2944 L36.2490218,45.9333333 L29.8094366,45.9333333 L35.3960616,14.0666667 L43.1929398,14.0666667 L48.9986482,45.9333333 L42.4351182,45.9333333 L40.9996515,37.2944 L37.5519551,37.2944 Z M18.9333333,22.7424 L18.9333333,37.2912 C18.9333333,39.380103 19.7412084,40.2 21.6125333,40.2 C23.6138131,40.2 24.316,39.4665633 24.316,37.1978667 L24.316,22.7237333 C24.316,20.6199636 23.5585957,19.8 21.5957333,19.8 C19.7039518,19.8 18.9333333,20.6137403 18.9333333,22.7424 Z M30.1333333,22.9421333 L30.1333333,36.9608 C30.1333333,42.8778598 27.1941434,45.9352 21.4613333,45.9352 C15.9010395,45.9352 13.2,42.8621772 13.2,37.0205333 L13.2,22.9253333 C13.2,17.2222952 16.3443221,14.0666667 21.7394667,14.0666667 C27.1418224,14.0666667 30.1333333,17.2454273 30.1333333,22.9421333 Z" id="形状" stroke="#4291F7" stroke-width="2" fill="#F0F0F0" fill-rule="nonzero"></path>
                    <path d="M253.125,29.6522847 L248.875,29.6522847 L248.875,43.3384615 L242.5,43.3384615 L242.5,39.3278068 L238.25,39.3278068 L238.25,32.8447529 L242.5,32.8447529 L242.5,23.1692308 L253.125,23.1692308 L253.125,29.6522847 Z M275,29.8477187 L265.759299,29.8477187 C264.430766,20.8610248 257.452327,13.7610919 248.623294,12.4088352 L248.623294,3 C262.522677,4.45525606 273.570275,15.7001328 275,29.8477187 Z M225.129037,32.9665704 C225.129037,44.4509986 234.275445,53.7615162 245.559159,53.7615162 C255.800285,53.7615162 264.28051,46.0904051 265.759299,36.0862024 L271.935865,36.0862024 C270.41568,49.5455653 259.189462,60 245.559159,60 C230.890868,60 219,47.8967953 219,32.9665704 C219,19.0928692 229.271024,7.66618297 242.494257,6.11885173 L242.494257,12.405714 C232.665567,13.9109091 225.129037,22.5425673 225.129037,32.9665704 Z" id="形状结合" fill="#4291F7" fill-rule="nonzero"></path>
                    <g id="编组-6" transform="translate(318.000000, 4.000000)">
                        <mask id="mask-2" fill="white">
                            <use xlink:href="#path-1"></use>
                        </mask>
                        <circle stroke="#4291F7" stroke-width="2" cx="28" cy="28" r="29"></circle>
                        <g mask="url(#mask-2)" fill-rule="nonzero">
                            <g transform="translate(2.835443, 3.898734)">
                                <path d="M32.5078918,20.556962 L32.5078918,27.7709745 C32.5078918,27.7709745 32.2521814,32.4685989 35.4430022,33.1828575 C35.4430022,33.1828575 35.5430627,40.7594937 25.164557,40.7594937 L25.164557,20.556962 L32.5078918,20.556962 Z M17.8212221,20.556962 L17.8212221,27.7709745 C17.8212221,27.7709745 18.0769325,32.4685989 14.8861118,33.1828575 C14.8861118,33.1828575 14.7860512,40.7594937 25.164557,40.7594937 L25.164557,20.556962 L17.8212221,20.556962 L17.8212221,20.556962 Z" id="形状" fill="#F0CFB9"></path>
                                <path d="M33.0277276,17.6397884 C33.0277276,17.6397884 34.8680427,14.351813 35.8173192,16.1144389 C36.7724195,17.8714155 35.7124911,22.3175265 32.2531646,23.7468354 L33.0277276,17.6397884 L33.0277276,17.6397884 Z M18.0759494,23.7468354 C14.6196911,22.3171359 13.558917,17.8698096 14.5089509,16.1123529 C15.4648133,14.3548961 17.3007683,17.6381192 17.3007683,17.6381192 L18.0759494,23.7468354 Z" id="形状" fill="#F0CFB9"></path>
                                <path d="M24.9873418,8.01388607 C27.2401536,8.01388607 33.6288095,8.73750445 33.6288095,8.73750445 C33.6288095,8.73750445 34.3797468,15.6974981 34.3797468,18.8902571 C34.3797468,24.8946325 29.7603447,29.7721519 24.9873418,29.7721519 C20.2143388,29.7721519 15.5949367,24.9001564 15.5949367,18.8902571 C15.5949367,15.1174986 16.345874,6.02531646 16.345874,6.02531646 C16.345874,6.02531646 23.2123991,8.01388607 24.9873418,8.01388607" id="路径" fill="#F0CFB9"></path>
                                <path d="M15.7274364,16.7919595 C15.7274364,16.7919595 11.5455775,12.0744526 15.574855,4.28779127 C17.6036217,0.36948556 21.9550154,0.0309350663 23.9894332,0.0031850259 C31.2285699,-0.102265128 35.7664519,2.40078852 36.4163354,8.99419813 C37.0210096,15.1880072 34.3932199,17.4690605 34.0484991,17.3636103 C34.0484991,17.3636103 32.6187555,13.3731545 32.5904997,10.7147006 C32.5904997,10.7147006 24.1646192,14.2722558 18.6999469,7.57894607 C16.2360408,8.2893471 15.7048317,15.1269571 15.7274364,16.7919595" id="路径" fill="#45474C"></path>
                                <path d="M50.2280063,38.5363005 C44.8299842,34.0432666 34.5731804,32.9676276 34.5731804,32.9676276 C34.5731804,32.9676276 31.9050633,39.5839281 25.6644778,39.5839281 C21.3561709,39.639951 17.4859968,36.9788648 16.0199367,32.9620253 C10.4646361,33.2981625 5.17333861,35.3261903 0.814477848,38.7323806 C0.544857595,38.9452675 0.264003165,39.1469498 0,39.365439 L0,50.3291139 C11.0027927,52.92827 19.3319067,54.2278481 24.9873418,54.2278481 C30.6427769,54.2278481 39.0900343,52.92827 50.3291139,50.3291139 L50.3291139,38.6147325 C50.2954114,38.5867211 50.2560918,38.564312 50.2280063,38.5363005 Z" id="路径" fill="#0FA180"></path>
                            </g>
                        </g>
                    </g>
                </g>
            </g>
        </g>
    </g>
</svg>