<?xml version="1.0" encoding="UTF-8"?>
<svg width="410px" height="148px" viewBox="0 0 410 148" version="1.1" xmlns="http://www.w3.org/2000/svg" xmlns:xlink="http://www.w3.org/1999/xlink">
    <!-- Generator: Sketch 55 (78076) - https://sketchapp.com -->
    <title>编组 8</title>
    <desc>Created with Sketch.</desc>
    <defs>
        <path d="M0,40 L0,40 C3.33571193e-06,62.0913924 17.9086076,80 40,80 C62.0913924,79.9999967 80,62.0913924 80,40 L80,40 C80,17.9086076 62.0913924,0 40,0 C17.9086076,5.54021324e-15 4.59837699e-13,17.9086076 0,40 L0,40 Z" id="path-1"></path>
    </defs>
    <g id="页面1" stroke="none" stroke-width="1" fill="none" fill-rule="evenodd">
        <g id="sa" transform="translate(-872.000000, -2579.000000)">
            <g id="编组-20" transform="translate(174.000000, 2576.000000)">
                <g id="编组-8" transform="translate(698.000000, 0.000000)">
                    <text id="重要应用访问异常时，-自动开启二次认证" font-family="PingFangSC-Regular, PingFang SC" font-size="12" font-weight="normal" fill="#5B626E">
                        <tspan x="0" y="132">重要应用访问异常时，</tspan>
                        <tspan x="0" y="149">自动开启二次认证</tspan>
                    </text>
                    <text id="仅异地出差时，-开启指纹认证" font-family="PingFangSC-Regular, PingFang SC" font-size="12" font-weight="normal" fill="#5B626E">
                        <tspan x="173" y="132">仅异地出差时，</tspan>
                        <tspan x="173" y="149">开启指纹认证</tspan>
                    </text>
                    <text id="访问行为十分稳定，-日常应用免密登录" font-family="PingFangSC-Regular, PingFang SC" font-size="12" font-weight="normal" fill="#5B626E">
                        <tspan x="310" y="132">访问行为十分稳定，</tspan>
                        <tspan x="310" y="149">日常应用免密登录</tspan>
                    </text>
                    <text id="员工B" font-family="PingFangSC-Regular, PingFang SC" font-size="12" font-weight="normal" fill="#4291F7">
                        <tspan x="198" y="13">员工B</tspan>
                    </text>
                    <text id="员工C" font-family="PingFangSC-Regular, PingFang SC" font-size="12" font-weight="normal" fill="#4291F7">
                        <tspan x="347" y="13">员工C</tspan>
                    </text>
                    <g id="编组-5备份" transform="translate(324.000000, 26.000000)" fill-rule="nonzero">
                        <path d="M-1,40 C-1,17.3570121 17.3570121,-1 40,-1 C62.6429879,-1 81,17.3570121 81,40 C81,62.6429879 62.6429879,81 40,81 C17.3570121,81 -1,62.6429879 -1,40 Z" id="路径" stroke="#4291F7" stroke-width="2" fill="#F0F0F0"></path>
                        <path d="M71.1118633,65.6023848 L73.2497402,62.6886903 C68.0409071,59.7765132 57.1997791,56.1826045 52.3458103,54.164557 C43.7581215,64.5369596 29.8921331,57.3032206 30.1572224,54.164557 C21.6112622,56.6216069 12.1897869,59.5155365 6.58227848,62.0273526 C13.7418826,73.4291965 26.3113133,81 40.6326353,81 C54.5788215,79.8220998 61.3203868,75.9126183 71.1118633,65.6023848 Z" id="路径" fill="#4291F7"></path>
                        <path d="M29.873441,54.5268513 C31.6684451,58.7460445 45.0567787,63.6825098 52.1518987,54.6813177 C48.8271078,51.346796 50.2200397,48.8731716 50.7770012,43.5316456 C45.7632837,51.3284096 36.2164378,51.7906942 31.3098468,43.7358002 C31.6684241,46.0895179 33.8909683,49.767541 29.8734177,54.5268442 L29.873441,54.5268513 Z" id="路径" fill="#F0CFB9"></path>
                        <path d="M53.8865914,31.2322231 C53.8333392,34.8315036 53.3061423,37.9310366 52.4487823,40.5063291 C57.2361515,38.8348188 58.3661639,25.6785379 53.8865914,31.2322231 Z M28.6450541,31.2322231 C28.6983064,34.8315036 29.2255033,37.9310366 30.0828632,40.5063291 C25.2954941,38.8348188 24.1654816,25.6785379 28.6450541,31.2322231 Z" id="形状" fill="#F0CFB9"></path>
                        <path d="M51.4744579,22.4918613 C40.1924879,25.0974915 35.5402093,19.7938624 33.2354945,18.1763548 C29.5482023,21.2105298 29.0522727,23.8172297 27.8671851,25.0974915 C27.6632303,24.8343506 29.184302,-0.351985841 28.1527224,28.572019 C27.1222127,57.4959844 54.9320404,56.3414141 54.6818664,30.9091409 C54.4328268,5.47578996 53.9368941,22.4907758 51.4744021,22.4907758 L51.4744579,22.4918613 Z" id="路径" fill="#F0CFB9"></path>
                        <path d="M31.862912,20.0387293 C33.742519,21.3229196 38.5364042,27.887864 46.1110245,28.4987297 C45.5290152,26.5189838 45.2374841,24.7319111 45.2374841,23.1343556 C47.5814217,26.1368012 49.3401727,27.6369578 50.5137294,27.6369578 C50.0790773,27.0059789 49.7281773,25.8107193 49.4567814,24.0522358 C52.1388982,25.2993694 53.9220301,27.5776702 54.8104164,30.8860759 C55.1740395,29.7956289 55.237647,30.1725193 55.7952701,27.1467843 C56.0443995,25.7906053 56.1822164,23.6234668 55.7952701,22.6939399 C56.491773,23.075068 56.7949697,23.435022 57.721519,25.0526969 C57.3578959,19.6999617 53.8244912,9.8615436 45.2374452,8.50434875 C41.0965936,7.85854872 37.674503,8.11475094 34.8959343,8.98287644 C34.8959343,8.50434875 35.215032,8.26296766 36.1564234,7.59493671 C34.5874391,7.59493671 31.862912,8.98182189 31.4950487,10.5211521 C29.8656326,10.8281722 29.1733722,11.2124763 27.7040388,12.8269798 C28.1143077,12.754989 28.4461269,12.720052 28.7281192,12.788867 C26.405379,15.1211594 23.7974684,22.6939934 23.7974684,25.529114 C24.4197627,24.7139209 24.8819806,24.308445 25.5901429,24.0511805 C25.2668041,25.1035163 25.190475,25.6201545 25.2222788,26.8111796 C25.2668041,28.5019081 25.8859181,29.5637736 26.4244636,30.8850129 C26.4244636,29.2249906 26.4244636,27.6358948 27.1294478,25.5291062 C27.1294478,26.5719123 27.4951913,29.0799507 28.7281161,29.7945658 C28.7281161,29.7066943 28.7281161,23.1332925 31.8629089,20.0376972 L31.862912,20.0387293 Z" id="路径" fill="#2D2D2D"></path>
                    </g>
                    <g id="编组-7备份" transform="translate(20.000000, 27.000000)">
                        <mask id="mask-2" fill="white">
                            <use xlink:href="#path-1"></use>
                        </mask>
                        <path stroke="#4291F7" stroke-width="2" d="M-1,40 C-1,17.3563228 17.3563228,-1 40,-1 C62.6436772,-1 81,17.3563228 81,40 C81,62.643676 62.6436784,80.9999966 40,81 C17.356324,81 -0.999996581,62.6436784 -1,40.0000002 Z"></path>
                        <g id="编组-7" mask="url(#mask-2)" fill-rule="nonzero">
                            <g transform="translate(11.645570, 8.101266)">
                                <path d="M20.655759,47.0358286 C20.655759,47.0358286 25.4264299,46.5822785 29.1868031,46.5822785 C32.9471763,46.5822785 39.0491248,47.0358286 39.0491248,47.0358286 L39.7617936,50.0598787 C49.482462,51.9216988 57.2545219,59.4143548 57.2150915,59.811209 L46.124231,68.579475 L29.5133095,73.4177215 C29.5133095,73.4177215 10.8240808,69.4865732 7.44643825,67.1439806 C4.06885471,64.8013879 -5.82645043e-13,59.35765 -5.82645043e-13,59.35765 C7.65584226,54.691746 12.2793147,51.5792618 19.9521189,49.8534995 L20.655759,47.0358286 Z" id="路径" fill="#FFFFFF"></path>
                                <polygon id="路径" fill="#F0CFB9" points="21.7721572 41.0126582 22.0459408 52.6582278 38.4810127 52.6582278 38.4810127 41.0126582 21.7721519 41.0126582"></polygon>
                                <path d="M13.2081934,20.8120162 C13.2081934,20.8120162 9.62025316,20.4077775 9.62025316,25.4719916 C9.62025316,30.5362036 14.6082273,31.5917165 14.6082273,31.5917165 C14.6082273,31.5917165 16.7763186,46.5822785 29.1186598,46.5822785 C41.461001,46.5822785 43.4624604,31.6108402 43.4624604,31.6108402 C43.4624605,31.6108402 48.5161764,28.6531623 48.6046012,25.3597401 C48.6930243,22.0663179 46.8032648,21.4487289 45.5120614,21.2612084 L46.1741005,17.7802656 L29.0710237,9.62025316 L12.6685331,17.0313014 L13.2081934,20.8120162 Z" id="路径" fill="#F0CFB9"></path>
                                <path d="M12.4917319,23.6122587 C12.4917319,23.6122587 11.0897939,9.95973463 13.9808732,5.59530942 C14.5312309,4.7638461 15.9139233,4.9921352 16.6364038,4.40127188 C19.7086744,1.89009763 21.5250776,0 26.8282167,0 C32.0702136,0 39.956377,2.8457753 42.5813761,4.92387894 C48.1948053,10.0715648 45.3603483,23.2764555 45.3603483,23.2764555 L42.9437587,30.8860759 L42.4296383,24.6943 C42.4296383,24.6943 41.9155179,16.9358366 30.8709784,16.9358366 C27.512204,16.9358366 21.2351815,14.5858103 19.458399,15.1084076 C15.3929983,16.31476 16.4552125,23.3424668 15.2684293,24.545457 L15.2684293,30.8860662 L12.4917319,23.6122587 Z" id="路径" fill="#000000"></path>
                                <polygon id="路径" fill="#EBC054" points="31.5111741 54.0629116 33.9240506 70.3361759 30.2586631 72.9113924 26.835443 70.3648492 29.1886754 53.9945538 27.8481013 52.6582278 32.9113924 52.6582278"></polygon>
                                <path d="M21.9036438,48.1012658 L20.7594937,52.1256993 L25.3635999,56.7088608 L27.8481013,51.3677774 L21.9036502,48.1012658 L21.9036438,48.1012658 Z M38.8573876,48.1012658 L40,52.1256993 L35.3965338,56.7088608 L32.9113924,51.3677774 L38.8573748,48.1012658 L38.8573876,48.1012658 Z" id="形状" fill="#FFFFFF"></path>
                            </g>
                        </g>
                    </g>
                    <g id="头像" transform="translate(175.000000, 27.000000)" fill-rule="nonzero">
                        <path d="M-1,40 C-1,17.3564653 17.3564653,-1 40,-1 C62.6435347,-1 81,17.3564653 81,40 C81,62.6435347 62.6435347,81 40,81 C17.3564653,81 -1,62.6435347 -1,40 Z" id="路径" stroke="#4291F7" stroke-width="2" fill="#F0F0F0"></path>
                        <path d="M40.0476408,80 C54.5842081,80 67.3028467,72.1839488 74.2857143,60.504424 L74.2832188,60.4485771 C72.269398,57.3663322 58.4346735,52.6984127 53.0064656,52.6984127 C42.2373902,71.6336376 27.7020706,55.9569832 27.9647157,52.8747382 C20.4434568,52.3545466 11.3793914,57.818127 6.34920635,61.3684817 C13.4350109,72.5654645 25.8741601,80 40.0476408,80 Z" id="路径" fill="#586ABA"></path>
                        <path d="M27.9365079,53.5568308 C29.6150374,57.8101461 42.9846095,69.8116295 53.0822793,52.5422558 C53.1623895,52.5422558 53.2500692,52.5465758 53.3333333,52.5484272 C51.4346585,50.7871153 49.9712281,47.8594124 50.5345227,42.5396825 C45.4636102,50.3045133 35.8087542,50.7648983 30.847599,42.742721 C31.2090411,45.0866112 31.0317894,48.7690739 27.9365079,53.5568308 L27.9365079,53.5568308 Z" id="路径" fill="#F0CFB9"></path>
                        <path d="M53.7783429,30.5853135 C53.7146007,34.2390334 53.0858427,37.3847735 52.0634921,40 C57.7718227,38.3035151 59.118454,24.9486055 53.7783429,30.5853135 Z" id="路径" fill="#F0CFB9"></path>
                        <path d="M32.5294785,17.7777778 C28.7982627,20.7599576 29.7309093,27.6516449 28.5314326,28.9107455 C28.3262261,28.6520146 28.137277,28.3807863 27.9656775,28.0986257 C26.9222712,56.530377 54.2194913,54.6045826 53.9665062,29.6051396 C51.5027332,25.8272082 51.9438839,25.7409598 50.9866939,22.0190584 C39.5702684,24.581328 34.8617244,19.3680219 32.5294785,17.7777778 Z" id="路径" fill="#F0CFB9"></path>
                        <path d="M32.772328,17.9646499 C35.0706389,19.5283992 39.7106718,24.6548472 50.960984,22.135267 C51.9240916,25.8713029 51.4422277,25.8713029 54.0468974,29.8246294 C55.9507868,30.4765012 61.467105,11.7740353 45.3131921,9.23278801 C26.4026705,6.30029386 23.973506,22.9171416 28.8324552,28.9121328 C30.014479,27.6740099 29.0954028,20.896525 32.772328,17.9646499 Z" id="路径" fill="#4E4E4E"></path>
                    </g>
                    <text id="员工A" font-family="PingFangSC-Regular, PingFang SC" font-size="12" font-weight="normal" fill="#4291F7">
                        <tspan x="44" y="13">员工A</tspan>
                    </text>
                </g>
            </g>
        </g>
    </g>
</svg>