<?xml version="1.0" encoding="UTF-8"?>
<svg width="402px" height="101px" viewBox="0 0 402 101" version="1.1" xmlns="http://www.w3.org/2000/svg" xmlns:xlink="http://www.w3.org/1999/xlink">
    <!-- Generator: Sketch 55 (78076) - https://sketchapp.com -->
    <title>编组 20</title>
    <desc>Created with Sketch.</desc>
    <g id="页面1" stroke="none" stroke-width="1" fill="none" fill-rule="evenodd">
        <g id="单点登录" transform="translate(-149.000000, -3084.000000)" fill-rule="nonzero" stroke="#4291F7">
            <g id="编组-29" transform="translate(150.000000, 3077.000000)">
                <g id="编组-20" transform="translate(0.000000, 8.000000)">
                    <path d="M37.1066499,0 L37.1066499,26.842953 L52.0025094,26.842953 L52.0025094,46.5765101 L37.1066499,46.5765101 L37.1066499,71.6255034 C37.1066499,74.637599 37.394811,76.6308676 37.9711418,77.6053691 C38.8578045,79.1114169 40.409441,79.8644295 42.6260979,79.8644295 C44.621089,79.8644295 47.4140347,79.2885964 51.0050188,78.1369128 L53,96.8073826 C46.3056963,98.2691348 40.0548178,99 34.2471769,99 C27.5085401,99 22.5433033,98.1362502 19.3513174,96.4087248 C16.1593316,94.6811994 13.7986275,92.056729 12.2691343,88.5352349 C10.739641,85.0137408 9.9749059,79.3107777 9.9749059,71.4261745 L9.9749059,46.5765101 L0,46.5765101 L0,26.842953 L9.9749059,26.842953 L9.9749059,13.8865772 L37.1066499,0 Z" id="路径" fill="#F0F0F0"></path>
                    <polygon id="路径" fill="#F0F0F0" points="148 0 175.777957 0 175.777957 50.0218281 196.077233 26.7312415 229.530973 26.7312415 204.090105 51.3451569 231 97 200.350764 97 185.994368 68.8130969 175.777957 78.7380628 175.777957 97 148 97"></polygon>
                    <path d="M313,68.7333333 L258.6,68.7333333 C259.088891,73.0889107 260.266657,76.3333227 262.133333,78.4666667 C264.755569,81.5333487 268.177757,83.0666667 272.4,83.0666667 C275.06668,83.0666667 277.599988,82.4000067 280,81.0666667 C281.466674,80.222218 283.044436,78.733344 284.733333,76.6 L311.466667,79.0666667 C307.377757,86.1778133 302.444473,91.2777623 296.666667,94.3666667 C290.88886,97.455571 282.600054,99 271.8,99 C262.422175,99 255.044471,97.677791 249.666667,95.0333333 C244.288862,92.3888757 239.833351,88.1889177 236.3,82.4333333 C232.766649,76.677749 231,69.91115 231,62.1333333 C231,51.0666113 234.544409,42.1111453 241.633333,35.2666667 C248.722258,28.422188 258.511049,25 271,25 C281.133384,25 289.133304,26.533318 295,29.6 C300.866696,32.666682 305.333318,37.111082 308.4,42.9333333 C311.466682,48.7555847 313,56.3332867 313,65.6666667 L313,68.7333333 Z" id="路径" fill="#F0F0F0"></path>
                    <path d="M286,56 C285.461344,50.6363368 284.036171,46.7954661 281.724439,44.4772727 C279.412707,42.1590793 276.37159,41 272.600998,41 C268.246861,41 264.768093,42.7499825 262.164589,46.25 C260.503732,48.4318291 259.44888,51.6817966 259,56 L286,56 Z" id="路径" fill="#FFFFFF"></path>
                    <path d="M325,26.5911602 L350.311665,26.5911602 L350.311665,38.0607735 C354.09619,33.3756672 357.925181,30.0276344 361.798753,28.0165746 C365.672326,26.0055148 370.39178,25 375.957257,25 C383.481783,25 389.36997,27.2209723 393.621995,31.6629834 C397.874019,36.1049946 400,42.9668044 400,52.2486188 L400,97 L372.684773,97 L372.684773,58.281768 C372.684773,53.8618564 371.861095,50.7348158 370.213713,48.9005525 C368.566332,47.0662892 366.251128,46.1491713 363.268032,46.1491713 C359.973269,46.1491713 357.30188,47.386728 355.253785,49.8618785 C353.205689,52.337029 352.181656,56.7789735 352.181656,63.1878453 L352.181656,97 L325,97 L325,26.5911602 Z" id="路径" fill="#F0F0F0"></path>
                    <polygon id="路径" fill="#4291F7" points="109 57.6786025 103.285591 57.6786025 103.285591 76 94.7152688 76 94.7152688 70.6311817 89 70.6311817 89 61.9525791 94.7152688 61.9525791 94.7152688 49 109 49"></polygon>
                    <path d="M141,57 L128.038524,57 C126.173942,44.6148967 116.385103,34.8303717 104,32.9666527 L104,20 C123.497435,22.0060865 138.994776,37.5025652 141,57 Z" id="路径" fill="#4291F7"></path>
                    <path d="M69.6833757,61.3714575 C69.6833757,77.3569213 82.6422073,90.3166243 98.6276711,90.3166243 C113.137728,90.3166243 125.152752,79.639314 127.248649,65.7131453 L136,65.7131453 C133.844843,84.4481124 117.940426,99 98.6276711,99 C77.846481,99 61,82.1526475 61,61.3714575 C61,42.059574 75.5510161,26.1542859 94.2859832,24 L94.2859832,32.7513508 C80.3598146,34.8463764 69.6833757,46.8614006 69.6833757,61.3714575 Z" id="路径" fill="#4291F7"></path>
                </g>
            </g>
        </g>
    </g>
</svg>