<?xml version="1.0" encoding="UTF-8"?>
<svg width="238px" height="128px" viewBox="0 0 238 128" version="1.1" xmlns="http://www.w3.org/2000/svg" xmlns:xlink="http://www.w3.org/1999/xlink">
    <!-- Generator: Sketch 55 (78076) - https://sketchapp.com -->
    <title>编组 9</title>
    <desc>Created with Sketch.</desc>
    <g id="页面1" stroke="none" stroke-width="1" fill="none" fill-rule="evenodd">
        <g id="sa" transform="translate(-1044.000000, -2832.000000)">
            <g id="编组-21" transform="translate(175.000000, 2829.000000)">
                <g id="编组-9" transform="translate(870.000000, 0.000000)">
                    <text id="敏感数据多，-访问需二次认证" font-family="PingFangSC-Regular, PingFang SC" font-size="12" font-weight="normal" fill="#5B626E">
                        <tspan x="0" y="112">敏感数据多，</tspan>
                        <tspan x="0" y="129">访问需二次认证</tspan>
                    </text>
                    <text id="不涉及业务数据，-无需二次认证" font-family="PingFangSC-Regular, PingFang SC" font-size="12" font-weight="normal" fill="#5B626E">
                        <tspan x="149" y="112">不涉及业务数据，</tspan>
                        <tspan x="149" y="129">无需二次认证</tspan>
                    </text>
                    <text id="应用A" font-family="PingFangSC-Regular, PingFang SC" font-size="12" font-weight="normal" fill="#4291F7">
                        <tspan x="26" y="13">应用A</tspan>
                    </text>
                    <text id="应用B" font-family="PingFangSC-Regular, PingFang SC" font-size="12" font-weight="normal" fill="#4291F7">
                        <tspan x="180" y="13">应用B</tspan>
                    </text>
                    <path d="M28,53 L38.8181818,53 C38.8909091,50.7681159 38.9454545,48.4347826 39,46 L28.6545632,46 L28,53 L28,53 Z M34.2147651,46 C35.2550336,47.6114286 36.1946309,49.1714286 37,50.68 L34.6677852,52 C33.7785235,50.1828571 32.8892617,48.6057143 32,47.2857143 L34.2147651,46 Z M48.3159145,44 C48.1995249,44.322764 48.0997625,44.6285405 48,44.9343169 C48.5486936,50.4043177 49.7458432,55.0928566 51.5581948,59 C53.4869359,54.8550305 54.6342043,49.8437109 55,44 L48.3159145,44 L48.3159145,44 Z M28,63 L38.6906259,63 C38.8109381,60.8095238 38.9140628,58.4761905 39,56 L28.6360027,56 L28,63 L28,63 Z M34.1359223,57 C35.2200647,58.640884 36.1747573,60.2154696 37,61.7569061 L34.7184466,63 C33.9255663,61.359116 33.0194175,59.7679558 32,58.2099448 L34.1359223,57 L34.1359223,57 Z M0,28 L0,70.8910081 C12.7950625,75.8955207 25.6405325,80.7489231 38.3178678,86.0389281 C41.7478145,87.4663898 44.522036,87.2144848 47.7165777,85.8709915 C59.7718642,80.7993041 71.894306,75.8787598 84,70.9078181 L84,28 L0,28 Z M36.223511,71 C34.2526134,71 32.5343949,70.9663484 31.0520104,70.9158709 C30.9509387,69.8726704 30.7656407,68.8631215 30.5129615,67.8872242 C32.3322516,68.0723082 34.0841606,68.1564373 35.7686885,68.1564373 C37.5374428,68.1564373 38.4807784,67.18054 38.6323859,65.2119196 L25.2741126,65.2119196 L26.0995313,55.3351334 L23.3537509,55.3351334 L23.3537509,52.8785644 L26.3016747,52.8785644 L27.0260216,44.2301119 C26.3690558,45.1555318 25.6783993,46.0136483 24.9203618,46.8381133 C24.3139318,45.9463451 23.6738112,45.1723576 23,44.5329766 C25.8131616,41.6725881 27.8177498,38.1728185 29.0137646,34 L31.8100808,34.5047744 C31.4394847,35.6825815 31.0183527,36.8099111 30.5635302,37.8699374 L44.3092942,37.8699374 L44.3092942,40.3265064 L29.4349459,40.3265064 C28.8622064,41.4201844 28.2389311,42.4633849 27.5482746,43.4729338 L42.3047554,43.4729338 C42.1868384,46.9390517 42.0857668,50.0686533 41.9846951,52.8953902 L45,52.8953902 L45,55.3519592 L41.917314,55.3519592 C41.799397,58.2291736 41.6983253,60.7193942 41.5972537,62.7721436 L44.5451775,62.7721436 L44.5451775,65.2287126 L41.4793367,65.2287126 C41.3445745,69.0649984 39.6095108,70.9999671 36.2236097,70.9999671 L36.223511,71 Z M59.1551418,71.6132748 C56.258595,69.5787642 53.844806,67.0902719 51.879292,64.1982402 C49.6379165,67.3424839 46.810335,69.9486752 43.4310304,72 C42.9310312,71.3946911 42.1206878,70.5707983 41,69.5451359 C44.8103384,67.5610677 47.8620574,64.8371774 50.172432,61.3398368 C48.3103662,57.7752397 47.0000236,53.6389619 46.2758869,48.9646152 C45.7069223,50.158419 45.1207164,51.2849662 44.4827864,52.3778851 C44.068994,51.6885055 43.37934,50.8814269 42.4483071,49.923021 C45.1724404,45.3832039 47.120713,40.0699201 48.2931248,34 L51.155189,34.4539817 C50.6379485,36.690262 50.0689839,38.8088433 49.4482953,40.843354 L60.5689662,40.843354 L60.5689662,43.4495453 L58.4310388,43.4495453 C57.948281,50.5282972 56.3448354,56.5141629 53.6379434,61.3902628 C55.6034574,64.3999934 58.0517291,66.8212292 61,68.6539702 C60.3275873,69.7132609 59.7068987,70.705295 59.1551755,71.6132584 L59.1551418,71.6132748 Z" id="形状" stroke="#4291F7" fill="#F0F0F0" fill-rule="nonzero"></path>
                    <path d="M185.763144,52.0235246 L162.058097,33.141152 L162.058097,33.141152 C161.779399,32.9210801 161.370473,32.9629393 161.144742,33.2346476 C161.052185,33.3460551 161.001154,33.4847911 161,33.628154 L161,76.1522743 C161,76.2408203 161,76.3205111 161.009082,76.4090572 L161.009082,76.4090572 C161.030469,76.755638 161.335995,77.0196969 161.691491,76.9988454 C161.852965,76.9893746 162.00489,76.9210825 162.117132,76.8075142 L185.813079,52.9532563 L185.813079,52.9532563 C186.064856,52.704248 186.061908,52.3033988 185.806493,52.0579382 C185.794032,52.0459623 185.781079,52.0344823 185.767667,52.0235263 L185.763144,52.0235246 Z M164.237645,29.1449187 L195.604747,54.8618565 L195.604747,54.8618565 C195.836297,55.0460478 196.160471,55.0460478 196.39202,54.8618565 L227.763579,29.1449187 L227.763579,29.1449187 C228.034736,28.9236089 228.079204,28.5193004 227.862899,28.2418676 C227.742327,28.0872215 227.558857,27.9980157 227.365519,28.0000335 L164.635773,28.0000335 C164.038682,28.0000335 163.773309,28.7693266 164.23329,29.1449182 L164.237645,29.1449187 Z M204.323062,55.1968605 L204.323062,55.1968605 C204.094042,54.9525948 203.714788,54.9331013 203.462282,55.1526164 L197.21285,60.5504135 L197.21285,60.5504134 C196.980324,60.7494611 196.639429,60.7513276 196.404771,60.5548379 L189.97526,55.1791802 L189.97526,55.1791801 C189.72698,54.9664295 189.357043,54.98584 189.132045,55.2234242 L165.170733,79.9337175 L165.170733,79.9337174 C164.932997,80.1881487 164.945008,80.5885646 165.197561,80.8280687 C165.311715,80.9363253 165.461933,80.9976533 165.61869,81 L227.375509,81 C227.920084,81 228.205549,80.3363386 227.827859,79.9381417 L204.323253,55.1924359 L204.323062,55.1968605 Z M231.990906,33.6338262 C231.990906,33.1015205 231.357739,32.8043181 230.934108,33.1458796 L207.2381,51.8918787 L207.2381,51.8918787 C206.96004,52.1141647 206.919672,52.5138707 207.147936,52.7846501 C207.159222,52.7980376 207.171065,52.8109694 207.183438,52.8234128 L230.870317,76.8037864 C231.271172,77.2030152 231.963559,76.9546062 231.99089,76.4045576 C232,76.320276 232,76.2359945 232,76.1561486 L231.99089,33.6338092 L231.990906,33.6338262 Z" id="形状" stroke="#4291F7" fill="#F0F0F0" fill-rule="nonzero"></path>
                </g>
            </g>
        </g>
    </g>
</svg>