<?xml version="1.0" encoding="UTF-8"?>
<svg width="469px" height="141px" viewBox="0 0 469 141" version="1.1" xmlns="http://www.w3.org/2000/svg" xmlns:xlink="http://www.w3.org/1999/xlink">
    <!-- Generator: Sketch 55 (78076) - https://sketchapp.com -->
    <title>编组 3</title>
    <desc>Created with Sketch.</desc>
    <g id="页面1" stroke="none" stroke-width="1" fill="none" fill-rule="evenodd">
        <g id="sa" transform="translate(-822.000000, -3067.000000)">
            <g id="编组-22" transform="translate(150.000000, 3062.000000)">
                <g id="编组-3" transform="translate(673.000000, 6.000000)">
                    <path d="M320.90276,41.3456376 L327.085947,41.3456376 L327.085947,50.3187919 L320.90276,50.3187919 L320.90276,59.9395973 C320.90276,61.0690681 321.012063,61.805006 321.189436,62.0969353 C321.45901,62.5426289 321.937075,62.7684564 322.693852,62.7684564 C323.461695,62.7684564 324.576335,62.5447662 326.022899,62.0931856 L326.602637,61.912206 L327.54637,70.5091359 L327.103949,70.6031691 C324.292294,71.2007662 321.663016,71.5 319.215809,71.5 C316.344713,71.5 314.210402,71.1386037 312.799583,70.3953919 C311.374359,69.6445914 310.316316,68.4996544 309.636243,66.9755556 C308.966384,65.4743475 308.640527,63.1090055 308.640527,59.8590604 L308.640527,50.3187919 L304.5,50.3187919 L304.5,41.3456376 L308.640527,41.3456376 L308.640527,36.3012206 L320.90276,30.1922917 L320.90276,41.3456376 Z M376.544248,49.7658693 L383.8859,41.2476126 L398.641944,41.2476126 L387.929093,51.7288092 L398.870167,70.5 L385.506153,70.5 L379.967838,59.5039537 L376.544248,62.8672837 L376.544248,70.5 L364.5,70.5 L364.5,30.5 L376.544248,30.5 L376.544248,49.7658693 Z M410.67799,59.2297297 C410.894349,60.6210077 411.308674,61.6592443 411.910461,62.3521136 C412.869601,63.4820882 414.106882,64.0405405 415.660976,64.0405405 C416.647947,64.0405405 417.583484,63.7925318 418.468653,63.2972144 C418.996222,62.9912233 419.587474,62.429169 420.231262,61.6099693 L420.399523,61.3958623 L432.201825,62.4928798 L431.817167,63.1667802 C430.127658,66.1267148 428.077043,68.262233 425.663911,69.5618398 C423.254701,70.8593348 419.84147,71.5 415.419512,71.5 C411.574837,71.5 408.532783,70.950794 406.290253,69.8399339 C404.038354,68.7244331 402.175622,66.9555979 400.705963,64.543979 C399.23431,62.129089 398.5,59.2958114 398.5,56.0540541 C398.5,51.436799 399.977555,47.6760221 402.930653,44.8037385 C405.883553,41.9316478 409.948659,40.5 415.097561,40.5 C419.250285,40.5 422.547048,41.1365372 424.989062,42.422454 C427.439813,43.7129712 429.310665,45.5882363 430.591868,48.0385958 C431.867302,50.477919 432.5,53.6277807 432.5,57.4864865 L432.5,59.2297297 L410.67799,59.2297297 Z M419.436133,53.5 C419.191202,51.7510225 418.674907,50.5029464 417.907312,49.747202 C417.063241,48.916161 415.951124,48.5 414.541147,48.5 C412.92331,48.5 411.653702,49.1270599 410.684423,50.4063645 C410.143397,51.1041764 409.766803,52.134807 409.566652,53.5 L419.436133,53.5 Z M447.624666,44.9012315 C448.892106,43.5001142 450.178895,42.4562042 451.487856,41.771906 C453.11375,40.9219214 455.08041,40.5 457.382903,40.5 C460.522894,40.5 463.010227,41.4447153 464.811184,43.3392073 C466.612137,45.2336952 467.5,48.1192594 467.5,51.9751381 L467.5,70.5 L455.573909,70.5 L455.573909,54.4051565 C455.573909,52.7360242 455.273855,51.5889776 454.712343,50.9594251 C454.153743,50.3331367 453.364731,50.0184162 452.307213,50.0184162 C451.137994,50.0184162 450.211491,50.450612 449.487815,51.3312575 C448.758828,52.2183657 448.372663,53.9050673 448.372663,56.3812155 L448.372663,70.5 L436.5,70.5 L436.5,41.140884 L447.624666,41.140884 L447.624666,44.9012327 Z M347.214237,55.035727 L347.214237,62.5 L342.786108,62.5 L342.786108,60.3127036 L340.5,60.3127036 L340.5,55.7769767 L342.786108,55.7769767 L342.786108,50.5 L349.5,50.5 L349.5,55.035727 L347.214237,55.035727 Z M362.55406,54.5 L356.314988,54.5 L356.25092,54.0744363 C355.527737,49.2708474 351.729975,45.4741504 346.925597,44.7511843 L346.5,44.6871402 L346.5,38.4459155 L347.051175,38.5026257 C355.191337,39.3401651 361.660224,45.8089464 362.497376,53.9488471 L362.55406,54.5 Z M333.97335,55.948583 C333.97335,62.0666973 338.933096,67.0266497 345.051068,67.0266497 C350.550179,67.0266497 355.194848,62.9940778 356.005028,57.6108458 L356.069079,57.1852581 L360.560814,57.1852581 L360.496724,57.7423983 C359.598768,65.5484129 352.970642,71.5 345.051068,71.5 C336.462513,71.5 329.5,64.5372643 329.5,55.948583 C329.5,48.0291078 335.451498,41.4008395 343.257276,40.5032731 L343.814393,40.4392116 L343.814393,44.9309475 L343.388775,44.9949767 C338.005703,45.8047955 333.97335,50.4493428 333.97335,55.948583 Z" id="形状" stroke="#4291F7" fill="#F0F0F0" fill-rule="nonzero"></path>
                    <g id="编组-18" transform="translate(149.000000, 0.000000)" fill-rule="nonzero">
                        <path d="M59.3269231,45.1842105 L44.3846154,45.1842105 L44.3846154,41.2492195 C44.3846154,37.3142284 47.7199437,34.0350877 51.8557692,34.0350877 C55.9915786,34.0350877 59.3269231,37.3142443 59.3269231,41.2492195 L59.3269231,45.1842105 L59.3269231,45.1842105 Z M53.1772003,59.0666663 L53.1772003,63.1328172 C53.1772003,63.3951495 53.0374336,63.5263158 52.7579007,63.5263158 L50.1023364,63.5263158 C49.8228035,63.5263158 49.6830368,63.3951495 49.6830368,63.1328172 L49.6830368,59.0666663 C48.4251395,58.4108367 47.5865385,57.2303386 47.5865385,55.9186793 C47.5865385,53.9511865 49.4035017,52.377193 51.5,52.377193 C53.5964983,52.377193 55.4134615,53.9511865 55.4134615,55.9186793 C55.2736948,57.3615077 54.4350951,58.5420018 53.1771978,59.0666663 L53.1772003,59.0666663 Z M67.0719741,45.0549997 L63.6115421,45.0549997 L63.6115421,40.809055 C63.6115421,34.3074409 58.1547193,29 51.5000161,29 C44.8453532,29 39.3884901,34.3074409 39.3884901,40.809055 L39.3884901,44.9223227 L35.9280581,44.9223227 C34.3309366,44.9223227 33,46.2491849 33,47.8414172 L33,67.0809055 C33,68.6731378 34.3309366,70 35.9280581,70 L67.0719419,70 C68.6690634,70 70,68.6731378 70,67.0809055 L70,47.9740942 C70,46.2491769 68.6690634,45.0549997 67.0719419,45.0549997 L67.0719741,45.0549997 Z" id="形状" fill="#4291F7"></path>
                        <path d="M90.9699234,51.5016414 C90.9699234,73.3461763 73.2769319,91.0548597 51.4527737,91.0548597 C29.6286155,91.0548597 11.935624,73.3461763 11.935624,51.5016414 C11.935624,29.6562789 29.6286155,11.9484232 51.4527737,11.9484232 C63.7852531,11.9484232 74.786879,17.6132597 82.0339911,26.4738361 L75.9810836,31.8967893 L103,39.980459 L98.4287892,11.786901 L90.936519,18.4996043 C81.49864,7.19818033 67.3201858,0 51.4528564,0 C23.0360296,0 0,23.0575378 0,51.5008966 C0,79.9434278 23.0368564,103 51.4528564,103 C78.8209748,103 101.190296,81.6100998 102.803322,54.6215444 L90.9435747,50.431843 C90.9523944,50.7884884 90.9700336,51.1433683 90.9700336,51.5017794 L90.9699234,51.5016414 Z" id="路径" stroke="#4291F7" stroke-width="2" fill="#F0F0F0"></path>
                    </g>
                    <path d="M95.6130969,32.6133761 L76.2691935,10.14595 C76.1390999,10.0158646 75.9274478,9.96122377 75.7363104,10.0296502 C75.5483003,10.1050947 75.4285893,10.2761607 75.4285893,10.460887 L75.4285893,27.1809952 L8.07642993,27.1536748 C7.70391218,27.1536748 7.33176971,27.2836348 7.0479407,27.5573405 C6.76448697,27.8312968 6.62088376,28.1870891 6.62088376,28.5363646 L6.62088376,38.5723647 C6.62088376,38.928533 6.76448697,39.2845759 7.0479407,39.5582816 C7.3318948,39.8254705 7.70391218,39.962198 8.07630484,39.962198 L75.4287144,39.9348775 L75.4287144,56.655111 C75.4287144,56.8399626 75.5488007,57.0110287 75.7363104,57.0862226 C75.9274478,57.1547743 76.139225,57.0996321 76.2691935,56.970048 L95.6134721,34.5027473 C95.852644,34.2563621 96,33.9209974 96,33.5580617 L96,33.5580717 C95.9986552,33.2047934 95.8599106,32.8659535 95.6132295,32.6135089 L95.6130969,32.6133761 Z M86.6415236,63.0378171 L20.57041,63.0651375 L20.57041,46.3454053 C20.57041,46.1609297 20.4503237,45.9897383 20.262939,45.9140432 C20.0720518,45.846118 19.8598993,45.9007589 19.7303061,46.030343 L0.386152547,68.4973931 C0.146980642,68.7437783 0,69.079143 0,69.4420787 C0,69.8047638 0.146855552,70.1398778 0.386152547,70.386263 L19.7303061,92.8539397 C19.8603997,92.9840251 20.0720518,93.0389166 20.262939,92.9702396 C20.4510742,92.8950457 20.57041,92.7238543 20.57041,92.5391281 L20.57041,75.8190199 L86.6415236,75.8463403 C87.0140413,75.8463403 87.3860587,75.7162549 87.6697626,75.4426746 C87.9533414,75.1687183 88.0968196,74.8128006 88.0968196,74.4636504 L88.0968196,64.4277757 C88.0968196,64.0716074 87.9533414,63.7156898 87.6697626,63.4414828 C87.386434,63.1746699 87.0142915,63.0378171 86.6415236,63.0378171 L86.6415236,63.0378171 Z" id="形状" stroke="#4291F7" stroke-width="2" fill="#F0F0F0" fill-rule="nonzero"></path>
                    <text id="传输无密" font-family="PingFangSC-Regular, PingFang SC" font-size="12" font-weight="normal" fill="#5B626E">
                        <tspan x="24" y="138">传输无密</tspan>
                    </text>
                    <text id="密钥轮换" font-family="PingFangSC-Regular, PingFang SC" font-size="12" font-weight="normal" fill="#5B626E">
                        <tspan x="177" y="138">密钥轮换</tspan>
                    </text>
                    <text id="Token失效" font-family="PingFangSC-Regular, PingFang SC" font-size="12" font-weight="normal" fill="#5B626E">
                        <tspan x="352" y="138">Token失效</tspan>
                    </text>
                </g>
            </g>
        </g>
    </g>
</svg>