<?xml version="1.0" encoding="UTF-8"?>
<svg width="88px" height="88px" viewBox="0 0 88 88" version="1.1" xmlns="http://www.w3.org/2000/svg" xmlns:xlink="http://www.w3.org/1999/xlink">
    <!-- Generator: Sketch 55 (78076) - https://sketchapp.com -->
    <title>编组 20</title>
    <desc>Created with Sketch.</desc>
    <g id="编组-20" stroke="none" stroke-width="1" fill="none" fill-rule="evenodd">
        <g>
            <rect id="矩形" x="0" y="0" width="88" height="88"></rect>
            <g id="编组-8" transform="translate(12.000000, 5.000000)">
                <path d="M13.4170754,70.6982311 L13,70.1533205 L13,69.5871071 C13.9895624,68.612666 15.5177967,68.0267584 17.3761277,67.5053725 C18.1300577,67.1997753 18.4933805,66.9969651 18.7654345,66.7202308 C19.0558385,66.4250942 19.2164868,66.145806 19.2720865,65.841923 C19.3101267,65.6324306 19.3001613,65.0224956 19.2701966,64.0426953 C18.7476687,63.4400373 18.2924585,62.5413331 17.8557014,61.2477839 C17.4066766,61.0075394 17.0065507,60.4231787 16.8860731,59.7782584 C16.757795,59.087892 16.8309201,58.5057704 17.069676,58.1585056 C16.5139877,54.8353501 16.8730494,52.3678668 18.1405385,50.8210936 C19.1287574,49.6129437 20.6420125,49.0010496 22.6378311,49.0010496 L22.816039,49 C24.4774685,49 24.859863,49.3542619 25.2186842,49.853748 C25.2886822,49.9505526 25.3442476,50.0277303 25.4289187,50.0982958 C26.3477924,50.0988206 27.1104851,50.4738288 27.6349373,51.1817927 C28.6317126,52.5264905 28.7519153,55.0980203 27.9694637,58.1080567 C28.246466,58.4535373 28.3230274,59.0746676 28.1618636,59.8151679 C28.0105622,60.5013011 27.5333251,61.1174284 27.0535452,61.3039355 C26.6994661,62.4896597 26.3381364,63.3890286 25.7676718,64.0645612 L25.7676718,65.7346579 C25.8307971,66.2130129 26.0097266,66.389759 26.3344595,66.7108547 L26.5500203,66.9296532 C26.7529697,67.0942944 26.9323803,67.1828424 27.7367213,67.5440663 C29.5151578,68.0442172 31.0203033,68.623505 32,69.5871071 L31.4838205,70.1533205 L26.5500203,72.8981767 L20.963239,74 L13.4170754,70.6982311 Z" id="路径" fill="#9EC8FF" fill-rule="nonzero"></path>
                <path d="M33,30.0408126 L34.0129264,28.8207688 L34.0135372,28.8182226 C35.0141747,27.8352678 36.5604563,27.2427102 38.4407326,26.7154067 C39.203566,26.406341 39.5711794,26.2012289 39.8464461,25.9213537 C40.1402795,25.6228673 40.3028249,25.3404092 40.3590813,25.0330772 C40.3975706,24.8212071 40.3874876,24.2043494 40.357169,23.2134285 C39.8284705,22.6039303 39.3678846,21.6950259 38.9259697,20.3867951 C38.4716423,20.1438238 38.0667913,19.5528307 37.9448909,18.9005906 C37.815098,18.2023886 37.8890866,17.61366 38.1306621,17.2624538 C37.5684114,13.9015808 37.9317134,11.4060918 39.2141706,9.8417628 C40.2140595,8.61990057 41.745185,8.00106147 43.7645725,8.00106147 L43.9448849,8 C45.6259347,8 46.0128449,8.35828271 46.3759035,8.86343799 C46.4467281,8.96134123 46.5029497,9.03939492 46.5886207,9.11076133 C47.5183456,9.11129207 48.2900451,9.49055657 48.8206906,10.2065559 C49.829237,11.5665158 49.9508592,14.1672322 49.1591675,17.2114323 C49.439441,17.560834 49.5169065,18.1890141 49.3538395,18.9379191 C49.2007513,19.6318397 48.7178785,20.2549601 48.2324327,20.4435839 C47.8741723,21.642766 47.5085755,22.5523427 46.9313742,23.2355425 L46.9313742,24.9245946 C46.9952449,25.4083789 47.1762875,25.587131 47.5048552,25.9118712 L47.7229616,26.133153 C47.9283077,26.2996629 48.109837,26.3892159 48.9236766,26.7545397 C50.723115,27.2603672 52.2460351,27.8462299 53.2373012,28.8207688 L54,29.691125 L53.6071254,30.0436374 C53.5582729,30.0875864 53.5048241,30.1247358 53.45531,30.167764 C53.1717007,30.4163005 52.8805703,30.6563376 52.579551,30.8832715 C52.5058021,30.9388009 52.4298248,30.9918159 52.354509,31.0459995 C52.0331548,31.2796267 51.7058812,31.5039399 51.366908,31.7124938 C51.3225821,31.7392669 51.2768634,31.7643047 51.2326071,31.7909716 C50.8712447,32.0087686 50.502187,32.2133562 50.1228574,32.401724 C50.1106356,32.4082048 50.0991449,32.4147564 50.086749,32.4205998 C49.6875372,32.6180336 49.2772874,32.795246 48.8594468,32.9575491 C48.8350031,32.9673234 48.8105595,32.9777352 48.7859765,32.9869428 C48.3791391,33.1425526 47.9637011,33.2798887 47.5419259,33.4010051 C47.5059219,33.4113814 47.469918,33.4223952 47.4338444,33.4322049 C47.0216795,33.5473009 46.603247,33.6446898 46.1781987,33.7257882 C46.1313309,33.7348543 46.0850203,33.7428579 46.0387096,33.7513573 C45.6200682,33.8265769 45.1969698,33.8873476 44.7681957,33.9279676 C44.721119,33.9325006 44.674286,33.9351567 44.6273138,33.9390877 C44.1914016,33.976485 43.7515896,34 43.305893,34 C42.8604402,34 42.4205933,33.9763788 41.984716,33.9390877 C41.9376741,33.9350504 41.8901099,33.9325006 41.8424761,33.9279676 C41.4143984,33.8873476 40.9920312,33.8265769 40.5746782,33.7513573 C40.5263479,33.742787 40.4788186,33.7343585 40.4305928,33.72508 C40.0103949,33.6452851 39.5936373,33.5477886 39.181388,33.4328422 C39.1421806,33.421793 39.1036696,33.4099646 39.0645319,33.3988446 C38.6465869,33.2787198 38.2342827,33.1432607 37.8312407,32.988855 C37.8016436,32.9770621 37.7720118,32.9647379 37.7416487,32.9529096 C37.3302498,32.7926252 36.9251882,32.6180334 36.5310253,32.4239285 C36.5104815,32.4135521 36.4904251,32.4024321 36.4700902,32.3918078 C36.1034699,32.2095312 35.7460421,32.0112828 35.3961703,31.8013477 C35.3435572,31.7698645 35.2894817,31.7406124 35.2373212,31.7084564 C34.9069486,31.5044001 34.5868828,31.2846553 34.2723185,31.0571548 C34.1893075,30.9969507 34.1058438,30.938659 34.0241908,30.8772509 C33.7302051,30.6554875 33.4467351,30.4214 33.169672,30.1794505 C33.115492,30.1329517 33.0577604,30.0923671 33.0043464,30.0446996 L33,30.0408126 Z" id="路径备份-11" fill="#4291F7" fill-rule="nonzero"></path>
                <ellipse id="椭圆形备份-6" stroke="#9EC8FF" stroke-width="2" cx="22.5" cy="59.5" rx="15.5" ry="14.5"></ellipse>
                <ellipse id="椭圆形备份-7" stroke="#4291F7" stroke-width="2" cx="43" cy="19.5" rx="15" ry="14.5"></ellipse>
                <path d="M43,39 L43,39 C54.5979797,39 64,30.2695526 64,19.5 C64,8.73044738 54.5979797,0 43,0" id="路径备份-10" stroke="#DBEAFF" stroke-width="3" stroke-linecap="round" stroke-linejoin="round" stroke-dasharray="6" transform="translate(53.500000, 19.500000) rotate(-360.000000) translate(-53.500000, -19.500000) "></path>
                <path d="M3,79 L24.5423729,79 C35.2885236,79 44,70.045695 44,59 C44,47.954305 35.2885236,39 24.5423729,39" id="路径备份-12" stroke="#DBEAFF" stroke-width="3" stroke-linecap="round" stroke-linejoin="round" stroke-dasharray="6" transform="translate(23.500000, 59.000000) rotate(-180.000000) translate(-23.500000, -59.000000) "></path>
                <polyline id="路径-16" stroke="#4291F7" stroke-width="4" stroke-linecap="round" stroke-linejoin="round" points="27 20 0 20 5.94403613 14"></polyline>
                <polyline id="路径-16备份" stroke="#9EC8FF" stroke-width="4" stroke-linecap="round" stroke-linejoin="round" transform="translate(52.000000, 57.500000) scale(-1, 1) translate(-52.000000, -57.500000) " points="65 60 39 60 44.7238866 55"></polyline>
            </g>
        </g>
    </g>
</svg>