<?xml version="1.0" encoding="UTF-8"?>
<svg width="383px" height="116px" viewBox="0 0 383 116" version="1.1" xmlns="http://www.w3.org/2000/svg" xmlns:xlink="http://www.w3.org/1999/xlink">
    <!-- Generator: Sketch 55 (78076) - https://sketchapp.com -->
    <title>编组 12</title>
    <desc>Created with Sketch.</desc>
    <g id="页面1" stroke="none" stroke-width="1" fill="none" fill-rule="evenodd">
        <g id="统一认证" transform="translate(-907.000000, -2512.000000)" fill-rule="nonzero">
            <g id="编组-20" transform="translate(150.000000, 2465.000000)">
                <g id="编组-12" transform="translate(757.000000, 47.000000)">
                    <path d="M235,70.8522427 L248.610526,69.9973615 C248.905265,72.2137314 249.505259,73.9023689 250.410526,75.0633245 C251.884218,76.9419619 253.98946,77.8812665 256.726316,77.8812665 C258.768431,77.8812665 260.3421,77.4010602 261.447368,76.4406332 C262.552637,75.4802063 263.105263,74.3667609 263.105263,73.1002639 C263.105263,71.8970916 262.578953,70.8205852 261.526316,69.8707124 C260.473679,68.9208396 258.031598,68.0237509 254.2,67.1794195 C247.926284,65.7651644 243.452645,63.8865553 240.778947,61.5435356 C238.084197,59.200516 236.736842,56.2137385 236.736842,52.5831135 C236.736842,50.1978773 237.426309,47.9446016 238.805263,45.823219 C240.184217,43.7018364 242.257881,42.0343069 245.026316,40.8205805 C247.794751,39.6068541 251.58945,39 256.410526,39 C262.326345,39 266.836827,40.1028913 269.942105,42.3087071 C273.047384,44.5145229 274.894734,48.0237226 275.484211,52.8364116 L262,53.6279683 C261.642103,51.5382481 260.889479,50.0184744 259.742105,49.0686016 C258.594731,48.1187288 257.010536,47.6437995 254.989474,47.6437995 C253.326307,47.6437995 252.073688,47.9973579 251.231579,48.7044855 C250.389469,49.411613 249.968421,50.2717627 249.968421,51.2849604 C249.968421,52.0237504 250.315786,52.6886514 251.010526,53.2796834 C251.684214,53.8918236 253.284198,54.4617388 255.810526,54.9894459 C262.063189,56.3403761 266.542092,57.7071171 269.247368,59.0897098 C271.952645,60.4723024 273.921046,62.1873249 275.152632,64.2348285 C276.384217,66.2823321 277,68.5725467 277,71.1055409 C277,74.0818091 276.178956,76.825845 274.536842,79.3377309 C272.894729,81.8496168 270.600015,83.7546109 267.652632,85.0527704 C264.705248,86.35093 260.989496,87 256.505263,87 C248.63154,87 243.178963,85.4802263 240.147368,82.4406332 C237.115774,79.4010402 235.400002,75.538282 235,70.8522427 Z M285,41 L305.953299,41 C310.083786,41 313.420299,41.5647965 315.962936,42.6944065 C318.505572,43.8240166 320.607108,45.4451918 322.267606,47.5579809 C323.928103,49.67077 325.131946,52.1286808 325.87917,54.9317872 C326.626394,57.7348935 327,60.7053049 327,63.8431105 C327,68.7590059 326.444779,72.5713825 325.334322,75.2803547 C324.223864,77.9893269 322.682738,80.2589722 320.710897,82.0893588 C318.739056,83.9197454 316.621953,85.1382416 314.359526,85.744884 C311.266849,86.5816322 308.464801,87 305.953299,87 L285,87 L285,41 Z M300,50 L300,76 L303.52381,76 C306.529116,76 308.66666,75.6591794 309.936508,74.9775281 C311.206356,74.2958767 312.201055,73.1057097 312.920635,71.4069913 C313.640215,69.7082728 314,66.9546591 314,63.1460674 C314,58.1040114 313.195775,54.652527 311.587302,52.7915106 C309.978828,50.9304942 307.312188,50 303.587302,50 L300,50 Z M334,41 L348.283784,41 L348.283784,58.3833561 L363.261261,41 L382.243243,41 L365.405405,58.3519782 L383,87 L365.405405,87 L355.662162,68.0791269 L348.283784,75.7667121 L348.283784,87 L334,87 L334,41 Z" id="SDK" fill="#4291F7"></path>
                    <g id="编组-9">
                        <path d="M20.1718919,0.56 C22.4421622,0.56 24.2259459,1.01822102 25.4962162,1.96161725 C26.8475676,2.95892183 27.6313514,4.52226415 27.8205405,6.62469003 L24.6854054,6.62469003 C24.4151351,5.4387062 23.9016216,4.57617251 23.1989189,4.06404313 C22.4962162,3.52495957 21.4151351,3.28237197 20.0097297,3.28237197 C18.7935135,3.28237197 17.8745946,3.44409704 17.2259459,3.79450135 C16.4151351,4.19881402 16.0367568,4.87266846 16.0367568,5.78911051 C16.0367568,6.59773585 16.4691892,7.2715903 17.3881081,7.7567655 C17.7935135,7.97239892 18.9016216,8.37671159 20.6854054,8.94274933 C23.307027,9.75137466 24.9827027,10.3982749 25.7394595,10.8295418 C27.4151351,11.8268464 28.252973,13.2015094 28.252973,14.9804852 C28.252973,16.7055526 27.5772973,18.0802156 26.2259459,19.0775202 C24.8745946,20.0478706 22.9556757,20.56 20.4962162,20.56 C18.1178378,20.56 16.252973,20.101779 14.9286486,19.1853369 C13.307027,18.0532615 12.4151351,16.2742857 12.28,13.8214555 L15.4151351,13.8214555 C15.6313514,15.2769811 16.1448649,16.3281941 16.9827027,16.9481402 C17.7394595,17.4872237 18.9016216,17.7837197 20.4962162,17.7837197 C21.9016216,17.7837197 23.0367568,17.5411321 23.8475676,17.0829111 C24.6583784,16.5977358 25.0908108,15.9777898 25.0908108,15.1691644 C25.0908108,14.1449057 24.4691892,13.3362803 23.28,12.7432884 C22.9016216,12.5546092 21.6583784,12.1233423 19.5232432,11.476442 C17.1448649,10.7217251 15.6583784,10.1826415 15.0908108,9.85919137 C13.6043243,8.9697035 12.8745946,7.67590296 12.8745946,5.97778976 C12.8745946,4.27967655 13.5772973,2.93196765 15.0367568,1.96161725 C16.3881081,1.01822102 18.0908108,0.56 20.1718919,0.56 Z M36.4421622,0.937358491 L40.0367568,0.937358491 L47.4151351,20.1826415 L44.0367568,20.1826415 L42.28,15.3578437 L34.1989189,15.3578437 L32.4421622,20.1826415 L29.0637838,20.1826415 L36.4421622,0.937358491 Z M35.1448649,12.7702426 L41.3340541,12.7702426 L38.307027,4.33358491 L38.1989189,4.33358491 L35.1448649,12.7702426 Z M49.307027,0.937358491 L53.0097297,0.937358491 L59.5772973,16.0316981 L59.6854054,16.0316981 L66.2259459,0.937358491 L69.9286486,0.937358491 L69.9286486,20.1826415 L66.7664865,20.1826415 L66.7664865,6.92118598 L66.6583784,6.92118598 L60.9827027,20.1826415 L58.252973,20.1826415 L52.5772973,6.92118598 L52.4691892,6.92118598 L52.4691892,20.1826415 L49.307027,20.1826415 L49.307027,0.937358491 Z M73.7124324,0.937358491 L76.8475676,0.937358491 L76.8475676,17.4872237 L87.28,17.4872237 L87.28,20.1826415 L73.7124324,20.1826415 L73.7124324,0.937358491 Z" id="SAML" fill="#D1D1D1"></path>
                        <path d="M61.28,25.56 L64.4297045,25.56 L64.4297045,33.7468132 L74.1749442,33.7468132 L74.1749442,25.56 L77.3246487,25.56 L77.3246487,45.1753846 L74.1749442,45.1753846 L74.1749442,36.4940659 L64.4297045,36.4940659 L64.4297045,45.1753846 L61.28,45.1753846 L61.28,25.56 Z M79.6128956,25.56 L95.3614183,25.56 L95.3614183,28.3072527 L89.0620092,28.3072527 L89.0620092,45.1753846 L85.9123047,45.1753846 L85.9123047,28.3072527 L79.6128956,28.3072527 L79.6128956,25.56 Z M96.1690348,25.56 L111.917557,25.56 L111.917557,28.3072527 L105.618148,28.3072527 L105.618148,45.1753846 L102.468444,45.1753846 L102.468444,28.3072527 L96.1690348,28.3072527 L96.1690348,25.56 Z M114.205804,25.56 L122.174288,25.56 C126.804622,25.56 129.14671,27.5654945 129.14671,31.5764835 C129.14671,35.6149451 126.804622,37.6479121 122.120446,37.6479121 L117.355509,37.6479121 L117.355509,45.1753846 L114.205804,45.1753846 L114.205804,25.56 Z M117.355509,28.3072527 L117.355509,34.9006593 L121.932003,34.9006593 C123.331871,34.9006593 124.354852,34.6259341 125.000946,34.1314286 C125.647039,33.6094505 125.970085,32.7578022 125.970085,31.5764835 C125.970085,30.3951648 125.620118,29.570989 124.974025,29.0764835 C124.327932,28.5545055 123.304951,28.3072527 121.932003,28.3072527 L117.355509,28.3072527 Z M136.819068,30.5874725 C140.480263,30.5874725 142.499304,32.070989 142.822351,35.092967 L139.834169,35.092967 C139.618805,34.3786813 139.295758,33.8567033 138.86503,33.581978 C138.40738,33.2797802 137.707446,33.1424176 136.765227,33.1424176 C135.95761,33.1424176 135.338437,33.2523077 134.934629,33.4995604 C134.450059,33.7468132 134.234695,34.1314286 134.234695,34.6808791 C134.234695,35.1204396 134.584662,35.5325275 135.338437,35.8621978 C135.796087,36.0545055 136.711385,36.3292308 138.111254,36.6863736 C139.672646,37.070989 140.85715,37.5105495 141.610926,38.0325275 C142.714668,38.7468132 143.28,39.7632967 143.28,41.027033 C143.28,44.049011 141.180197,45.56 137.007511,45.56 C133.130952,45.56 131.05807,43.8841758 130.761944,40.56 L133.750125,40.56 C133.911648,41.4665934 134.234695,42.0984615 134.692344,42.4830769 C135.149993,42.8127473 135.876848,43.0050549 136.899829,43.0050549 C139.053473,43.0050549 140.130295,42.4006593 140.130295,41.2468132 C140.130295,40.5874725 139.726487,40.0654945 138.918871,39.6808791 C138.488142,39.4610989 137.572843,39.2138462 136.172974,38.8841758 C134.530821,38.4995604 133.373237,38.0874725 132.700223,37.6479121 C131.623401,36.9610989 131.08499,35.9995604 131.08499,34.7632967 C131.08499,33.4446154 131.596481,32.4281319 132.673303,31.7138462 C133.723204,30.9446154 135.096152,30.5874725 136.819068,30.5874725 Z" id="HTTPs" fill="#4291F7"></path>
                        <path d="M11.28,50.8241509 L13.0148646,50.8241509 L15.9754487,62.1260377 L16.0508776,62.1260377 L19.1246051,50.8241509 L20.8028981,50.8241509 L23.8577683,62.1260377 L23.9331972,62.1260377 L26.8937814,50.8241509 L28.628646,50.8241509 L24.7629151,64.2958491 L23.0469077,64.2958491 L19.9920374,53.069434 L19.9354658,53.069434 L16.8617383,64.2958491 L15.1457309,64.2958491 L11.28,50.8241509 Z M34.6063859,50.56 C36.1149638,50.56 37.3218262,50.8996226 38.1892585,51.5977358 C39.0944052,52.314717 39.6035503,53.3901887 39.7355508,54.805283 L38.2081157,54.805283 C38.0384007,53.8241509 37.6612562,53.1071698 37.0766823,52.6354717 C36.4732511,52.1449057 35.624676,51.9184906 34.530957,51.9184906 C33.5315242,51.9184906 32.758378,52.069434 32.1926613,52.4090566 C31.5515157,52.7864151 31.2309429,53.3524528 31.2309429,54.1260377 C31.2309429,54.805283 31.6080873,55.3524528 32.3812335,55.7675472 C32.7206635,55.9562264 33.5503814,56.2392453 34.8515298,56.6166038 C36.6241089,57.1449057 37.7932568,57.5788679 38.3589735,57.9184906 C39.4715497,58.5977358 40.0372664,59.5411321 40.0372664,60.7675472 C40.0372664,61.9373585 39.5658358,62.8807547 38.6229746,63.56 C37.6801134,64.2203774 36.4166794,64.56 34.8138154,64.56 C33.2298086,64.56 31.9852318,64.2203774 31.0800851,63.5411321 C30.0240805,62.7298113 29.4395066,61.5033962 29.3263632,59.8430189 L30.8537984,59.8430189 C30.985799,61.0128302 31.4006579,61.8807547 32.0795179,62.4279245 C32.7018063,62.9184906 33.6069531,63.1826415 34.8138154,63.1826415 C35.9075344,63.1826415 36.8126811,62.9750943 37.4915412,62.56 C38.1704012,62.1449057 38.5098313,61.5788679 38.5098313,60.8618868 C38.5098313,60.0128302 38.0572579,59.3524528 37.1709684,58.8807547 C36.7938239,58.6543396 35.8321055,58.3335849 34.3235276,57.8996226 C32.7018063,57.4090566 31.664659,57.0316981 31.2309429,56.805283 C30.1937955,56.2015094 29.6846505,55.3335849 29.6846505,54.2015094 C29.6846505,53.0316981 30.1749383,52.1071698 31.1743712,51.4656604 C32.0606607,50.8618868 33.2109514,50.56 34.6063859,50.56 Z M41.5835588,58.7675472 L51.1064568,58.7675472 L51.1064568,60.050566 L41.5835588,60.050566 L41.5835588,58.7675472 Z M53.4070381,50.8241509 L62.4207912,50.8241509 L62.4207912,52.1637736 L54.9533305,52.1637736 L54.9533305,56.6920755 L62.0247895,56.6920755 L62.0247895,58.0316981 L54.9533305,58.0316981 L54.9533305,64.2958491 L53.4070381,64.2958491 L53.4070381,50.8241509 Z M68.1156728,54.2769811 C69.6808223,54.2769811 70.8688274,54.805283 71.6608309,55.8618868 C72.3774054,56.805283 72.7545498,58.1449057 72.7922643,59.8430189 L65.0985169,59.8430189 C65.1739458,60.9373585 65.4568042,61.7864151 65.9848065,62.3901887 C66.5128087,62.9939623 67.2482405,63.2958491 68.1722444,63.2958491 C68.9642478,63.2958491 69.6242507,63.0883019 70.1145385,62.6920755 C70.5293974,62.3524528 70.8499702,61.8430189 71.0951141,61.1637736 L72.603692,61.1637736 C72.3774054,62.1071698 71.9436892,62.8618868 71.2836864,63.4656604 C70.4728257,64.1826415 69.4356784,64.56 68.1722444,64.56 C66.7768099,64.56 65.6453764,64.0883019 64.8156586,63.1826415 C63.9482263,62.2392453 63.5333674,60.9939623 63.5333674,59.4090566 C63.5333674,57.9750943 63.9293691,56.7675472 64.7590869,55.805283 C65.5888048,54.7864151 66.701381,54.2769811 68.1156728,54.2769811 Z M68.1533872,55.5411321 C67.2859549,55.5411321 66.5882376,55.8241509 66.0602354,56.3901887 C65.5322331,56.9562264 65.2305175,57.7109434 65.1362314,58.6732075 L71.2271147,58.6732075 C71.0385425,56.5788679 70.0013952,55.5411321 68.1533872,55.5411321 Z M81.7683028,50.56 L83.2768808,50.56 L83.2768808,64.2958491 L81.862589,64.2958491 L81.862589,62.6920755 C81.1837289,63.9373585 80.0900099,64.56 78.6191465,64.56 C77.1859974,64.56 76.0734212,64.0316981 75.2814178,63.0128302 C74.5459861,62.069434 74.1876989,60.8618868 74.1876989,59.3901887 C74.1876989,57.9562264 74.5459861,56.7864151 75.2814178,55.8430189 C76.0734212,54.7864151 77.148283,54.2769811 78.5437176,54.2769811 C79.9391521,54.2769811 81.0140139,54.9562264 81.7683028,56.3335849 L81.7683028,50.56 Z M78.8642904,55.5222642 C77.7894286,55.5222642 76.978568,55.8996226 76.4505657,56.6543396 C75.9602779,57.314717 75.7339912,58.2203774 75.7339912,59.3901887 C75.7339912,60.56 75.9602779,61.4845283 76.4317085,62.1637736 C76.9597108,62.9184906 77.7517142,63.314717 78.8077187,63.314717 C79.7882943,63.314717 80.5425833,62.9373585 81.0894428,62.1826415 C81.5608734,61.5033962 81.8060173,60.6166038 81.8060173,59.5222642 L81.8060173,59.3335849 C81.8060173,58.2015094 81.5231589,57.2769811 80.9951567,56.5788679 C80.4482972,55.8618868 79.7317227,55.5222642 78.8642904,55.5222642 Z M89.6317652,54.2769811 C91.1969148,54.2769811 92.3849199,54.805283 93.1769233,55.8618868 C93.8934978,56.805283 94.2706423,58.1449057 94.3083567,59.8430189 L86.6146094,59.8430189 C86.6900383,60.9373585 86.9728966,61.7864151 87.5008989,62.3901887 C88.0289012,62.9939623 88.7643329,63.2958491 89.6883369,63.2958491 C90.4803403,63.2958491 91.1403431,63.0883019 91.6306309,62.6920755 C92.0454899,62.3524528 92.3660627,61.8430189 92.6112066,61.1637736 L94.1197845,61.1637736 C93.8934978,62.1071698 93.4597817,62.8618868 92.7997788,63.4656604 C91.9889182,64.1826415 90.9517709,64.56 89.6883369,64.56 C88.2929023,64.56 87.1614689,64.0883019 86.331751,63.1826415 C85.4643187,62.2392453 85.0494598,60.9939623 85.0494598,59.4090566 C85.0494598,57.9750943 85.4454615,56.7675472 86.2751794,55.805283 C87.1048972,54.7864151 88.2174734,54.2769811 89.6317652,54.2769811 Z M89.6694797,55.5411321 C88.8020474,55.5411321 88.1043301,55.8241509 87.5763278,56.3901887 C87.0483255,56.9562264 86.74661,57.7109434 86.6523238,58.6732075 L92.7432071,58.6732075 C92.5546349,56.5788679 91.5174876,55.5411321 89.6694797,55.5411321 Z M100.361526,54.2769811 C100.889528,54.2769811 101.342101,54.3524528 101.700388,54.5033962 L101.700388,56.0128302 C101.210101,55.8618868 100.719813,55.805283 100.248382,55.805283 C99.4940933,55.805283 98.8529477,56.1260377 98.3438026,56.805283 C97.8158004,57.4467925 97.5706565,58.2203774 97.5706565,59.1260377 L97.5706565,64.2958491 L96.0809358,64.2958491 L96.0809358,54.5411321 L97.5706565,54.5411321 L97.5706565,56.2392453 C97.8346576,55.6732075 98.1740876,55.2203774 98.5889465,54.8996226 C99.0980916,54.4845283 99.6826655,54.2769811 100.361526,54.2769811 Z M107.206698,54.2769811 C108.602132,54.2769811 109.620423,54.6354717 110.299283,55.3713208 C110.864999,56.0128302 111.166715,56.8996226 111.166715,58.0316981 L111.166715,64.2958491 L109.752423,64.2958491 L109.752423,62.6543396 C109.375279,63.1826415 108.866134,63.6166038 108.262702,63.9562264 C107.546128,64.3524528 106.735267,64.56 105.830121,64.56 C104.849545,64.56 104.076399,64.314717 103.491825,63.8241509 C102.888394,63.314717 102.586678,62.6543396 102.586678,61.8618868 C102.586678,60.7486792 103.020394,59.9184906 103.925541,59.3524528 C104.717544,58.8241509 105.848978,58.5411321 107.319841,58.5222642 L109.658137,58.4845283 L109.658137,57.9750943 C109.658137,56.3335849 108.809562,55.5222642 107.112412,55.5222642 C106.395837,55.5222642 105.811263,55.6543396 105.35869,55.9562264 C104.849545,56.2581132 104.528972,56.7298113 104.378114,57.3524528 L102.888394,57.2392453 C103.095823,56.2203774 103.604968,55.4467925 104.396972,54.9562264 C105.113546,54.5033962 106.03755,54.2769811 107.206698,54.2769811 Z M109.658137,59.6166038 L107.414127,59.6543396 C105.226689,59.6920755 104.13297,60.4090566 104.13297,61.8241509 C104.13297,62.2769811 104.302685,62.6354717 104.67983,62.9373585 C105.056974,63.2203774 105.547262,63.3713208 106.150693,63.3713208 C107.074697,63.3713208 107.885558,63.069434 108.602132,62.4656604 C109.29985,61.8807547 109.658137,61.2015094 109.658137,60.4467925 L109.658137,59.6166038 Z M116.107308,51.3901887 L116.107308,54.5411321 L118.521032,54.5411321 L118.521032,55.805283 L116.107308,55.805283 L116.107308,62.0128302 C116.107308,62.3713208 116.163879,62.6354717 116.314737,62.7864151 C116.446738,62.9373585 116.691881,63.0316981 117.031311,63.0316981 L118.275888,63.0316981 L118.275888,64.2958491 L116.805025,64.2958491 C116.013021,64.2958491 115.428447,64.0883019 115.089017,63.6732075 C114.768445,63.2958491 114.617587,62.7486792 114.617587,62.0128302 L114.617587,55.805283 L112.656436,55.805283 L112.656436,54.5411321 L114.617587,54.5411321 L114.617587,52.0128302 L116.107308,51.3901887 Z M121.443902,50.8618868 C121.764475,50.8618868 122.028476,50.9562264 122.254763,51.1826415 C122.481049,51.3713208 122.594193,51.6354717 122.594193,51.9750943 C122.594193,52.2958491 122.481049,52.56 122.254763,52.7864151 C122.028476,52.9939623 121.764475,53.1071698 121.443902,53.1071698 C121.123329,53.1071698 120.859328,52.9939623 120.633041,52.7864151 C120.406755,52.56 120.312468,52.2958491 120.312468,51.9750943 C120.312468,51.6354717 120.406755,51.3713208 120.633041,51.1826415 C120.859328,50.9562264 121.123329,50.8618868 121.443902,50.8618868 Z M120.689613,54.5411321 L122.198191,54.5411321 L122.198191,64.2958491 L120.689613,64.2958491 L120.689613,54.5411321 Z M129.382793,54.2769811 C130.834799,54.2769811 132.003947,54.7675472 132.87138,55.7864151 C133.701097,56.7486792 134.115956,57.9562264 134.115956,59.4279245 C134.115956,60.8807547 133.701097,62.0883019 132.890237,63.0316981 C132.003947,64.050566 130.834799,64.56 129.382793,64.56 C127.91193,64.56 126.761639,64.050566 125.894207,63.0316981 C125.064489,62.0883019 124.64963,60.8807547 124.64963,59.4279245 C124.64963,57.9562264 125.064489,56.7486792 125.894207,55.7864151 C126.761639,54.7675472 127.91193,54.2769811 129.382793,54.2769811 Z M129.382793,55.5411321 C128.345646,55.5411321 127.534785,55.9373585 126.969068,56.7298113 C126.441066,57.4467925 126.195922,58.3335849 126.195922,59.4279245 C126.195922,60.5033962 126.441066,61.3901887 126.969068,62.1071698 C127.534785,62.8996226 128.345646,63.2958491 129.382793,63.2958491 C130.401083,63.2958491 131.211944,62.8996226 131.815375,62.1071698 C132.32452,61.3901887 132.588521,60.4845283 132.588521,59.4279245 C132.588521,58.3335849 132.32452,57.4467925 131.815375,56.7298113 C131.211944,55.9373585 130.401083,55.5411321 129.382793,55.5411321 Z M140.640556,54.2769811 C143.05428,54.2769811 144.28,55.6166038 144.28,58.2958491 L144.28,64.2958491 L142.771422,64.2958491 L142.771422,58.4090566 C142.771422,56.5033962 141.90399,55.56 140.20684,55.56 C139.52798,55.56 138.943406,55.805283 138.453118,56.2958491 C137.925116,56.8241509 137.642257,57.5222642 137.585686,58.4090566 L137.585686,64.2958491 L136.077108,64.2958491 L136.077108,54.5411321 L137.585686,54.5411321 L137.585686,55.9750943 C137.925116,55.4279245 138.358832,55.0128302 138.886834,54.7298113 C139.414836,54.4279245 139.99941,54.2769811 140.640556,54.2769811 Z" id="WS-Federation" fill="#7A838A"></path>
                        <path d="M8.6518802,67.56 C11.2816639,67.56 13.3565391,68.4090566 14.8765058,70.1314286 C16.3240932,71.7567655 17.0478869,73.9157951 17.0478869,76.5842588 C17.0478869,79.2527224 16.3240932,81.3874933 14.8765058,83.0128302 C13.3565391,84.7109434 11.2816639,85.56 8.6518802,85.56 C5.99797005,85.56 3.92309484,84.6866846 2.42725458,82.9885714 C0.979667221,81.3389757 0.28,79.2042049 0.28,76.5842588 C0.28,73.9400539 0.979667221,71.805283 2.42725458,70.1556873 C3.92309484,68.4090566 5.99797005,67.56 8.6518802,67.56 Z M8.6518802,70.0586523 C6.86652246,70.0586523 5.49131448,70.6651213 4.50212978,71.8780593 C3.561198,73.0424798 3.10279534,74.5950404 3.10279534,76.5842588 C3.10279534,78.5492183 3.561198,80.101779 4.50212978,81.2661995 C5.46718802,82.4548787 6.86652246,83.0613477 8.6518802,83.0613477 C10.4372379,83.0613477 11.8124459,82.4791375 12.7775042,81.3389757 C13.7184359,80.198814 14.2009651,78.6219946 14.2009651,76.5842588 C14.2009651,74.5465229 13.7184359,72.9454447 12.7775042,71.7810243 C11.8124459,70.6166038 10.4372379,70.0586523 8.6518802,70.0586523 Z M19.701797,67.8996226 L22.5245923,67.8996226 L22.5245923,85.2203774 L19.701797,85.2203774 L19.701797,67.8996226 Z M25.9022962,67.8996226 L32.1993012,67.8996226 C34.99797,67.8996226 37.0969717,68.675903 38.5445591,70.2284636 C39.9197671,71.6839892 40.6194343,73.7945013 40.6194343,76.56 C40.6194343,79.3012399 39.9197671,81.411752 38.5445591,82.8915364 C37.0969717,84.444097 34.99797,85.2203774 32.1993012,85.2203774 L25.9022962,85.2203774 L25.9022962,67.8996226 Z M28.7250915,70.3254987 L28.7250915,82.7945013 L31.6685191,82.7945013 C33.8157737,82.7945013 35.3839933,82.2850674 36.373178,81.2904582 C37.3382363,80.2715903 37.8207654,78.6947709 37.8207654,76.56 C37.8207654,74.3767116 37.3382363,72.7756334 36.373178,71.805283 C35.3839933,70.8106739 33.8157737,70.3254987 31.6685191,70.3254987 L28.7250915,70.3254987 Z M50.7525458,67.56 C52.7791681,67.56 54.46802,68.0936927 55.7708486,69.1610782 C57.0254243,70.1799461 57.7733444,71.5869542 58.0387354,73.3335849 L55.2883195,73.3335849 C54.998802,72.1934232 54.46802,71.3686253 53.6718469,70.8349326 C52.8998003,70.3012399 51.9106156,70.0586523 50.7042928,70.0586523 C48.8948087,70.0586523 47.5437271,70.6651213 46.6269218,71.9265768 C45.7824958,73.0424798 45.3723461,74.5950404 45.3723461,76.5842588 C45.3723461,78.6219946 45.7824958,80.198814 46.6027953,81.2904582 C47.4954742,82.4548787 48.8948087,83.0613477 50.7766722,83.0613477 C52.0071215,83.0613477 53.0204326,82.7459838 53.7924792,82.1637736 C54.6127787,81.5087871 55.1918136,80.5141779 55.529584,79.2042049 L58.28,79.2042049 C57.8939767,81.2419407 57.0012978,82.8187601 55.5778369,83.9589218 C54.2508819,85.0263073 52.6585358,85.56 50.8007987,85.56 C47.9297504,85.56 45.7824958,84.6381671 44.3831614,82.8430189 C43.1527121,81.2904582 42.5495507,79.2042049 42.5495507,76.5842588 C42.5495507,74.0128302 43.1768386,71.9023181 44.4555408,70.3012399 C45.9031281,68.4575741 48.0021298,67.56 50.7525458,67.56 Z" id="OIDC" fill="#4291F7"></path>
                        <path d="M110.586227,3.56 C112.293896,3.56 113.742172,4.01283019 114.909439,4.91849057 C116.076706,5.82415094 116.76842,7.05326146 116.984581,8.58425876 L115.276912,8.58425876 C115.060751,7.46296496 114.498734,6.60043127 113.634092,5.99665768 C112.791065,5.41444744 111.775111,5.13412399 110.564611,5.13412399 C108.770479,5.13412399 107.387051,5.75946092 106.414328,7.01013477 C105.506454,8.17455526 105.052517,9.70555256 105.052517,11.62469 C105.052517,13.5438275 105.484838,15.0748248 106.392712,16.1961186 C107.343819,17.3821024 108.70563,17.985876 110.521379,17.985876 C111.753495,17.985876 112.791065,17.6624259 113.655708,17.0155256 C114.563582,16.3254987 115.190448,15.3120216 115.493073,13.9750943 L117.200741,13.9750943 C116.854884,15.7648518 116.05509,17.166469 114.779743,18.1583827 C113.590859,19.0856065 112.1642,19.56 110.521379,19.56 C108.121997,19.56 106.284632,18.7621563 105.009285,17.1880323 C103.842017,15.7648518 103.28,13.9104043 103.28,11.62469 C103.28,9.33897574 103.863634,7.46296496 105.052517,5.99665768 C106.34948,4.35784367 108.208461,3.56 110.586227,3.56 Z M124.182728,3.86188679 L126.236253,3.86188679 L132.310365,19.2581132 L130.386536,19.2581132 L128.743716,14.9454447 L121.653649,14.9454447 L120.010829,19.2581132 L118.108616,19.2581132 L124.182728,3.86188679 Z M122.215666,13.4575741 L128.181698,13.4575741 L125.263531,5.75946092 L125.177066,5.75946092 L122.215666,13.4575741 Z M139.054575,3.56 C140.78386,3.56 142.167288,3.94814016 143.161626,4.74598383 C144.199197,5.56539084 144.782831,6.79450135 144.934143,8.41175202 L143.183242,8.41175202 C142.988698,7.29045822 142.556377,6.47105121 141.886279,5.93196765 C141.194565,5.37132075 140.221843,5.11256065 138.968111,5.11256065 C137.82246,5.11256065 136.936202,5.28506739 136.28772,5.67320755 C135.552774,6.10447439 135.185301,6.75137466 135.185301,7.6354717 C135.185301,8.41175202 135.617622,9.03708895 136.503881,9.51148248 C136.89297,9.7271159 137.844076,10.050566 139.335584,10.4818329 C141.367494,11.0856065 142.707689,11.5815633 143.356171,11.9697035 C144.631518,12.7459838 145.28,13.8241509 145.28,15.2257682 C145.28,16.5626954 144.739599,17.6408625 143.658796,18.4171429 C142.577993,19.1718598 141.129717,19.56 139.292352,19.56 C137.476603,19.56 136.049943,19.1718598 135.012373,18.3955795 C133.801873,17.4683558 133.131776,16.0667385 133.002079,14.1691644 L134.75298,14.1691644 C134.904292,15.5060916 135.379846,16.4980054 136.158024,17.1233423 C136.871354,17.6839892 137.908924,17.985876 139.292352,17.985876 C140.546083,17.985876 141.583654,17.7486792 142.361832,17.2742857 C143.14001,16.7998922 143.529099,16.1529919 143.529099,15.3335849 C143.529099,14.3632345 143.010314,13.6085175 141.994359,13.069434 C141.562038,12.8106739 140.459619,12.444097 138.730335,11.9481402 C136.871354,11.3874933 135.68247,10.9562264 135.185301,10.6974663 C133.996418,10.0074394 133.412784,9.01552561 133.412784,7.72172507 C133.412784,6.38479784 133.974802,5.32819407 135.120453,4.59504043 C136.136408,3.90501348 137.454987,3.56 139.054575,3.56 Z" id="CAS" fill="#404040"></path>
                        <path d="M71.5391304,81.56 C74.7617391,81.56 77.3043478,82.5977358 79.1669565,84.7028571 C80.9408696,86.6893801 81.8278261,89.3281941 81.8278261,92.5896496 C81.8278261,95.8511051 80.9408696,98.4602695 79.1669565,100.446792 C77.3043478,102.522264 74.7617391,103.56 71.5391304,103.56 C68.2869565,103.56 65.7443478,102.492615 63.9113043,100.417143 C62.1373913,98.4009704 61.28,95.7918059 61.28,92.5896496 C61.28,89.3578437 62.1373913,86.7486792 63.9113043,84.7325067 C65.7443478,82.5977358 68.2869565,81.56 71.5391304,81.56 Z M71.5391304,84.6139084 C69.3513043,84.6139084 67.666087,85.3551482 66.453913,86.837628 C65.3008696,88.2608086 64.7391304,90.1583827 64.7391304,92.5896496 C64.7391304,94.9912668 65.3008696,96.888841 66.453913,98.3120216 C67.6365217,99.7648518 69.3513043,100.506092 71.5391304,100.506092 C73.7269565,100.506092 75.4121739,99.7945013 76.5947826,98.4009704 C77.7478261,97.0074394 78.3391304,95.0802156 78.3391304,92.5896496 C78.3391304,90.0990836 77.7478261,88.1422102 76.5947826,86.7190296 C75.4121739,85.2958491 73.7269565,84.6139084 71.5391304,84.6139084 Z M91.0817391,81.9750943 L95.013913,81.9750943 L103.085217,103.144906 L99.3895652,103.144906 L97.4678261,97.837628 L88.6278261,97.837628 L86.706087,103.144906 L83.0104348,103.144906 L91.0817391,81.9750943 Z M89.6626087,94.9912668 L96.4330435,94.9912668 L93.1217391,85.7109434 L93.0034783,85.7109434 L89.6626087,94.9912668 Z M104.85913,87.8160647 L108.229565,87.8160647 L108.229565,97.1556873 C108.229565,98.4009704 108.466087,99.2904582 108.998261,99.8834501 C109.530435,100.446792 110.358261,100.743288 111.54087,100.743288 C112.28,100.743288 112.989565,100.417143 113.669565,99.7945013 C114.349565,99.1422102 114.852174,98.282372 115.147826,97.1853369 L115.147826,87.8160647 L118.518261,87.8160647 L118.518261,103.144906 L115.147826,103.144906 L115.147826,101.158383 C113.846957,102.759461 112.250435,103.56 110.358261,103.56 C106.692174,103.56 104.85913,101.484528 104.85913,97.3632345 L104.85913,87.8160647 Z M126.855652,82.8645822 L126.855652,87.8160647 L130.255652,87.8160647 L130.255652,90.6031267 L126.855652,90.6031267 L126.855652,99.2608086 C126.855652,99.6166038 126.914783,99.8834501 127.092174,100.090997 C127.269565,100.268895 127.506087,100.357844 127.86087,100.357844 L129.871304,100.357844 L129.871304,103.144906 L127.29913,103.144906 C125.968696,103.144906 124.993043,102.789111 124.372174,102.07752 C123.78087,101.425229 123.485217,100.506092 123.485217,99.2608086 L123.485217,90.6031267 L120.735652,90.6031267 L120.735652,87.8160647 L123.485217,87.8160647 L123.485217,84.2581132 L126.855652,82.8645822 Z M132.768696,81.56 L136.13913,81.56 L136.13913,89.8618868 C136.70087,89.0020485 137.410435,88.379407 138.238261,87.9643127 C138.977391,87.5788679 139.834783,87.4009704 140.810435,87.4009704 C142.673043,87.4009704 144.062609,87.9346631 144.97913,89.0316981 C145.836522,90.069434 146.28,91.6112129 146.28,93.657035 L146.28,103.144906 L142.909565,103.144906 L142.909565,94.250027 C142.909565,92.9454447 142.643478,91.9373585 142.14087,91.2554178 C141.549565,90.5141779 140.692174,90.1583827 139.53913,90.1583827 C138.474783,90.1583827 137.646957,90.5734771 137.055652,91.4036658 C136.434783,92.2338544 136.13913,93.2715903 136.13913,94.5761725 L136.13913,103.144906 L132.768696,103.144906 L132.768696,81.56 Z" id="OAuth" fill="#D1D1D1"></path>
                        <path d="M30.6574398,95.56 L32.8607351,95.56 L32.8607351,108.911648 C32.8607351,111.054505 32.4308238,112.647912 31.5710013,113.746813 C30.6037009,114.955604 29.0452725,115.56 26.9225856,115.56 C25.1223321,115.56 23.7519899,115.038022 22.7846895,114.049011 C21.7636502,113.005055 21.28,111.521538 21.28,109.598462 L21.28,108.911648 L23.4832953,108.911648 L23.4832953,109.570989 C23.4832953,112.208352 24.6386819,113.554505 26.9763245,113.554505 C28.2660583,113.554505 29.2064892,113.142418 29.7976172,112.373187 C30.3618758,111.631429 30.6574398,110.45011 30.6574398,108.829231 L30.6574398,95.56 Z M34.9028137,95.56 L37.3748035,95.56 L41.593308,112.016044 L41.7007858,112.016044 L46.080507,95.56 L48.4718885,95.56 L52.8247402,112.016044 L52.932218,112.016044 L57.1507224,95.56 L59.6227123,95.56 L54.114474,115.175385 L51.6693536,115.175385 L47.3165019,98.8292308 L47.2358935,98.8292308 L42.8561724,115.175385 L40.411052,115.175385 L34.9028137,95.56 Z M60.2138403,95.56 L75.9324715,95.56 L75.9324715,97.5105495 L69.1613688,97.5105495 L69.1613688,115.175385 L66.984943,115.175385 L66.984943,97.5105495 L60.2138403,97.5105495 L60.2138403,95.56 Z M80.8495817,111.906154 C81.3332319,111.906154 81.7094043,112.043516 82.0318378,112.373187 C82.3274018,112.675385 82.4886185,113.06 82.4886185,113.527033 C82.4886185,114.021538 82.3274018,114.406154 82.0318378,114.708352 C81.7094043,115.010549 81.3063625,115.175385 80.8495817,115.175385 C80.392801,115.175385 80.0166286,115.010549 79.7210646,114.708352 C79.3986312,114.378681 79.2374144,113.994066 79.2374144,113.527033 C79.2374144,113.06 79.3986312,112.675385 79.7210646,112.373187 C80.0166286,112.043516 80.392801,111.906154 80.8495817,111.906154 Z M89.8239797,111.906154 C90.2807605,111.906154 90.6838023,112.043516 91.0062357,112.373187 C91.3017997,112.675385 91.4630165,113.06 91.4630165,113.527033 C91.4630165,114.021538 91.3017997,114.406154 91.0062357,114.708352 C90.6838023,115.010549 90.2807605,115.175385 89.8239797,115.175385 C89.367199,115.175385 88.9910266,115.010549 88.6685932,114.708352 C88.3461597,114.378681 88.2118124,113.994066 88.2118124,113.527033 C88.2118124,113.06 88.3461597,112.675385 88.6685932,112.373187 C88.9910266,112.043516 89.367199,111.906154 89.8239797,111.906154 Z M98.7715082,111.906154 C99.228289,111.906154 99.6044613,112.043516 99.9268948,112.373187 C100.249328,112.675385 100.410545,113.06 100.410545,113.527033 C100.410545,114.021538 100.249328,114.406154 99.9268948,114.708352 C99.6044613,115.010549 99.228289,115.175385 98.7715082,115.175385 C98.3147275,115.175385 97.9385551,115.010549 97.6161217,114.708352 C97.2936882,114.378681 97.1593409,113.994066 97.1593409,113.527033 C97.1593409,113.06 97.2936882,112.675385 97.6161217,112.373187 C97.9385551,112.043516 98.3147275,111.906154 98.7715082,111.906154 Z M107.719037,111.906154 C108.202687,111.906154 108.578859,112.043516 108.901293,112.373187 C109.196857,112.675385 109.358074,113.06 109.358074,113.527033 C109.358074,114.021538 109.196857,114.406154 108.901293,114.708352 C108.578859,115.010549 108.175817,115.175385 107.719037,115.175385 C107.262256,115.175385 106.886084,115.010549 106.59052,114.708352 C106.268086,114.378681 106.106869,113.994066 106.106869,113.527033 C106.106869,113.06 106.268086,112.675385 106.59052,112.373187 C106.886084,112.043516 107.262256,111.906154 107.719037,111.906154 Z M116.693435,111.906154 C117.150215,111.906154 117.553257,112.043516 117.875691,112.373187 C118.171255,112.675385 118.332471,113.06 118.332471,113.527033 C118.332471,114.021538 118.171255,114.406154 117.875691,114.708352 C117.553257,115.010549 117.150215,115.175385 116.693435,115.175385 C116.236654,115.175385 115.860482,115.010549 115.538048,114.708352 C115.215615,114.378681 115.081267,113.994066 115.081267,113.527033 C115.081267,113.06 115.215615,112.675385 115.538048,112.373187 C115.860482,112.043516 116.236654,111.906154 116.693435,111.906154 Z M125.640963,111.906154 C126.097744,111.906154 126.473916,112.043516 126.79635,112.373187 C127.118783,112.675385 127.28,113.06 127.28,113.527033 C127.28,114.021538 127.118783,114.406154 126.79635,114.708352 C126.473916,115.010549 126.097744,115.175385 125.640963,115.175385 C125.184183,115.175385 124.80801,115.010549 124.485577,114.708352 C124.163143,114.378681 124.028796,113.994066 124.028796,113.527033 C124.028796,113.06 124.163143,112.675385 124.485577,112.373187 C124.80801,112.043516 125.184183,111.906154 125.640963,111.906154 Z" id="JWT……" fill="#404040"></path>
                    </g>
                    <path d="M197.046155,61.1363654 L211.661538,61.1363654 C212.830771,61.1363654 214,62.0227297 214,63.5 C214,64.9772746 213.123076,65.8636389 211.661538,65.8636389 L197.046155,65.8636389 L197.046155,80.6363632 C197.046155,81.8181838 196.169231,83 194.707693,83 C193.246154,83 192.369231,82.1136357 192.369231,80.6363632 L192.369231,65.8636389 L177.753848,65.8636389 C176.876924,65.2727308 176,64.3863665 176,63.2045459 C176,62.0227254 176.876924,60.8409092 178.338462,60.8409092 L192.953845,60.8409092 L192.953845,46.0681849 C192.953845,44.8863643 193.830769,44 195,44 C196.169235,44 197.338464,44.8863643 197.338464,46.3636368 L197.338464,61.1363611 L197.046155,61.1363654 Z" id="路径" fill="#CBD3DA"></path>
                </g>
            </g>
        </g>
    </g>
</svg>