<?xml version="1.0" encoding="UTF-8"?>
<svg width="413px" height="266px" viewBox="0 0 413 266" version="1.1" xmlns="http://www.w3.org/2000/svg" xmlns:xlink="http://www.w3.org/1999/xlink">
    <!-- Generator: Sketch 55 (78076) - https://sketchapp.com -->
    <title>编组</title>
    <desc>Created with Sketch.</desc>
    <defs>
        <polygon id="path-1" points="17 167.5 206.5 73 396 167.5 206.5 262"></polygon>
        <filter x="-3.7%" y="-7.4%" width="107.4%" height="114.8%" filterUnits="objectBoundingBox" id="filter-2">
            <feMorphology radius="10" operator="erode" in="SourceAlpha" result="shadowSpreadInner1"></feMorphology>
            <feGaussianBlur stdDeviation="9" in="shadowSpreadInner1" result="shadowBlurInner1"></feGaussianBlur>
            <feOffset dx="0" dy="0" in="shadowBlurInner1" result="shadowOffsetInner1"></feOffset>
            <feComposite in="shadowOffsetInner1" in2="SourceAlpha" operator="arithmetic" k2="-1" k3="1" result="shadowInnerInner1"></feComposite>
            <feColorMatrix values="0 0 0 0 0.258823529   0 0 0 0 0.568627451   0 0 0 0 0.968627451  0 0 0 1 0" type="matrix" in="shadowInnerInner1"></feColorMatrix>
        </filter>
        <polygon id="path-3" points="40 164.5 206.5 82 373 164.5 206.5 247"></polygon>
        <filter x="-4.8%" y="-9.7%" width="109.6%" height="119.4%" filterUnits="objectBoundingBox" id="filter-4">
            <feMorphology radius="12" operator="erode" in="SourceAlpha" result="shadowSpreadInner1"></feMorphology>
            <feGaussianBlur stdDeviation="10" in="shadowSpreadInner1" result="shadowBlurInner1"></feGaussianBlur>
            <feOffset dx="0" dy="0" in="shadowBlurInner1" result="shadowOffsetInner1"></feOffset>
            <feComposite in="shadowOffsetInner1" in2="SourceAlpha" operator="arithmetic" k2="-1" k3="1" result="shadowInnerInner1"></feComposite>
            <feColorMatrix values="0 0 0 0 0.258823529   0 0 0 0 0.568627451   0 0 0 0 0.968627451  0 0 0 1 0" type="matrix" in="shadowInnerInner1"></feColorMatrix>
        </filter>
        <radialGradient cx="31.9974675%" cy="26.6694794%" fx="31.9974675%" fy="26.6694794%" r="65.1742087%" id="radialGradient-5">
            <stop stop-color="#93DCFF" stop-opacity="0.159118226" offset="0%"></stop>
            <stop stop-color="#42BCF7" stop-opacity="0.566597465" offset="100%"></stop>
        </radialGradient>
        <linearGradient x1="82.3689352%" y1="86.786767%" x2="11.6010882%" y2="17.2303234%" id="linearGradient-6">
            <stop stop-color="#77D7FC" stop-opacity="0" offset="0%"></stop>
            <stop stop-color="#42AEF7" offset="100%"></stop>
        </linearGradient>
        <linearGradient x1="14.2701011%" y1="0%" x2="50%" y2="100%" id="linearGradient-7">
            <stop stop-color="#FFB41C" offset="0%"></stop>
            <stop stop-color="#FFB41C" stop-opacity="0" offset="100%"></stop>
        </linearGradient>
        <linearGradient x1="0%" y1="0%" x2="100%" y2="100%" id="linearGradient-8">
            <stop stop-color="#4291F7" stop-opacity="0" offset="0%"></stop>
            <stop stop-color="#42AEF7" offset="100%"></stop>
        </linearGradient>
        <linearGradient x1="50%" y1="0%" x2="50%" y2="100%" id="linearGradient-9">
            <stop stop-color="#44ABF3" offset="0%"></stop>
            <stop stop-color="#44ACF3" stop-opacity="0" offset="100%"></stop>
        </linearGradient>
        <linearGradient x1="50%" y1="0%" x2="50%" y2="100%" id="linearGradient-10">
            <stop stop-color="#44ABF3" offset="0%"></stop>
            <stop stop-color="#44ACF3" stop-opacity="0" offset="100%"></stop>
        </linearGradient>
        <linearGradient x1="50%" y1="0%" x2="50%" y2="100%" id="linearGradient-11">
            <stop stop-color="#44ABF3" offset="0%"></stop>
            <stop stop-color="#44ACF3" stop-opacity="0" offset="100%"></stop>
        </linearGradient>
        <linearGradient x1="50%" y1="2.83919391%" x2="50%" y2="116.43027%" id="linearGradient-12">
            <stop stop-color="#4291F7" stop-opacity="0" offset="0%"></stop>
            <stop stop-color="#4291F7" offset="100%"></stop>
        </linearGradient>
    </defs>
    <g id="页面1" stroke="none" stroke-width="1" fill="none" fill-rule="evenodd">
        <g id="账号生命周期管理" transform="translate(-834.000000, -118.000000)">
            <g id="编组" transform="translate(834.000000, 111.000000)">
                <g id="矩形备份" opacity="0.457589286">
                    <use fill="black" fill-opacity="1" filter="url(#filter-2)" xlink:href="#path-1"></use>
                    <path stroke="#4291F7" stroke-width="2" d="M19.2408016,167.5 L206.5,260.882555 L393.759198,167.5 L206.5,74.1174446 L19.2408016,167.5 Z" stroke-linejoin="square"></path>
                </g>
                <path d="M1.12020545,170 L206.5,272.441253 L411.879795,170 L206.5,67.5587465 L1.12020545,170 Z" id="矩形备份-3" stroke="#4291F7" opacity="0.365257626"></path>
                <g id="矩形备份-2" opacity="0.726422991">
                    <use fill="black" fill-opacity="1" filter="url(#filter-4)" xlink:href="#path-3"></use>
                    <path stroke="#4291F7" stroke-width="2" d="M42.252345,164.5 L206.5,245.883973 L370.747655,164.5 L206.5,83.1160268 L42.252345,164.5 Z" stroke-linejoin="square"></path>
                </g>
                <circle id="椭圆形" stroke="url(#linearGradient-6)" stroke-width="2" fill="url(#radialGradient-5)" cx="207" cy="108" r="83"></circle>
                <path d="M305,137 L222,137 L222,54 C267.839634,54 305,91.1603658 305,137 Z" id="路径" fill="url(#linearGradient-7)" opacity="0.478655134" transform="translate(263.500000, 95.500000) rotate(32.000000) translate(-263.500000, -95.500000) "></path>
                <path d="M137,109 C137,147.659932 168.340068,179 207,179 L207,179" id="路径" stroke="url(#linearGradient-8)" stroke-width="4" stroke-linecap="round"></path>
                <path d="M206,39 C206,77.6599325 237.340068,109 276,109 L276,109" id="路径备份" stroke="url(#linearGradient-8)" stroke-width="4" stroke-linecap="round" transform="translate(241.000000, 74.000000) rotate(-180.000000) translate(-241.000000, -74.000000) "></path>
                <path d="M244.249494,96.7309737 L226.905676,114.848096 C226.967722,115.222852 227,115.607656 227,116 C227,119.865993 223.865993,123 220,123 C216.530279,123 213.650175,120.47555 213.096197,117.163158 L200.765411,108.902025 C199.678188,109.597102 198.386145,110 197,110 C196.593863,110 196.195805,109.965412 195.808611,109.899022 L181.832515,127.997493 L167.315776,128.022197 C166.187803,130.375172 163.783651,132 161,132 C157.134007,132 154,128.865993 154,125 C154,121.134007 157.134007,118 161,118 C163.801106,118 166.21794,119.645269 167.336845,122.022152 L178.881233,122.002507 L190.900823,106.43763 C190.327296,105.422242 190,104.249343 190,103 C190,99.1340068 193.134007,96 197,96 C200.865993,96 204,99.1340068 204,103 C204,103.275852 203.984044,103.547977 203.953004,103.815502 L214.932228,111.171143 C216.207156,109.833537 218.006237,109 220,109 C221.222157,109 222.371161,109.313207 223.371123,109.863734 L239.764703,92.7392177 C238.960247,91.3443336 238.5,89.725915 238.5,88 C238.5,82.7532949 242.753295,78.5 248,78.5 C253.246705,78.5 257.5,82.7532949 257.5,88 C257.5,93.2467051 253.246705,97.5 248,97.5 C246.668028,97.5 245.40008,97.225879 244.249494,96.7309737 Z M248,92.5 C250.485281,92.5 252.5,90.4852814 252.5,88 C252.5,85.5147186 250.485281,83.5 248,83.5 C245.514719,83.5 243.5,85.5147186 243.5,88 C243.5,90.4852814 245.514719,92.5 248,92.5 Z" id="形状" fill="#FFB41C" fill-rule="nonzero"></path>
                <path d="M70,93 L70,178.685645" id="路径-23" stroke="url(#linearGradient-9)" stroke-width="4" stroke-linecap="round" stroke-linejoin="round"></path>
                <path d="M303,51.75 L303,104.25" id="路径-23备份" stroke="url(#linearGradient-10)" stroke-width="4" opacity="0.538760231" stroke-linecap="round" stroke-linejoin="round"></path>
                <path d="M310,135.875 L310,208.125" id="路径-23备份-2" stroke="url(#linearGradient-11)" stroke-width="4" opacity="0.807710193" stroke-linecap="round" stroke-linejoin="round"></path>
                <path d="M371.990909,165 L206.5,247 L41.0090909,165 L40,165 L10,0 L403,0 L373,165 L371.990909,165 Z" id="形状结合" fill="url(#linearGradient-12)" opacity="0.576032366"></path>
            </g>
        </g>
    </g>
</svg>