<?xml version="1.0" encoding="UTF-8"?>
<svg width="120px" height="40px" viewBox="0 0 120 40" version="1.1" xmlns="http://www.w3.org/2000/svg" xmlns:xlink="http://www.w3.org/1999/xlink">
    <!-- Generator: Sketch 55 (78076) - https://sketchapp.com -->
    <title>玉符logo/</title>
    <desc>Created with Sketch.</desc>
    <g id="页面1" stroke="none" stroke-width="1" fill="none" fill-rule="evenodd">
        <g id="首页" transform="translate(-108.000000, -20.000000)" fill="#FFFFFF" fill-rule="nonzero">
            <g id="玉符logo/" transform="translate(108.000000, 20.000000)">
                <path d="M24.0780298,18.8648168 L21.1594409,18.8648168 L21.1594409,28.1068324 L16.7815576,28.1068324 L16.7815576,25.3985133 L13.8629687,25.3985133 L13.8629687,21.02063 L16.7815576,21.02063 L16.7815576,14.4869334 L24.0780298,14.4869334 L24.0780298,18.8648168 Z M40,18.8405043 L33.399499,18.8405043 C32.4505469,12.5340525 27.4659475,7.55164342 21.1594957,6.60269134 L21.1594957,0 C31.0876261,1.02123232 38.9787677,8.91237389 40,18.8405043 Z M4.37788334,21.0291722 C4.37788334,29.0884201 10.9110323,35.6221167 18.9708278,35.6221167 C26.2859177,35.6221167 32.3432217,30.2388808 33.399499,23.2183877 L37.8113321,23.2183877 C36.7254856,32.6635546 28.7067585,40 18.9708278,40 C8.49347698,40 0,31.506523 0,21.0291722 C0,11.2932415 7.3364454,3.27451437 16.7816123,2.18866788 L16.7816123,6.60050103 C9.76111925,7.65677833 4.37788334,13.7140823 4.37788334,21.0291722 Z" id="形状结合"></path>
                <path d="M49.44,12.14 L64.596,12.14 L64.596,13.796 L57.864,13.796 L57.864,18.152 L63.768,18.152 L63.768,19.826 L57.864,19.826 L57.864,25.496 L64.956,25.496 L64.956,27.152 L49.044,27.152 L49.044,25.496 L56.136,25.496 L56.136,19.826 L50.268,19.826 L50.268,18.152 L56.136,18.152 L56.136,13.796 L49.44,13.796 L49.44,12.14 Z M61.23,20.492 C62.31,21.824 63.156,23.012 63.75,24.02 L62.382,24.974 C61.77,23.876 60.942,22.652 59.898,21.32 L61.23,20.492 Z M69.744,14.39 C69.276,15.254 68.736,16.064 68.142,16.784 L66.666,15.866 C67.89,14.408 68.772,12.842 69.294,11.168 L70.95,11.528 C70.806,11.996 70.644,12.428 70.482,12.842 L74.802,12.842 L74.802,14.39 L72.642,14.39 C72.966,14.894 73.236,15.38 73.452,15.83 L71.868,16.424 C71.58,15.722 71.238,15.038 70.842,14.39 L69.744,14.39 Z M77.232,14.39 C76.836,15.236 76.404,16.01 75.9,16.73 L74.46,15.812 C75.468,14.354 76.17,12.788 76.602,11.132 L78.276,11.492 C78.132,11.96 77.988,12.41 77.844,12.842 L82.884,12.842 L82.884,14.39 L80.382,14.39 C80.706,14.894 80.958,15.362 81.174,15.794 L79.608,16.388 C79.32,15.704 78.978,15.038 78.6,14.39 L77.232,14.39 Z M70.302,16.064 L71.742,16.748 C71.49,17.432 71.166,18.116 70.806,18.764 L70.806,27.728 L69.114,27.728 L69.114,21.158 C68.556,21.806 67.962,22.418 67.314,22.994 L66.774,21.194 C68.358,19.736 69.546,18.026 70.302,16.064 Z M71.976,18.602 L79.194,18.602 L79.194,16.874 L80.886,16.874 L80.886,18.602 L83.028,18.602 L83.028,20.258 L80.886,20.258 L80.886,25.856 C80.886,27.098 80.274,27.728 79.05,27.728 L76.368,27.728 L75.99,26.09 C76.854,26.162 77.664,26.198 78.438,26.198 C78.942,26.198 79.194,25.928 79.194,25.424 L79.194,20.258 L71.976,20.258 L71.976,18.602 Z M74.496,20.996 C75.612,22.238 76.476,23.318 77.07,24.236 L75.738,25.154 C75.108,24.146 74.244,23.048 73.164,21.824 L74.496,20.996 Z M101.1,20.852 L101.37,22.508 L99.678,22.778 L99.678,27.8 L97.95,27.8 L97.95,23.066 L92.532,23.93 L92.28,22.274 L97.95,21.356 L97.95,11.312 L99.678,11.312 L99.678,21.086 L101.1,20.852 Z M94.278,12.23 C95.502,13.094 96.546,13.976 97.392,14.84 L96.222,16.028 C95.466,15.2 94.422,14.336 93.072,13.4 L94.278,12.23 Z M93.738,16.37 C94.998,17.27 96.06,18.188 96.924,19.106 L95.7,20.312 C94.944,19.466 93.9,18.548 92.532,17.54 L93.738,16.37 Z M85.08,15.956 L87.888,15.956 L87.888,13.706 C87.078,13.814 86.25,13.922 85.422,13.994 L85.098,12.392 C87.42,12.212 89.49,11.852 91.326,11.312 L91.92,12.914 C91.182,13.112 90.408,13.292 89.616,13.436 L89.616,15.956 L91.92,15.956 L91.92,17.594 L89.616,17.594 L89.616,18.296 C90.57,19.016 91.542,19.844 92.532,20.78 L91.578,22.238 C90.804,21.284 90.156,20.51 89.616,19.934 L89.616,27.8 L87.888,27.8 L87.888,20.042 C87.222,21.626 86.358,23.084 85.278,24.38 L84.522,22.472 C85.962,21.032 87.024,19.412 87.69,17.594 L85.08,17.594 L85.08,15.956 Z M104.88,27.656 L103.35,27.656 L102.99,26.054 C103.458,26.126 103.89,26.162 104.304,26.162 C104.736,26.162 104.952,25.91 104.952,25.424 L104.952,21.608 C104.304,21.86 103.638,22.112 102.99,22.328 L102.558,20.636 C103.368,20.456 104.16,20.222 104.952,19.934 L104.952,16.046 L102.918,16.046 L102.918,14.408 L104.952,14.408 L104.952,11.258 L106.608,11.258 L106.608,14.408 L108.372,14.408 L108.372,16.046 L106.608,16.046 L106.608,19.25 C107.22,18.962 107.814,18.656 108.408,18.332 L108.408,20.006 C107.814,20.33 107.22,20.618 106.608,20.906 L106.608,25.856 C106.608,27.044 106.032,27.656 104.88,27.656 Z M108.876,13.706 L113.088,13.706 L113.088,11.294 L114.744,11.294 L114.744,13.706 L118.956,13.706 L118.956,15.344 L114.744,15.344 L114.744,17.918 L118.272,17.918 L118.272,19.43 C117.696,21.302 116.742,22.922 115.374,24.272 C116.49,25.1 117.858,25.838 119.46,26.468 L118.578,27.872 C116.85,27.116 115.392,26.252 114.204,25.316 C112.836,26.378 111.18,27.242 109.236,27.926 L108.426,26.504 C110.226,25.928 111.756,25.19 112.998,24.254 C111.594,22.85 110.658,21.284 110.172,19.52 L109.236,19.52 L109.236,17.918 L113.088,17.918 L113.088,15.344 L108.876,15.344 L108.876,13.706 Z M111.774,19.52 C112.206,20.924 112.998,22.166 114.168,23.264 C115.248,22.184 116.058,20.942 116.598,19.52 L111.774,19.52 Z" id="玉符科技"></path>
            </g>
        </g>
    </g>
</svg>