<?xml version="1.0" encoding="UTF-8"?>
<svg width="140px" height="140px" viewBox="0 0 140 140" version="1.1" xmlns="http://www.w3.org/2000/svg" xmlns:xlink="http://www.w3.org/1999/xlink">
    <!-- Generator: Sketch 55 (78076) - https://sketchapp.com -->
    <title>形状结合</title>
    <desc>Created with Sketch.</desc>
    <g id="页面1" stroke="none" stroke-width="1" fill="none" fill-rule="evenodd">
        <g id="关于玉符" transform="translate(-650.000000, -128.000000)" fill="#FFFFFF" fill-rule="nonzero">
            <path d="M734.189189,193.338042 L724.189189,193.338042 L724.189189,225.432432 L709.189189,225.432432 L709.189189,216.027357 L699.189189,216.027357 L699.189189,200.824451 L709.189189,200.824451 L709.189189,178.135135 L734.189189,178.135135 L734.189189,193.338042 Z M790,193.941765 L766.898246,193.941765 C763.576914,171.869184 746.130816,154.430752 724.058235,151.10942 L724.058235,128 C758.806691,131.574313 786.425687,159.193309 790,193.941765 Z M665.322592,201.602103 C665.322592,229.80947 688.188613,252.677408 716.397897,252.677408 C742.000712,252.677408 763.201276,233.836083 766.898246,209.264357 L782.339662,209.264357 C778.5392,242.322441 750.473655,268 716.397897,268 C679.727169,268 650,238.272831 650,201.602103 C650,167.526345 675.677559,139.4608 708.735643,135.660338 L708.735643,151.101754 C684.163917,154.798724 665.322592,175.999288 665.322592,201.602103 Z" id="形状结合"></path>
        </g>
    </g>
</svg>