<?xml version="1.0" encoding="UTF-8"?>
<svg width="180px" height="66px" viewBox="0 0 180 66" version="1.1" xmlns="http://www.w3.org/2000/svg" xmlns:xlink="http://www.w3.org/1999/xlink">
    <!-- Generator: Sketch 55 (78076) - https://sketchapp.com -->
    <title>形状</title>
    <desc>Created with Sketch.</desc>
    <g id="页面1" stroke="none" stroke-width="1" fill="none" fill-rule="evenodd">
        <g id="首页" transform="translate(-108.000000, -4879.000000)" fill="#FFFFFF">
            <path d="M147.632217,4910.1269 L142.828053,4910.1269 L142.828053,4925.37602 L135.622892,4925.37602 L135.622892,4920.90748 L130.818006,4920.90748 L130.818006,4913.68418 L135.622892,4913.68418 L135.622892,4902.9036 L147.632217,4902.9036 L147.632217,4910.1269 Z M173.840112,4910.08688 L162.976324,4910.08688 C161.413506,4899.68109 153.208894,4891.46027 142.828198,4889.8944 L142.828198,4879 C159.170165,4880.68549 172.159414,4893.70541 173.840112,4910.08688 Z M115.205884,4913.69853 C115.205884,4926.99611 125.959747,4937.7767 139.225256,4937.7767 C151.266401,4937.7767 161.237047,4928.89473 162.976324,4917.31019 L170.238616,4917.31019 C168.450163,4932.89495 155.251911,4945 139.225256,4945 C121.980022,4945 108,4930.98546 108,4913.69853 C108,4897.63386 120.075135,4884.40298 135.622314,4882.61093 L135.622314,4889.89078 C124.065708,4891.63353 115.205884,4901.62828 115.205884,4913.69853 Z M231.351512,4895.54458 L230.407024,4896.49063 L234.752684,4896.49063 L234.752684,4899.45056 L232.090614,4899.45056 L232.090614,4903.89009 L234.752684,4903.89009 L234.752684,4906.85003 L232.090614,4906.85003 L232.090614,4913.01564 C232.090614,4914.25094 231.673333,4915.29268 230.839492,4916.14303 C230.004929,4916.99194 228.99463,4917.41675 227.807872,4917.41675 L224.081264,4917.41675 L224.081264,4914.41043 L227.042012,4914.41043 C228.233109,4914.41043 228.927373,4913.83772 229.125528,4912.68942 L229.125528,4907.52422 L229.138545,4907.52422 L229.138545,4906.85003 L219.413784,4906.85003 L219.413784,4903.89009 L229.138545,4903.89009 L229.138545,4899.45056 L227.454954,4899.45056 L224.906426,4902.00525 L222.818571,4899.91235 L229.262934,4893.45168 L231.351512,4895.54458 Z M219.413929,4899.45063 L219.413929,4902.73171 L219.413205,4902.73171 L217.408517,4904.74125 L217.408517,4917.41683 L214.455725,4917.41683 L214.455725,4907.69973 L212.419217,4909.74043 L210.331362,4907.64753 L216.45752,4901.50656 L216.461859,4901.50801 L216.461859,4899.45063 L214.968468,4899.45063 L212.419217,4902.00532 L210.331362,4899.91242 L216.777171,4893.45175 L218.864303,4895.54466 L217.92126,4896.4907 L224.159514,4896.4907 L221.206721,4899.45063 L219.413929,4899.45063 Z M224.29193,4907.91387 L226.379785,4910.00678 L222.328464,4914.06717 L220.241332,4911.97426 L224.29193,4907.91387 Z M258.470485,4893.50779 L258.470485,4908.68804 L261.498489,4908.68804 L261.498489,4911.72409 L258.470485,4911.72409 L258.470485,4917.41632 L255.441757,4917.41632 L255.441757,4911.72409 L248.62712,4911.72409 L248.62712,4908.68804 L255.441757,4908.68804 L255.441757,4906.03113 L251.276895,4906.03113 L251.276895,4902.99508 L255.441757,4902.99508 L255.441757,4900.71877 L251.276895,4900.71877 L251.276895,4897.68272 L255.441757,4897.68272 L255.441757,4893.50779 L258.470485,4893.50779 Z M245.597814,4905.27248 L245.597814,4907.17038 L247.870083,4907.17038 L247.870083,4910.20643 L245.597814,4910.20643 L245.597814,4917.41668 L242.569809,4917.41668 L242.569809,4911.02488 L239.948962,4913.65134 L237.807591,4911.50479 L242.569809,4906.73106 L242.569809,4905.27248 L238.441107,4905.27248 L238.441107,4902.23643 L242.569809,4902.23643 L242.569809,4899.03075 L239.095596,4899.03075 L239.095596,4896.07082 L239.389211,4896.07082 L239.389211,4896.05849 L243.784772,4896.05849 C244.930308,4895.85986 245.501629,4895.54306 245.501629,4894.34909 L245.501629,4894.03809 L248.500706,4894.03809 L248.500706,4894.73693 C248.500706,4895.92655 248.077639,4896.93857 247.230058,4897.77588 C246.748412,4898.25071 246.203125,4898.58564 245.597814,4898.79152 L245.597814,4902.23643 L249.042377,4902.23643 L249.042377,4905.27248 L245.597814,4905.27248 Z M205.086413,4910.67097 L205.086413,4914.38049 L207.73908,4914.38049 L207.73908,4917.41654 L186.53871,4917.41654 L186.53871,4914.38049 L195.62417,4914.38049 L195.62417,4907.54938 L188.052351,4907.54938 L188.052351,4904.51333 L195.62417,4904.51333 L195.62417,4898.44123 L186.91694,4898.44123 L186.91694,4895.40518 L207.360851,4895.40518 L207.360851,4898.44123 L198.652898,4898.44123 L198.652898,4904.51333 L206.224717,4904.51333 L206.224717,4907.54938 L198.652898,4907.54938 L198.652898,4914.38049 L202.058408,4914.38049 L202.058408,4910.67097 L205.086413,4910.67097 Z M274.37087,4899.57989 L274.37087,4902.61594 L272.221544,4902.61594 L272.221544,4912.97606 C272.221544,4914.21208 271.803539,4915.25382 270.969699,4916.10345 C270.135136,4916.95308 269.124837,4917.37717 267.938079,4917.37717 L265.347605,4917.37717 L265.347605,4914.37157 L267.172942,4914.37157 C268.363316,4914.37157 269.05758,4913.79887 269.256458,4912.65056 L269.256458,4909.32091 L267.396408,4911.18473 L265.25576,4909.03746 L269.256458,4905.02709 L269.256458,4902.61594 L265.285411,4902.61594 L265.285411,4899.57989 L269.256458,4899.57989 L269.256458,4894.20228 L269.268752,4894.20228 L269.268752,4893.52809 L272.221544,4893.52809 L272.221544,4899.57989 L274.37087,4899.57989 Z M281.185363,4912.05959 C282.59631,4910.80037 283.613118,4909.15331 284.060051,4907.30326 L278.310675,4907.30326 C278.757608,4909.15331 279.774416,4910.80037 281.185363,4912.05959 Z M283.646385,4913.67476 C284.962594,4914.28371 286.440075,4914.6266 288,4914.6266 L288,4917.4169 C285.499202,4917.4169 283.164016,4916.7369 281.185363,4915.5654 C279.207433,4916.7369 276.871523,4917.4169 274.370726,4917.4169 L274.370726,4914.6266 C275.931374,4914.6266 277.408132,4914.28371 278.724341,4913.67476 C276.973493,4911.95592 275.749853,4909.75356 275.300751,4907.30326 L275.107658,4905.90847 L275.107658,4904.51369 L279.670999,4904.51369 L279.670999,4901.09777 L274.749678,4901.09777 L274.749678,4898.06172 L279.670999,4898.06172 L279.670999,4893.50765 L282.699727,4893.50765 L282.699727,4898.06172 L287.621047,4898.06172 L287.621047,4901.09777 L282.699727,4901.09777 L282.699727,4904.51369 L287.263067,4904.51369 L287.263067,4905.55978 L287.069975,4907.30326 C286.620873,4909.75356 285.397232,4911.95592 283.646385,4913.67476 Z M205.652093,4931.88221 L205.652093,4925.3621 L207.248901,4925.3621 L207.248901,4931.85321 C207.248901,4933.219 206.869225,4934.26146 206.120722,4934.9806 C205.373664,4935.68597 204.319251,4936.05279 202.942293,4936.05279 C201.550149,4936.05279 200.495735,4935.70047 199.763142,4934.99583 C199.001621,4934.26146 198.619775,4933.219 198.619775,4931.85321 L198.619775,4925.3621 L200.217306,4925.3621 L200.217306,4931.88221 C200.217306,4932.82246 200.422693,4933.5126 200.86167,4933.96786 C201.300648,4934.42312 201.98985,4934.658 202.942293,4934.658 C203.880273,4934.658 204.568029,4934.42312 205.007729,4933.96786 C205.432966,4933.5126 205.652093,4932.82246 205.652093,4931.88221 Z M210.03008,4935.84741 L210.03008,4925.36188 L217.13544,4925.36188 L217.13544,4926.72767 L211.626888,4926.72767 L211.626888,4929.78256 L216.82736,4929.78256 L216.82736,4931.14835 L211.626888,4931.14835 L211.626888,4935.84741 L210.03008,4935.84741 Z M226.304718,4931.88221 L226.304718,4925.3621 L227.901525,4925.3621 L227.901525,4931.85321 C227.901525,4933.219 227.521126,4934.26146 226.773346,4934.9806 C226.026289,4935.68597 224.971152,4936.05279 223.594195,4936.05279 C222.20205,4936.05279 221.147636,4935.70047 220.415043,4934.99583 C219.653522,4934.26146 219.2724,4933.219 219.2724,4931.85321 L219.2724,4925.3621 L220.869208,4925.3621 L220.869208,4931.88221 C220.869208,4932.82246 221.074594,4933.5126 221.514295,4933.96786 C221.953272,4934.42312 222.642474,4934.658 223.594195,4934.658 C224.532174,4934.658 225.220653,4934.42312 225.659631,4933.96786 C226.084867,4933.5126 226.304718,4932.82246 226.304718,4931.88221 Z M233.395759,4935.84763 L233.395759,4925.3621 L234.978103,4925.3621 L234.978103,4935.84763 L233.395759,4935.84763 Z M248.365614,4931.30943 L252.453094,4931.30943 C252.307009,4929.98787 251.617808,4929.32672 250.387658,4929.32672 C249.80115,4929.32672 249.346985,4929.48838 248.995514,4929.84143 C248.673693,4930.17853 248.45312,4930.66351 248.365614,4931.30943 Z M253.171224,4929.31222 C253.757009,4930.07558 254.064366,4931.13327 254.07883,4932.48456 L248.336686,4932.48456 C248.395265,4933.21893 248.585464,4933.79163 248.936935,4934.18817 C249.288407,4934.57021 249.772222,4934.77537 250.387658,4934.77537 C250.929329,4934.77537 251.36903,4934.64343 251.705314,4934.39333 C251.969279,4934.18817 252.189129,4933.85035 252.393792,4933.40958 L253.947209,4933.40958 C253.772196,4934.11495 253.435189,4934.71665 252.907259,4935.18641 C252.247708,4935.75912 251.413144,4936.05272 250.401399,4936.05272 C249.288407,4936.05272 248.395265,4935.7004 247.750177,4935.01025 C247.047235,4934.27589 246.69504,4933.29214 246.69504,4932.0438 C246.69504,4930.91362 247.017584,4929.97337 247.691599,4929.21001 C248.336686,4928.43142 249.229828,4928.04938 250.343543,4928.04938 C251.574416,4928.04938 252.526137,4928.46042 253.171224,4929.31222 Z M259.966335,4928.0493 C261.842294,4928.0493 262.794015,4929.07727 262.794015,4931.1622 L262.794015,4935.84749 L261.241322,4935.84749 L261.241322,4931.29486 C261.241322,4930.00229 260.641073,4929.35637 259.468779,4929.35637 C259.029078,4929.35637 258.633492,4929.50281 258.311672,4929.82613 C257.9602,4930.17845 257.74035,4930.66344 257.681048,4931.28036 L257.681048,4935.84749 L256.127632,4935.84749 L256.127632,4928.25519 L257.681048,4929.19471 C257.973941,4928.81267 258.311672,4928.53356 258.692071,4928.34291 C259.073193,4928.13775 259.498429,4928.0493 259.966335,4928.0493 Z M271.039342,4935.84763 L271.039342,4929.41669 L272.591312,4929.41669 L272.591312,4935.84763 L271.039342,4935.84763 Z M271.815689,4925.80127 C272.123769,4925.80127 272.387011,4925.88971 272.591674,4926.09487 C272.79706,4926.28625 272.900477,4926.53563 272.900477,4926.84373 C272.900477,4927.15255 272.78332,4927.40193 272.577933,4927.60782 C272.37327,4927.79848 272.108582,4927.90142 271.815689,4927.90142 C271.508332,4927.90142 271.258831,4927.79848 271.054168,4927.60782 C270.848781,4927.40193 270.746088,4927.13805 270.746088,4926.84373 C270.746088,4926.53563 270.848781,4926.28625 271.054168,4926.09487 C271.258831,4925.88971 271.508332,4925.80127 271.815689,4925.80127 Z M285.790793,4928.25497 L287.490294,4928.25497 L283.373163,4938.755 L281.717777,4938.755 L283.036879,4935.67111 L280.03274,4928.25497 L281.717777,4928.25497 L283.7984,4933.79134 L285.790793,4928.25497 Z M242.993961,4932.13383 L242.993961,4931.999 C242.993961,4931.15662 242.783513,4930.48025 242.394435,4929.96916 C242.003912,4929.4878 241.524435,4929.26235 240.93865,4929.26235 C240.159772,4929.26235 239.573987,4929.51825 239.199374,4930.05906 C238.869598,4930.50997 238.703987,4931.17184 238.703987,4932.02872 C238.703987,4932.8856 238.854411,4933.54747 239.169723,4934.0281 C239.529149,4934.58486 240.114934,4934.87048 240.894535,4934.87048 C241.58446,4934.87048 242.108774,4934.58486 242.498575,4934.04333 C242.82835,4933.54747 242.993961,4932.91605 242.993961,4932.13383 Z M242.949123,4929.33774 L242.949123,4925.00767 L244.538699,4925.00767 L244.538699,4935.95282 L243.053986,4935.95282 L243.053986,4935.02055 C242.514485,4935.77231 241.703787,4936.16305 240.654436,4936.16305 C239.513962,4936.16305 238.614311,4935.75709 237.969947,4934.94515 C237.369698,4934.19339 237.069573,4933.2169 237.069573,4932.02872 C237.069573,4930.88621 237.354511,4929.93872 237.95476,4929.18768 C238.583937,4928.37502 239.469124,4927.96978 240.5785,4927.96978 C241.524435,4927.96978 242.319223,4928.41997 242.949123,4929.33774 Z M266.427042,4926.53889 L266.427042,4928.25483 L268.741256,4928.25483 L268.741256,4929.54739 L266.427042,4929.54739 L266.427042,4933.95285 C266.427042,4934.15874 266.471156,4934.30518 266.559386,4934.40812 C266.647615,4934.49656 266.778513,4934.55528 266.969436,4934.55528 L268.550333,4934.55528 L268.550333,4935.84712 L266.719934,4935.84712 C266.076294,4935.84712 265.592478,4935.67169 265.298862,4935.33314 C265.00597,4935.01054 264.874349,4934.55528 264.874349,4933.95285 L264.874349,4926.53889 L266.427042,4926.53889 Z M276.548907,4926.53889 L276.548907,4928.25483 L278.863121,4928.25483 L278.863121,4929.54739 L276.548907,4929.54739 L276.548907,4933.95285 C276.548907,4934.15874 276.593022,4934.30518 276.681252,4934.40812 C276.768758,4934.49656 276.900379,4934.55528 277.091301,4934.55528 L278.672199,4934.55528 L278.672199,4935.84712 L276.8418,4935.84712 C276.197436,4935.84712 275.713621,4935.67169 275.420728,4935.33314 C275.127835,4935.01054 274.996214,4934.55528 274.996214,4933.95285 L274.996214,4926.53889 L276.548907,4926.53889 Z M188.836436,4925.36195 L190.778929,4928.72277 L189.894465,4930.16975 L186.917084,4925.36195 L188.836436,4925.36195 Z M191.211542,4931.23085 L194.87234,4925.36173 L196.791691,4925.36173 L192.644909,4931.66219 L192.644909,4935.84727 L191.062565,4935.84727 L191.062565,4931.66219 L191.211542,4931.23085 Z" id="形状"></path>
        </g>
    </g>
</svg>